<?xml version="1.0" encoding="utf-8"?>
<!-- Generator: Adobe Illustrator 21.0.0, SVG Export Plug-In . SVG Version: 6.00 Build 0)  -->
<svg version="1.1" id="Layer_1" xmlns="http://www.w3.org/2000/svg" xmlns:xlink="http://www.w3.org/1999/xlink" x="0px" y="0px"
	 viewBox="0 0 203 102" style="enable-background:new 0 0 203 102;" xml:space="preserve">
<style type="text/css">
	.st0{fill:#2F2F2F;}
	.st1{fill:#D11E4D;}
</style>
<g>
	<g>
		<path class="st0" d="M35.2,44.1c-3.7,0-7,1.4-9.4,3.8c-2.2,2.2-3.6,5.2-3.8,8.4c-0.1,0.2-0.1,0.5-0.1,0.9c0,2.4-1,4.5-2.5,6.1
			c-1.5,1.5-3.7,2.5-6,2.5c-2.4,0-4.5-1-6-2.5s-2.5-3.7-2.5-6.1c0-2.4,1-4.5,2.5-6s3.7-2.5,6-2.5c1.3,0,2.4-1.1,2.4-2.4
			c0-1.3-1.1-2.3-2.4-2.3c-3.7,0-7,1.4-9.4,3.8c-2.6,2.4-4,5.7-4,9.5s1.4,7,3.8,9.4s5.7,3.8,9.4,3.8s7-1.4,9.4-3.8
			c0.5-0.5,1.1-1.2,1.5-1.9c0.4,0.8,1.1,1.4,1.6,2.1c2.4,2.4,5.7,3.8,9.4,3.8c3.3,0,6.3-1.2,8.7-3.2v0.8c0,1.3,1.1,2.4,2.3,2.4
			c1.3,0,2.4-1.1,2.4-2.4v-11c0-0.1,0-0.2,0-0.2c-0.1-3.6-1.5-6.8-3.8-9.2C42.2,45.5,38.8,44.1,35.2,44.1z M43.8,57.4v0.3
			c0,0.1,0,0.2,0,0.4c0,0.7-0.2,1.3-0.3,1.9c-0.2,0.5-0.4,1.1-0.8,1.6c-1.4,2.6-4.3,4.4-7.5,4.4c-2.4,0-4.5-1-6-2.5
			c-1.6-1.5-2.5-3.7-2.5-6c0-2.4,0.9-4.5,2.5-6c1.5-1.5,3.7-2.5,6-2.5c2.4,0,4.5,1,6,2.5C42.8,53,43.8,55.1,43.8,57.4
			C43.8,57.3,43.8,57.3,43.8,57.4z"/>
		<path class="st0" d="M119.1,44c-1.3,0-2.3,1.1-2.3,2.3v21.9c0,1.3,1.1,2.4,2.3,2.4c1.3,0,2.4-1.1,2.4-2.4V46.3
			C121.5,45.1,120.4,44,119.1,44z"/>
		<path class="st0" d="M64.3,65.8c-2.4,0-4.5-1-6-2.5c-1.1-1.1-2-2.6-2.3-4.3c-0.1-0.8-0.2-1.1-0.2-1.4v-9h3.6
			c1.3,0,2.3-1.1,2.3-2.3c0-1.3-1-2.4-2.3-2.4h-3.6v-6c0-1.3-1.1-2.4-2.4-2.4c-1.3,0-2.3,1.1-2.3,2.4v16.8v2v0.5
			c0,3.7,1.4,7,3.8,9.4c2.4,2.4,5.7,3.8,9.4,3.8c1.3,0,2.3-1.1,2.3-2.3C66.6,66.9,65.6,65.8,64.3,65.8z"/>
		<path class="st0" d="M137.3,44c-0.1,0-0.2,0-0.2,0c-0.1,0-0.1,0-0.2,0c-2.9,0.1-5.4,1.2-7.2,3.1c-1.9,1.9-3.1,4.6-3.1,7.5
			c0,0.1,0,0.2,0,0.2V57c0,0,0,0.1,0,0.2v11.1c0,1.3,1.1,2.3,2.4,2.3s2.3-1.1,2.3-2.3v-11c0-0.1,0-0.2,0-0.2v-2.3c0-0.1,0-0.1,0-0.2
			c0-1.6,0.7-3.1,1.8-4.2c1-1.1,2.4-1.6,4-1.8c0.1,0,0.1,0,0.2,0c0.1,0,0.1,0,0.2,0c1.5,0,3,0.7,4.1,1.8c1,1,1.6,2.4,1.8,4
			c0,0,0,0.1,0,0.2v13.7c0,1.3,1.1,2.3,2.4,2.3s2.3-1.1,2.3-2.3V54.5c0-0.1,0-0.2,0-0.2c0-2.9-1.2-5.4-3.1-7.2
			C142.7,45.2,140.1,44.1,137.3,44z"/>
		<path class="st0" d="M110.4,44.1c-3.3,0-6.3,1.2-8.7,3.2v-0.9c0-1.3-1.1-2.3-2.4-2.3S97,45.2,97,46.4c0,7.4,0,14.7,0,21.9
			c0,1.3,1.1,2.3,2.3,2.3c1.3,0,2.4-1.1,2.4-2.3v-11V57c0.1-2.2,1.1-4.3,2.5-5.7c1.5-1.5,3.7-2.5,6-2.5c1.3,0,2.3-1.1,2.3-2.4
			C112.8,45.2,111.7,44.1,110.4,44.1z"/>
		<path class="st0" d="M198.6,56.8c-3.7-2.6-8.3-1-11.6-3.3c-0.9-0.5-1.4-1.3-1.4-2.1s0.5-1.4,1.4-2c2.4-1.6,6.6-1.6,9,0
			c0.9,0.5,1.4,1.3,1.4,2c0,1.3,1.1,2.4,2.3,2.4c1.3,0,2.4-1.1,2.4-2.4c0-2.4-1.3-4.5-3.4-5.9c-4.1-2.7-10.3-2.7-14.3,0
			c-2.1,1.4-3.4,3.5-3.4,5.9s1.3,4.5,3.4,5.9c3.7,2.6,8.2,1,11.6,3.3c0.9,0.5,1.4,1.3,1.4,2l0,0c0,0.8-0.5,1.4-1.4,2
			c-2.4,1.6-6.6,1.6-9,0c-0.9-0.5-1.3-1.3-1.3-2.1c0-1.3-1.1-2.3-2.4-2.3s-2.3,1.1-2.3,2.3c0,2.4,1.3,4.5,3.4,5.9
			c4.1,2.7,10.3,2.7,14.3,0c2.1-1.4,3.4-3.5,3.4-5.9l0,0C202,60.3,200.7,58.3,198.6,56.8z"/>
		<path class="st0" d="M79.8,44c-3.7,0-7,1.4-9.4,3.8c-2.4,2.4-3.8,5.7-3.8,9.4s1.4,7,3.8,9.4s5.7,3.8,9.4,3.8
			c3.3,0,6.3-1.2,8.7-3.2V68c0,1.3,1.1,2.4,2.3,2.4c1.3,0,2.4-1.1,2.4-2.4V57c0-0.1,0-0.2,0-0.2c-0.1-3.6-1.5-6.8-3.8-9.2
			C86.8,45.5,83.4,44,79.8,44z M88.3,57.3v0.3c0,0.1,0,0.2,0,0.4c0,0.7-0.2,1.3-0.3,1.9c-0.2,0.5-0.4,1.1-0.8,1.6
			c-1.4,2.5-4.3,4.4-7.5,4.4c-2.4,0-4.5-1-6-2.5c-1.6-1.5-2.5-3.7-2.5-6c0-2.4,0.9-4.5,2.5-6c1.5-1.5,3.7-2.5,6-2.5
			c2.4,0,4.5,1,6,2.5S88.3,55,88.3,57.3C88.3,57.2,88.3,57.3,88.3,57.3z"/>
		<path class="st0" d="M163.7,44.1c-3.7,0-7,1.4-9.4,3.8c-2.4,2.4-3.8,5.7-3.8,9.4s1.4,7,3.8,9.4s5.7,3.8,9.4,3.8
			c3.3,0,6.3-1.2,8.7-3.2v0.8c0,1.3,1.1,2.4,2.3,2.4c1.3,0,2.4-1.1,2.4-2.4v-11c0-0.1,0-0.2,0-0.2c-0.1-3.6-1.5-6.8-3.8-9.2
			C170.8,45.6,167.5,44.1,163.7,44.1z M172.4,57.5v0.3c0,0.1,0,0.2,0,0.4c0,0.7-0.2,1.3-0.3,1.9c-0.2,0.5-0.4,1.1-0.8,1.6
			c-1.4,2.6-4.3,4.4-7.5,4.4c-2.4,0-4.5-1-6-2.5c-1.6-1.5-2.5-3.7-2.5-6c0-2.4,0.9-4.5,2.5-6c1.5-1.5,3.7-2.5,6-2.5
			c2.4,0,4.5,1,6,2.5S172.4,55.2,172.4,57.5C172.4,57.3,172.4,57.4,172.4,57.5z"/>
	</g>
	<path class="st1" d="M119.1,36.2c-1.3,0-2.3,1.1-2.3,2.3c0,1.3,1.1,2.4,2.3,2.4c1.3,0,2.4-1.1,2.4-2.4
		C121.5,37.3,120.4,36.2,119.1,36.2L119.1,36.2z"/>
</g>
</svg>
