<?xml version="1.0" encoding="utf-8"?>
<!-- Generator: Adobe Illustrator 16.0.0, SVG Export Plug-In . SVG Version: 6.00 Build 0)  -->
<!DOCTYPE svg PUBLIC "-//W3C//DTD SVG 1.1//EN" "http://www.w3.org/Graphics/SVG/1.1/DTD/svg11.dtd">
<svg version="1.1" id="Layer_1" xmlns="http://www.w3.org/2000/svg" xmlns:xlink="http://www.w3.org/1999/xlink" x="0px" y="0px"
	 width="680.039px" height="167.795px" viewBox="0 0 680.039 167.795" enable-background="new 0 0 680.039 167.795"
	 xml:space="preserve">
<g>
	<path fill="#2F2F2F" d="M135.943,59.281c-11.362,0-21.671,4.566-29.112,12.01c-6.737,6.736-11.104,15.832-11.872,25.919
		c-0.316,0.819-0.497,1.707-0.497,2.641c0,7.312-3.005,13.971-7.837,18.803c-4.825,4.824-11.484,7.826-18.792,7.826
		c-7.315,0-13.974-3.002-18.799-7.826c-4.832-4.832-7.837-11.491-7.837-18.803c0-7.306,3.005-13.964,7.837-18.796
		c4.825-4.832,11.483-7.83,18.799-7.83c4.042,0,7.308-3.267,7.308-7.313c0-3.918-3.266-7.176-7.308-7.176
		c-11.364,0-21.67,4.563-29.111,12.006c-7.443,7.441-12.014,17.754-12.014,29.108c0,11.36,4.57,21.673,12.014,29.113
		c7.441,7.439,17.747,12.008,29.111,12.008c11.351,0,21.663-4.568,29.105-12.008c1.757-1.756,3.346-3.677,4.76-5.729
		c1.503,2.259,3.222,4.361,5.133,6.271c7.441,7.443,17.75,12.016,29.112,12.016c10.18,0,19.448-3.66,26.628-9.791v2.477
		c0,4.051,3.267,7.314,7.176,7.314c4.049,0,7.313-3.264,7.313-7.314v-33.81c0-0.264,0-0.522,0-0.652
		c-0.261-11.096-4.831-21.147-12.012-28.455C157.614,63.848,147.294,59.281,135.943,59.281z M162.571,100.398v0.913
		c0,0.393-0.133,0.786-0.133,1.306c-0.127,1.961-0.521,3.918-1.045,5.741c-0.648,1.831-1.432,3.528-2.348,5.225
		c-4.57,7.961-13.185,13.445-23.103,13.445c-7.315,0-13.967-3.002-18.8-7.83c-4.959-4.829-7.829-11.488-7.829-18.8
		c0-7.307,2.87-13.963,7.829-18.795c4.833-4.833,11.484-7.834,18.8-7.834c7.308,0,13.967,3.001,18.792,7.834
		c4.705,4.697,7.703,11.095,7.836,18.272C162.571,100.006,162.571,100.135,162.571,100.398z"/>
	<path fill="#2F2F2F" d="M394.966,59.13c-3.916,0-7.182,3.261-7.182,7.179v67.749c0,4.047,3.266,7.311,7.182,7.311
		c4.049,0,7.309-3.264,7.309-7.311V66.309C402.274,62.391,399.015,59.13,394.966,59.13z"/>
	<path fill="#2F2F2F" d="M225.864,126.653c-7.314,0-13.969-3.002-18.799-7.831c-3.527-3.527-6.004-7.965-7.182-13.055
		c-0.388-2.221-0.521-3.525-0.521-4.57V73.391h11.096c4.049,0,7.181-3.26,7.181-7.174c0-4.05-3.132-7.313-7.181-7.313h-11.096
		V40.108c0-4.049-3.266-7.311-7.309-7.311c-4.049,0-7.182,3.262-7.182,7.311v51.954v6.264v1.699
		c0,11.358,4.572,21.671,12.007,29.106c7.448,7.445,17.755,12.01,28.985,12.01c3.914,0,7.181-3.26,7.181-7.178
		C233.045,129.917,229.778,126.653,225.864,126.653z"/>
	<path fill="#2F2F2F" d="M451.244,59.058c-0.262,0-0.523,0-0.783,0c-0.262,0-0.389,0-0.648,0
		c-8.748,0.258-16.713,3.784-22.455,9.526c-5.878,5.877-9.532,14.101-9.532,23.109c0,0.258,0,0.519,0,0.649v7.05
		c0,0.131,0,0.389,0,0.652v34.071c0,3.916,3.26,7.176,7.311,7.176c3.917,0,7.181-3.26,7.181-7.176v-34.071c0-0.264,0-0.521,0-0.652
		v-7.05c0-0.261,0-0.392,0-0.649c0-4.96,2.088-9.533,5.348-12.796c3.139-3.263,7.57-5.221,12.279-5.354c0.256,0,0.381,0,0.518,0
		c0.26,0,0.389,0,0.521,0c4.83,0.134,9.135,2.092,12.4,5.354c3.133,3.132,5.094,7.441,5.354,12.267
		c-0.133,0.135-0.133,0.395-0.133,0.529v42.423c0,3.916,3.268,7.176,7.314,7.176c4.043,0,7.18-3.26,7.18-7.176V91.693
		c0-0.265,0-0.529,0-0.656c-0.133-8.746-3.787-16.711-9.529-22.453C467.82,62.842,459.99,59.315,451.244,59.058z"/>
	<path fill="#2F2F2F" d="M368.261,59.453c-10.182,0-19.451,3.654-26.623,9.787v-2.607c0-3.922-3.273-7.18-7.316-7.18
		c-3.914,0-7.18,3.258-7.18,7.18c0,22.581,0,45.299,0,67.876c0,3.922,3.266,7.182,7.18,7.182c4.043,0,7.316-3.26,7.316-7.182
		v-33.934v-1.179c0.26-6.92,3.258-13.053,7.83-17.621c4.824-4.832,11.482-7.836,18.793-7.836c4.049,0,7.18-3.26,7.18-7.307
		C375.44,62.711,372.31,59.453,368.261,59.453z"/>
	<path fill="#2F2F2F" d="M640.443,98.766c-11.611-7.961-25.588-3.132-36.025-10.311c-2.611-1.696-4.311-4.045-4.311-6.268
		c0-2.219,1.699-4.437,4.311-6.264c7.566-5.093,20.363-5.093,27.807,0c2.607,1.827,4.309,4.045,4.309,6.264
		c0,4.049,3.26,7.313,7.176,7.313c4.047,0,7.313-3.264,7.313-7.313c0-7.308-4.057-13.836-10.578-18.273
		c-12.402-8.483-31.717-8.483-44.119,0c-6.523,4.438-10.574,10.966-10.574,18.273c0,7.313,4.051,13.84,10.574,18.277
		c11.484,7.965,25.453,3.133,35.9,10.18c2.607,1.827,4.309,4.049,4.309,6.267v0.131c0,2.219-1.701,4.437-4.309,6.264
		c-7.443,5.094-20.24,5.094-27.807,0c-2.611-1.827-4.18-4.045-4.18-6.395c0-3.918-3.262-7.181-7.307-7.181
		c-4.049,0-7.182,3.263-7.182,7.181c0,7.443,4.051,13.836,10.574,18.279c12.402,8.479,31.717,8.479,44.119,0
		c6.521-4.443,10.578-10.836,10.578-18.148v-0.131C651.021,109.6,646.965,103.206,640.443,98.766z"/>
	<path fill="#2F2F2F" d="M273.583,59.13c-11.362,0-21.676,4.565-29.111,12.007c-7.441,7.441-12.014,17.756-12.014,29.112
		s4.572,21.666,12.014,29.109c7.436,7.441,17.749,12.01,29.111,12.01c10.18,0,19.449-3.658,26.629-9.791v2.48
		c0,4.047,3.26,7.311,7.176,7.311c4.049,0,7.313-3.264,7.313-7.311v-33.809c0-0.261,0-0.522,0-0.656
		c-0.266-11.095-4.83-21.144-12.011-28.456C295.254,63.695,284.941,59.13,273.583,59.13z M300.212,100.249v0.914
		c0,0.391-0.133,0.782-0.133,1.302c-0.127,1.96-0.521,3.918-1.045,5.741c-0.648,1.831-1.438,3.527-2.348,5.228
		c-4.57,7.96-13.184,13.444-23.104,13.444c-7.314,0-13.973-3.004-18.799-7.833c-4.965-4.829-7.836-11.488-7.836-18.796
		c0-7.309,2.871-13.967,7.836-18.8c4.826-4.825,11.484-7.833,18.799-7.833c7.309,0,13.968,3.008,18.793,7.833
		c4.699,4.699,7.703,11.096,7.836,18.277C300.212,99.854,300.212,99.988,300.212,100.249z"/>
	<path fill="#2F2F2F" d="M532.838,59.522c-11.365,0-21.672,4.568-29.113,12.009c-7.441,7.443-12.006,17.756-12.006,29.109
		c0,11.36,4.564,21.667,12.006,29.112c7.441,7.436,17.748,12.01,29.113,12.01c10.178,0,19.447-3.656,26.627-9.791v2.479
		c0,4.047,3.262,7.313,7.176,7.313c4.049,0,7.314-3.266,7.314-7.313v-33.81c0-0.258,0-0.518,0-0.652
		c-0.26-11.096-4.832-21.147-12.014-28.457C554.508,64.091,544.193,59.522,532.838,59.522z M559.465,100.641v0.914
		c0,0.395-0.133,0.783-0.133,1.305c-0.127,1.961-0.521,3.919-1.045,5.742c-0.648,1.832-1.432,3.527-2.35,5.224
		c-4.57,7.963-13.174,13.445-23.1,13.445c-7.316,0-13.969-3.002-18.799-7.83c-4.959-4.83-7.838-11.488-7.838-18.8
		c0-7.311,2.879-13.967,7.838-18.796c4.83-4.831,11.482-7.837,18.799-7.837c7.305,0,13.965,3.006,18.797,7.837
		c4.697,4.698,7.697,11.097,7.83,18.278C559.465,100.249,559.465,100.383,559.465,100.641z"/>
</g>
<path fill-rule="evenodd" clip-rule="evenodd" fill="#D11E4D" d="M394.966,35.198c-3.916,0-7.182,3.258-7.182,7.177
	c0,4.046,3.266,7.309,7.182,7.309c4.049,0,7.309-3.263,7.309-7.309C402.274,38.456,399.015,35.198,394.966,35.198L394.966,35.198z"
	/>
</svg>
