<?xml version="1.0" encoding="utf-8"?>
<!-- Generator: Adobe Illustrator 21.0.0, SVG Export Plug-In . SVG Version: 6.00 Build 0)  -->
<svg version="1.1" id="Layer_1" xmlns="http://www.w3.org/2000/svg" xmlns:xlink="http://www.w3.org/1999/xlink" x="0px" y="0px"
	 viewBox="0 0 203 102" style="enable-background:new 0 0 203 102;" xml:space="preserve">
<style type="text/css">
	.st0{fill:#FFCD09;}
	.st1{fill:#F58220;}
	.st2{fill:none;}
</style>
<g>
	<g>
		<polygon class="st0" points="13.1,33.3 13.1,43.8 13.1,59.6 13.1,70.1 23.6,70.1 47.5,70.1 47.5,59.8 23.4,59.8 23.4,43.7 
			47.5,43.7 47.5,33.3 23.6,33.3 		"/>
		<polygon class="st1" points="13.1,23 3,33.3 3,70.1 13.1,80.4 47.5,80.4 47.5,70.5 47.5,70.1 23.6,70.1 13.1,70.1 13.1,59.6 
			13.1,43.8 13.1,33.3 23.6,33.3 47.5,33.3 47.5,33 47.5,23 		"/>
	</g>
	<g>
		<g>
			<path class="st2" d="M125.5,42.1c-0.3-0.4-0.6-0.8-1-1c-0.4-0.3-1-0.4-1.6-0.4c-2.2,0-3.4,1.6-3.4,4.8c0,0.6,0.1,1.2,0.2,1.8
				s0.3,1.1,0.6,1.5c0.3,0.4,0.6,0.8,1,1c0.4,0.3,1,0.4,1.6,0.4c2.3,0,3.4-1.6,3.4-4.8c0-0.6-0.1-1.3-0.2-1.8
				C125.9,43,125.7,42.5,125.5,42.1z"/>
			<path class="st2" d="M111.7,40.8c-1.1,0-2,0.4-2.7,1.1c-0.6,0.8-1,2-1,3.6c0,0.7,0.1,1.3,0.2,1.9c0.1,0.6,0.3,1.1,0.5,1.5
				s0.6,0.7,1,1c0.4,0.2,0.9,0.4,1.5,0.4c0.8,0,1.5-0.2,2-0.7s0.8-1.1,1-2v-6.2c-0.3-0.2-0.6-0.4-1-0.5
				C112.8,40.8,112.3,40.8,111.7,40.8z"/>
			<path class="st2" d="M151.2,40.6c-2.6,0-3.7,2.4-3.7,4.6c0,2.6,1.5,4.6,3.6,4.6s3.6-2,3.6-4.7C154.8,43.1,153.8,40.6,151.2,40.6z
				"/>
			<path class="st2" d="M74.7,44.9c-0.7,0-1.5,0-2.3,0.1s-1.3,0.3-1.6,0.7c-0.3,0.4-0.5,0.9-0.5,1.3c0,0.6,0.2,1.1,0.6,1.4
				c0.4,0.4,0.9,0.6,1.6,0.6c0.5,0,0.9-0.1,1.4-0.2c0.5-0.1,0.9-0.3,1.1-0.5c0.3-0.2,0.5-0.4,0.7-0.6c0.2-0.2,0.3-0.5,0.4-0.7v-2.1
				c-0.2,0-0.5,0-0.7,0S75,44.9,74.7,44.9z"/>
			<path class="st2" d="M95.6,44.9c-0.7,0-1.5,0-2.3,0.1s-1.3,0.3-1.6,0.7c-0.3,0.4-0.5,0.9-0.5,1.3c0,0.6,0.2,1.1,0.6,1.4
				c0.4,0.4,0.9,0.6,1.6,0.6c0.5,0,0.9-0.1,1.4-0.2c0.5-0.1,0.9-0.3,1.1-0.5c0.3-0.2,0.5-0.4,0.7-0.6c0.2-0.2,0.3-0.5,0.4-0.7v-2.1
				c-0.2,0-0.5,0-0.7,0C96,44.9,95.8,44.9,95.6,44.9z"/>
			<path class="st2" d="M163.6,40.7c-2.3,0-3.6,2-3.6,4.6c0,2.4,1.2,4.4,3.5,4.4c1.5,0,2.8-1,3.2-2.6c0.1-0.3,0.1-0.6,0.1-0.9v-2.1
				c0-0.3,0-0.6-0.1-0.9C166.5,41.8,165.3,40.7,163.6,40.7z"/>
			<path class="st2" d="M193.9,40.6c-2.6,0-3.7,2.4-3.7,4.6c0,2.6,1.5,4.6,3.6,4.6s3.6-2,3.6-4.7C197.5,43.1,196.5,40.6,193.9,40.6z
				"/>
			<path class="st2" d="M181.2,40.6c-2.1,0-3.6,1.8-3.6,4.5c0,2.4,1.2,4.3,3.5,4.3c1.4,0,2.6-0.8,3-2.2c0.1-0.4,0.2-0.8,0.2-1.2
				v-2.2c0-0.4,0-0.7-0.1-1C183.9,41.7,182.9,40.6,181.2,40.6z"/>
			<path d="M65.7,49.9c-0.6,0.1-1.2,0.2-1.9,0.2c-0.8,0-1.6-0.1-2.3-0.4c-0.7-0.3-1.3-0.7-1.8-1.3s-0.9-1.3-1.2-2.2
				c-0.4-1-0.5-2-0.5-3.2c0-1.3,0.2-2.4,0.5-3.4c0.3-0.9,0.7-1.6,1.3-2.2c0.5-0.6,1.1-1,1.8-1.2s1.3-0.4,2-0.4
				c1.5,0,2.6,0.2,3.4,0.6l1.1-1.6c-0.8-0.3-1.6-0.5-2.2-0.6C65.1,34,64.3,34,63.3,34c-0.9,0-1.8,0.2-2.7,0.5s-1.7,0.9-2.4,1.6
				c-0.7,0.7-1.3,1.6-1.7,2.8C56,40,55.8,41.4,55.8,43s0.2,2.9,0.6,4c0.4,1.1,0.9,2.1,1.6,2.8c0.7,0.7,1.5,1.3,2.4,1.6
				c0.9,0.4,1.9,0.5,2.9,0.5c0.9,0,1.7-0.1,2.4-0.2c0.8-0.1,1.6-0.6,2.5-1.2l-1.1-1.2C66.8,49.6,66.3,49.7,65.7,49.9z"/>
			<path d="M143,49.4c-0.6,0.1-1.2,0.2-1.9,0.2c-0.8,0-1.6-0.1-2.3-0.4c-0.7-0.3-1.3-0.7-1.8-1.3s-0.9-1.3-1.2-2.2s-0.4-1.9-0.4-3.1
				c0-1.3,0.2-2.4,0.5-3.4c0.3-0.9,0.7-1.6,1.3-2.2c0.5-0.6,1.1-1,1.8-1.2s1.3-0.4,2-0.4c1.5,0,2.6,0.2,3.4,0.6l1.1-1.6
				c-0.8-0.3-1.6-0.5-2.2-0.6c-0.6-0.1-1.4-0.2-2.4-0.2c-0.9,0-1.8,0.2-2.7,0.5s-1.7,0.9-2.4,1.6c-0.7,0.7-1.3,1.6-1.7,2.8
				c-0.4,1.1-0.7,2.5-0.7,4.1s0.2,2.9,0.6,4c0.4,1.1,0.9,2.1,1.6,2.8c0.7,0.7,1.5,1.3,2.4,1.6s1.9,0.5,2.9,0.5
				c0.9,0,1.7-0.1,2.4-0.2c0.8-0.1,1.6-0.6,2.5-1.2l-1.1-1.2C144,49.1,143.6,49.3,143,49.4z"/>
			<path d="M78.4,50.2c-0.2-0.6-0.3-1.2-0.3-1.8c0-0.8,0-1.7,0.1-2.7c0.1-0.9,0.1-1.9,0.1-2.9c0-0.4,0-0.9-0.1-1.3
				c-0.1-0.4-0.3-0.9-0.5-1.2c-0.3-0.4-0.7-0.7-1.2-0.9s-1.2-0.3-2.1-0.3s-1.8,0.1-2.6,0.3c-0.8,0.2-1.6,0.5-2.2,0.8l0.6,1.5
				c0.2-0.1,0.5-0.3,0.8-0.4s0.6-0.2,1-0.3c0.3-0.1,0.7-0.1,1-0.2c0.3,0,0.6-0.1,0.9-0.1c1,0,1.6,0.2,2,0.5c0.4,0.4,0.5,1,0.5,1.9
				c0,0.4,0,0.8-0.1,1.3c-0.2,0-0.5,0-0.7,0s-0.5,0-0.7,0c-1.1,0-2.2,0.1-3.3,0.2c-1,0.1-1.8,0.6-2.4,1.4c-0.6,0.8-0.8,1.5-0.8,2.3
				c0,0.5,0.1,1,0.3,1.5c0.2,0.4,0.5,0.8,0.8,1.1s0.7,0.5,1.2,0.7s0.9,0.2,1.5,0.2c0.5,0,1.1-0.1,1.6-0.2c0.5-0.1,1-0.3,1.3-0.4
				c0.3-0.2,0.6-0.4,0.8-0.6c0.2-0.2,0.4-0.5,0.6-0.7h0.1c0.3,1.2,0.8,1.7,1.3,1.7h1.8C78.9,51.3,78.6,50.8,78.4,50.2z M76.2,48.2
				c-0.1,0.2-0.2,0.4-0.4,0.7c-0.2,0.2-0.4,0.4-0.7,0.6c-0.3,0.2-0.6,0.3-1.1,0.5c-0.5,0.1-1,0.2-1.4,0.2c-0.6,0-1.2-0.2-1.6-0.6
				c-0.4-0.4-0.6-0.8-0.6-1.4c0-0.4,0.2-0.8,0.5-1.3c0.3-0.4,0.9-0.7,1.6-0.7c0.8-0.1,1.5-0.1,2.3-0.1c0.2,0,0.5,0,0.7,0
				s0.5,0,0.7,0V48.2z"/>
			<path d="M86.7,45.3c-0.4-0.3-0.9-0.5-1.4-0.7s-1-0.4-1.4-0.6c-0.4-0.2-0.8-0.4-1.1-0.6c-0.3-0.2-0.4-0.6-0.4-1
				c0-0.6,0.2-1,0.5-1.3c0.3-0.2,0.9-0.4,1.6-0.4c0.6,0,1.2,0.1,1.7,0.2c0.5,0.1,1,0.3,1.4,0.5l0.5-1.6c-0.4-0.2-1-0.4-1.6-0.6
				C85.9,39,85.1,39,84.3,39c-1.2,0-2.2,0.3-2.8,0.8c-0.7,0.6-1,1.4-1,2.6c0,0.7,0.1,1.3,0.4,1.7s0.7,0.8,1.1,1.1s0.9,0.5,1.4,0.7
				s1,0.4,1.4,0.5c0.4,0.2,0.8,0.4,1.1,0.7c0.3,0.3,0.4,0.7,0.4,1.2c0,0.7-0.2,1.2-0.7,1.5s-1.1,0.4-1.8,0.4c-0.6,0-1.2-0.1-1.9-0.3
				c-0.6-0.2-1.1-0.4-1.5-0.6L79.9,51c0.4,0.2,1,0.5,1.7,0.6c0.7,0.2,1.5,0.3,2.4,0.3c0.7,0,1.4-0.1,1.9-0.3s1-0.5,1.4-0.8
				s0.6-0.7,0.8-1.2c0.2-0.5,0.3-1,0.3-1.5c0-0.7-0.1-1.3-0.4-1.8C87.5,46,87.2,45.6,86.7,45.3z"/>
			<path d="M99.2,50.2c-0.2-0.6-0.3-1.2-0.3-1.8c0-0.8,0-1.7,0.1-2.7c0.1-0.9,0.1-1.9,0.1-2.9c0-0.4,0-0.9-0.1-1.3
				c-0.1-0.4-0.3-0.9-0.5-1.2c-0.3-0.4-0.7-0.7-1.2-0.9s-1.2-0.3-2.1-0.3s-1.8,0.1-2.6,0.3c-0.8,0.2-1.6,0.5-2.2,0.8l0.6,1.5
				c0.2-0.1,0.5-0.3,0.8-0.4c0.3-0.1,0.6-0.2,1-0.3c0.3-0.1,0.7-0.1,1-0.2c0.3,0,0.6-0.1,0.9-0.1c1,0,1.6,0.2,2,0.5
				c0.4,0.4,0.5,1,0.5,1.9c0,0.4,0,0.8-0.1,1.3c-0.2,0-0.5,0-0.7,0s-0.5,0-0.7,0c-1.1,0-2.2,0.1-3.3,0.2c-1,0.1-1.8,0.6-2.4,1.4
				c-0.6,0.8-0.8,1.5-0.8,2.3c0,0.5,0.1,1,0.3,1.5c0.2,0.4,0.5,0.8,0.8,1.1s0.7,0.5,1.2,0.7s0.9,0.2,1.5,0.2s1.1-0.1,1.6-0.2
				c0.5-0.1,1-0.3,1.3-0.4c0.3-0.2,0.6-0.4,0.8-0.6c0.2-0.2,0.4-0.5,0.6-0.7h0.1c0.3,1.2,0.8,1.7,1.3,1.7h1.8
				C99.8,51.3,99.4,50.8,99.2,50.2z M97,48.2c-0.1,0.2-0.2,0.4-0.4,0.7c-0.2,0.2-0.4,0.4-0.7,0.6c-0.3,0.2-0.6,0.3-1.1,0.5
				c-0.5,0.1-1,0.2-1.4,0.2c-0.6,0-1.2-0.2-1.6-0.6c-0.4-0.4-0.6-0.8-0.6-1.4c0-0.4,0.2-0.8,0.5-1.3c0.3-0.4,0.9-0.7,1.6-0.7
				c0.8-0.1,1.5-0.1,2.3-0.1c0.2,0,0.5,0,0.7,0s0.5,0,0.7,0V48.2L97,48.2L97,48.2z"/>
			<path d="M116.2,47.4V34.3h-2v5.2c-0.4-0.1-0.8-0.3-1.2-0.3c-0.4-0.1-0.8-0.1-1.5-0.1c-1.8,0-3.1,0.6-4.1,1.7
				c-1,1.1-1.5,2.7-1.5,4.8c0,2.2,0.4,3.8,1.2,4.9c0.8,1,2,1.6,3.7,1.6c0.8,0,1.6-0.2,2.2-0.6c0.6-0.4,1.1-0.9,1.4-1.4h0.1l0.5,1.8
				h1.3c-0.1-0.7-0.2-1.3-0.2-2C116.2,49,116.2,48.2,116.2,47.4z M114.2,47.6c-0.2,0.9-0.5,1.6-1,2s-1.2,0.7-2,0.7
				c-0.6,0-1.1-0.1-1.5-0.4c-0.4-0.2-0.7-0.6-1-1c-0.2-0.4-0.4-0.9-0.5-1.5s-0.2-1.2-0.2-1.9c0-1.7,0.3-2.9,1-3.6
				c0.6-0.8,1.5-1.1,2.7-1.1c0.6,0,1.1,0.1,1.5,0.1c0.4,0.1,0.7,0.3,1,0.5V47.6L114.2,47.6L114.2,47.6z"/>
			<path d="M127,40.7c-0.4-0.6-1-1-1.7-1.3s-1.5-0.5-2.4-0.5c-1.8,0-3.1,0.6-4,1.7c-0.9,1.1-1.4,2.7-1.4,4.8c0,1,0.1,1.9,0.3,2.7
				c0.2,0.8,0.5,1.5,1,2.1c0.4,0.6,1,1,1.7,1.3s1.5,0.5,2.4,0.5c1.8,0,3.1-0.6,4-1.7c0.9-1.1,1.4-2.7,1.4-4.8c0-1-0.1-1.9-0.3-2.7
				S127.4,41.3,127,40.7z M122.9,50.2c-0.6,0-1.1-0.1-1.6-0.4c-0.4-0.3-0.8-0.6-1-1c-0.3-0.4-0.5-0.9-0.6-1.5s-0.2-1.2-0.2-1.8
				c0-3.2,1.1-4.8,3.4-4.8c0.6,0,1.1,0.1,1.6,0.4c0.4,0.3,0.8,0.6,1,1c0.3,0.4,0.5,0.9,0.6,1.5s0.2,1.2,0.2,1.8
				C126.2,48.6,125.1,50.2,122.9,50.2z"/>
			<polygon points="154.4,34 152,34 149.9,37.5 151.4,37.5 			"/>
			<path d="M151.3,38.9c-3.3,0-6,2.4-6,6.4c0,3.8,2.5,6.2,5.8,6.2c2.9,0,6-1.9,6-6.4C157.1,41.4,154.7,38.9,151.3,38.9z M151.2,49.8
				c-2.1,0-3.6-2-3.6-4.6c0-2.3,1.1-4.6,3.7-4.6c2.6,0,3.6,2.6,3.6,4.6C154.8,47.9,153.3,49.8,151.2,49.8z"/>
			<path d="M169,33.6h-2.2v7.2l0,0c-0.5-0.9-1.8-1.8-3.6-1.8c-2.9,0-5.4,2.4-5.4,6.4c0,3.6,2.3,6.1,5.2,6.1c2,0,3.4-1,4-2.4h0.1
				l0.1,2.1h1.9c0-0.8-0.1-2-0.1-3.1V33.6z M166.9,46.2c0,0.3,0,0.6-0.1,0.9c-0.4,1.6-1.7,2.6-3.2,2.6c-2.3,0-3.5-2-3.5-4.4
				c0-2.6,1.3-4.6,3.6-4.6c1.6,0,2.8,1.1,3.2,2.5c0.1,0.3,0.1,0.6,0.1,0.9v2.1H166.9z"/>
			<path d="M184.7,41L184.7,41c-0.6-1-1.7-2.1-3.8-2.1c-2.8,0-5.4,2.3-5.4,6.4c0,3.3,2.1,5.9,5.1,5.9c1.9,0,3.2-0.9,3.8-2l0,0v1.3
				c0,3.1-1.6,4.2-3.9,4.2c-1.5,0-2.7-0.4-3.5-1l-0.5,1.7c1,0.6,2.6,1,4,1c1.5,0,3.2-0.4,4.4-1.4c1.1-1.1,1.7-2.7,1.7-5.5v-7
				c0-1.4,0-2.4,0.1-3.3h-1.9L184.7,41z M184.4,46.1c0,0.4-0.1,0.8-0.2,1.2c-0.4,1.4-1.7,2.2-3,2.2c-2.3,0-3.5-2-3.5-4.3
				c0-2.8,1.5-4.5,3.6-4.5c1.6,0,2.7,1,3.1,2.3c0.1,0.3,0.1,0.6,0.1,1v2.1H184.4z"/>
			<path d="M193.9,38.9c-3.3,0-6,2.4-6,6.4c0,3.8,2.5,6.2,5.8,6.2c2.9,0,6-1.9,6-6.4C199.7,41.4,197.4,38.9,193.9,38.9z M193.8,49.8
				c-2.1,0-3.6-2-3.6-4.6c0-2.3,1.1-4.6,3.7-4.6c2.6,0,3.6,2.6,3.6,4.6C197.5,47.9,195.9,49.8,193.8,49.8z"/>
			<path d="M172.3,34.4c-0.8,0-1.4,0.6-1.4,1.4c0,0.7,0.5,1.3,1.3,1.3c0.9,0,1.4-0.6,1.4-1.3C173.6,35,173.1,34.4,172.3,34.4z"/>
			<rect x="171.2" y="39.2" width="2.2" height="12"/>
		</g>
		<g>
			<path d="M56.9,58.8H58v7.5h3.6v0.9h-4.7C56.9,67.2,56.9,58.8,56.9,58.8z"/>
			<path d="M66.5,59.5c0,0.4-0.3,0.7-0.7,0.7c-0.4,0-0.7-0.3-0.7-0.7s0.3-0.7,0.7-0.7C66.3,58.8,66.5,59.1,66.5,59.5z M65.3,67.2v-6
				h1.1v6H65.3z"/>
			<path d="M71.2,61.2l1.2,3.4c0.2,0.6,0.4,1.1,0.5,1.6l0,0c0.1-0.5,0.3-1,0.5-1.6l1.2-3.4h1.2l-2.4,6h-1.1l-2.3-6
				C70,61.2,71.2,61.2,71.2,61.2z"/>
			<path d="M79.3,63.1c0-0.7,0-1.3-0.1-1.9h1l0.1,1.2l0,0c0.3-0.8,1-1.3,1.7-1.3c0.1,0,0.2,0,0.3,0v1c-0.1,0-0.2,0-0.4,0
				c-0.8,0-1.3,0.6-1.5,1.4c0,0.2,0,0.3,0,0.5v3.2h-1.1V63.1L79.3,63.1z"/>
			<path d="M91.2,64.2c0,2.2-1.6,3.2-3,3.2c-1.6,0-2.9-1.2-2.9-3.1c0-2,1.3-3.2,3-3.2C90,61.1,91.2,62.3,91.2,64.2z M86.4,64.2
				c0,1.3,0.8,2.3,1.8,2.3c1.1,0,1.8-1,1.8-2.3c0-1-0.5-2.3-1.8-2.3C87,61.9,86.4,63.1,86.4,64.2z"/>
			<path d="M94.9,66.1c0.3,0.2,0.9,0.4,1.5,0.4c0.8,0,1.2-0.4,1.2-0.9s-0.3-0.8-1.1-1.1c-1.1-0.4-1.6-1-1.6-1.7c0-1,0.8-1.8,2.1-1.8
				c0.6,0,1.2,0.2,1.5,0.4l-0.3,0.8C98,62,97.5,61.8,97,61.8c-0.7,0-1,0.4-1,0.8c0,0.5,0.4,0.7,1.1,1c1,0.4,1.6,0.9,1.6,1.8
				c0,1.1-0.8,1.8-2.2,1.8c-0.7,0-1.3-0.2-1.7-0.4L94.9,66.1z"/>
			<path d="M108.3,64.4c0,1.5,1,2.1,2.1,2.1c0.8,0,1.3-0.1,1.7-0.3l0.2,0.8c-0.4,0.2-1.1,0.4-2,0.4c-1.9,0-3-1.2-3-3.1
				c0-1.8,1.1-3.2,2.8-3.2c2,0,2.5,1.7,2.5,2.8c0,0.2,0,0.4,0,0.5H108.3L108.3,64.4z M111.5,63.6c0-0.7-0.3-1.8-1.5-1.8
				c-1.1,0-1.6,1-1.7,1.8H111.5z"/>
			<path d="M122.7,59.7h-2.6v-0.9h6.2v0.9h-2.6v7.5h-1.1L122.7,59.7L122.7,59.7z"/>
			<path d="M129.5,64.4c0,1.5,1,2.1,2.1,2.1c0.8,0,1.3-0.1,1.7-0.3l0.2,0.8c-0.4,0.2-1.1,0.4-2,0.4c-1.9,0-3-1.2-3-3.1
				c0-1.8,1.1-3.2,2.8-3.2c2,0,2.5,1.7,2.5,2.8c0,0.2,0,0.4,0,0.5H129.5L129.5,64.4z M132.7,63.6c0-0.7-0.3-1.8-1.5-1.8
				c-1.1,0-1.6,1-1.7,1.8H132.7z"/>
			<path d="M142,67c-0.3,0.1-0.9,0.4-1.7,0.4c-1.8,0-3-1.2-3-3.1s1.3-3.2,3.2-3.2c0.7,0,1.2,0.2,1.5,0.3l-0.3,0.8
				c-0.3-0.1-0.7-0.3-1.3-0.3c-1.4,0-2.1,1-2.1,2.3c0,1.4,0.9,2.3,2.1,2.3c0.6,0,1-0.2,1.4-0.3L142,67z"/>
			<path d="M145.8,62.8c0-0.6,0-1.1-0.1-1.6h1l0.1,1l0,0c0.3-0.6,1-1.1,2-1.1c0.8,0,2.1,0.5,2.1,2.6v3.6h-1.1v-3.5
				c0-1-0.4-1.8-1.4-1.8c-0.7,0-1.3,0.5-1.5,1.1c-0.1,0.1-0.1,0.3-0.1,0.5v3.6h-1.1L145.8,62.8L145.8,62.8z"/>
			<path d="M160.7,64.2c0,2.2-1.6,3.2-3,3.2c-1.6,0-2.9-1.2-2.9-3.1c0-2,1.3-3.2,3-3.2C159.5,61.1,160.7,62.3,160.7,64.2z
				 M155.9,64.2c0,1.3,0.8,2.3,1.8,2.3c1.1,0,1.8-1,1.8-2.3c0-1-0.5-2.3-1.8-2.3C156.5,61.9,155.9,63.1,155.9,64.2z"/>
			<path d="M164.6,58.4h1.1v8.9h-1.1V58.4z"/>
			<path d="M175.5,64.2c0,2.2-1.6,3.2-3,3.2c-1.6,0-2.9-1.2-2.9-3.1c0-2,1.3-3.2,3-3.2C174.3,61.1,175.5,62.3,175.5,64.2z
				 M170.7,64.2c0,1.3,0.8,2.3,1.8,2.3c1.1,0,1.8-1,1.8-2.3c0-1-0.5-2.3-1.8-2.3C171.3,61.9,170.7,63.1,170.7,64.2z"/>
			<path d="M184.6,66.3c0,1.4-0.3,2.2-0.9,2.8c-0.6,0.5-1.5,0.7-2.2,0.7s-1.5-0.2-2-0.5l0.3-0.9c0.4,0.3,1,0.5,1.8,0.5
				c1.1,0,1.9-0.6,1.9-2.1v-0.7l0,0c-0.3,0.6-1,1-1.9,1c-1.5,0-2.6-1.3-2.6-2.9c0-2,1.3-3.2,2.7-3.2c1.1,0,1.6,0.5,1.9,1l0,0v-0.9h1
				c0,0.4-0.1,0.9-0.1,1.6v3.6H184.6z M183.5,63.6c0-0.2,0-0.4-0.1-0.5c-0.2-0.7-0.7-1.2-1.5-1.2c-1.1,0-1.8,0.9-1.8,2.3
				c0,1.2,0.6,2.2,1.8,2.2c0.7,0,1.3-0.4,1.5-1.1c0.1-0.2,0.1-0.4,0.1-0.6V63.6L183.5,63.6z"/>
			<path d="M190,59.5c0,0.4-0.3,0.7-0.7,0.7s-0.7-0.3-0.7-0.7s0.3-0.7,0.7-0.7C189.8,58.8,190,59.1,190,59.5z M188.8,67.2v-6h1.1v6
				H188.8z"/>
			<path d="M198.5,65.8c0,0.5,0,1,0.1,1.5h-1l-0.1-0.8l0,0c-0.3,0.5-1,0.9-1.8,0.9c-1.2,0-1.8-0.9-1.8-1.7c0-1.5,1.3-2.3,3.6-2.2
				v-0.1c0-0.5-0.1-1.4-1.4-1.4c-0.6,0-1.2,0.2-1.6,0.5l-0.3-0.7c0.5-0.3,1.2-0.5,2-0.5c1.8,0,2.3,1.3,2.3,2.5V65.8L198.5,65.8z
				 M197.4,64.1c-1.2,0-2.6,0.2-2.6,1.4c0,0.7,0.5,1.1,1,1.1c0.8,0,1.3-0.5,1.5-1c0-0.1,0.1-0.3,0.1-0.4V64.1z"/>
		</g>
	</g>
</g>
</svg>
