<svg xmlns="http://www.w3.org/2000/svg" xmlns:xlink="http://www.w3.org/1999/xlink" preserveAspectRatio="xMidYMid" width="66.938" height="67.062" viewBox="0 0 66.938 67.062">
  <defs>
    <style>
      .cls-1 {
        fill: #d9a53b;
        opacity: 0.7;
        fill-rule: evenodd;
      }
    </style>
  </defs>
  <path d="M62.480,16.764 C53.231,0.725 32.740,-4.771 16.719,4.491 C0.696,13.750 -4.794,34.260 4.458,50.298 C13.708,66.337 34.196,71.834 50.218,62.573 C66.240,53.311 71.733,32.802 62.480,16.764 ZM46.868,56.763 C34.052,64.173 17.660,59.776 10.260,46.945 C2.859,34.114 7.252,17.705 20.069,10.299 C32.886,2.889 49.278,7.286 56.678,20.118 C64.078,32.949 59.686,49.355 46.868,56.763 ZM45.530,32.169 L27.987,21.927 C26.389,20.993 25.099,21.740 25.108,23.591 L25.198,43.919 C25.206,45.769 26.511,46.522 28.114,45.596 L45.524,35.535 C47.123,34.610 47.127,33.103 45.530,32.169 Z" class="cls-1"/>
</svg>
