<?xml version="1.0" encoding="utf-8"?>
<!-- Generator: Adobe Illustrator 20.1.0, SVG Export Plug-In . SVG Version: 6.00 Build 0)  -->
<svg version="1.1" id="Layer_1" xmlns="http://www.w3.org/2000/svg" xmlns:xlink="http://www.w3.org/1999/xlink" x="0px" y="0px"
	 viewBox="0 0 392.8 155.1" style="enable-background:new 0 0 392.8 155.1;" xml:space="preserve">
<style type="text/css">
	.st0{fill:#006DFF;}
</style>
<g>
	<path d="M47.9,80.9V35.7h3.2v45.2H47.9z"/>
	<path d="M66.9,80.9V35.7h15c3.6,0,6.7,0.6,9.4,1.8c2.7,1.2,4.9,2.8,6.7,4.8c1.8,2,3.1,4.4,4,7.2c0.9,2.7,1.3,5.7,1.3,8.8
		c0,3.4-0.5,6.5-1.5,9.3c-1,2.8-2.4,5.2-4.3,7.1c-1.9,2-4.1,3.5-6.8,4.6c-2.7,1.1-5.6,1.6-8.9,1.6H66.9z M100.1,58.3
		c0-2.8-0.4-5.5-1.2-7.9c-0.8-2.4-2-4.5-3.5-6.2c-1.6-1.7-3.4-3.1-5.7-4.1c-2.3-1-4.8-1.5-7.8-1.5H70.1V78h11.8c3,0,5.6-0.5,7.9-1.5
		c2.3-1,4.2-2.4,5.7-4.2c1.5-1.8,2.7-3.9,3.5-6.3C99.7,63.7,100.1,61.1,100.1,58.3z"/>
	<path d="M146.2,78v2.9h-30.1V35.7h29.5v2.9h-26.3v17.8h23v2.8h-23V78H146.2z"/>
	<path d="M232.8,38.7h-16.6v42.3H213V38.7h-16.6v-2.9h36.4V38.7z"/>
	<path d="M243.6,80.9V35.7h3.2v45.2H243.6z"/>
	<path d="M261,35.7l17.2,41.1l17.2-41.1h3.4l-19.1,45.2h-3l-19.2-45.2H261z"/>
	<path d="M326,81.3c-3.1,0-6-0.7-8.6-2c-2.6-1.3-4.8-3-6.7-5.2c-1.9-2.1-3.3-4.6-4.3-7.3c-1-2.8-1.5-5.6-1.5-8.5
		c0-3,0.5-5.9,1.6-8.7c1.1-2.8,2.6-5.2,4.5-7.3c1.9-2.1,4.1-3.8,6.7-5.1c2.6-1.3,5.4-1.9,8.4-1.9c3.1,0,6,0.7,8.6,2
		c2.6,1.3,4.8,3.1,6.7,5.3c1.8,2.2,3.3,4.6,4.3,7.4c1,2.7,1.5,5.5,1.5,8.3c0,3.1-0.5,6-1.6,8.7c-1.1,2.8-2.6,5.2-4.5,7.3
		c-1.9,2.1-4.1,3.8-6.7,5C331.8,80.6,329,81.3,326,81.3z M308.1,58.3c0,2.6,0.4,5.1,1.3,7.5c0.9,2.4,2.1,4.5,3.7,6.4
		c1.6,1.8,3.5,3.3,5.7,4.4c2.2,1.1,4.6,1.7,7.3,1.7c2.7,0,5.2-0.6,7.4-1.7c2.2-1.1,4.1-2.7,5.6-4.6c1.5-1.9,2.7-4,3.6-6.4
		c0.8-2.4,1.3-4.8,1.3-7.3c0-2.6-0.4-5.1-1.3-7.5c-0.9-2.4-2.1-4.5-3.7-6.4c-1.6-1.8-3.5-3.3-5.6-4.4c-2.2-1.1-4.5-1.7-7.1-1.7
		c-2.7,0-5.2,0.6-7.4,1.7c-2.2,1.1-4.1,2.7-5.7,4.6c-1.6,1.9-2.8,4-3.6,6.4C308.5,53.5,308.1,55.9,308.1,58.3z"/>
</g>
<polygon class="st0" points="197.4,77.9 178.5,34.6 175.7,34.6 159.2,71.6 162.7,71.6 177.1,39 194.2,77.6 156.4,77.6 156.4,80.5 
	175.3,131.6 178.1,131.6 194.6,89.6 191.2,89.6 176.7,127.4 159.6,80.6 197.4,80.6 "/>
</svg>
