<?xml version="1.0" encoding="utf-8"?>
<!-- Generator: Adobe Illustrator 21.0.0, SVG Export Plug-In . SVG Version: 6.00 Build 0)  -->
<svg version="1.1" id="Layer_1" xmlns="http://www.w3.org/2000/svg" xmlns:xlink="http://www.w3.org/1999/xlink" x="0px" y="0px"
	 viewBox="0 0 203 101.5" style="enable-background:new 0 0 203 101.5;" xml:space="preserve">
<style type="text/css">
	.st0{fill:#006DFF;}
</style>
<title>ideativo</title>
<path d="M22,70V43.5h1.9V70H22z"/>
<path d="M33.1,70V43.5h8.8c1.9,0,3.8,0.3,5.5,1c1.5,0.6,2.9,1.6,3.9,2.8c1.1,1.2,1.9,2.7,2.3,4.2c0.5,1.7,0.8,3.4,0.8,5.1
	c0,1.9-0.3,3.7-0.9,5.5c-0.5,1.6-1.4,3-2.5,4.2s-2.5,2.1-4,2.7c-1.7,0.7-3.4,1-5.2,1L33.1,70z M52.6,56.7c0-1.6-0.2-3.1-0.7-4.6
	c-0.4-1.3-1.1-2.6-2-3.6s-2.1-1.9-3.3-2.4c-1.4-0.6-3-0.9-4.6-0.9h-7v23.1h6.9c1.6,0,3.2-0.3,4.6-0.9c1.3-0.6,2.4-1.4,3.3-2.4
	c0.9-1.1,1.6-2.3,2-3.7C52.4,59.8,52.6,58.3,52.6,56.7z"/>
<path d="M79.6,68.3V70H62V43.5h17.3v1.7H63.9v10.4h13.5v1.6H63.9v11h15.7V68.3z"/>
<path d="M130.4,45.2h-9.7V70h-1.9V45.2h-9.7v-1.7h21.3V45.2z"/>
<path d="M136.8,70V43.5h1.9V70H136.8z"/>
<path d="M147,43.5l10,24.1l10.1-24.1h2L157.9,70h-1.8l-11.2-26.5H147z"/>
<path d="M185,70.2c-1.7,0-3.5-0.4-5-1.2c-1.5-0.8-2.8-1.8-3.9-3.1c-1.1-1.3-2-2.7-2.5-4.3c-0.6-1.6-0.9-3.3-0.9-5s0.3-3.5,1-5.1
	c0.6-1.6,1.5-3,2.6-4.3c1.1-1.2,2.4-2.2,3.9-3c1.5-0.7,3.2-1.1,4.9-1.1c1.8,0,3.5,0.4,5.1,1.2c1.5,0.8,2.8,1.8,3.9,3.1
	c1.1,1.3,1.9,2.7,2.5,4.3c1.8,4.9,0.8,10.4-2.7,14.3c-1.1,1.2-2.4,2.2-3.9,3C188.5,69.8,186.8,70.2,185,70.2z M174.6,56.8
	c0,1.5,0.3,3,0.8,4.4s1.2,2.6,2.1,3.7c0.9,1.1,2.1,2,3.3,2.6c1.3,0.7,2.8,1,4.3,1s3-0.3,4.3-1s2.4-1.6,3.3-2.7
	c2.8-3.5,3.6-8.2,2-12.4c-0.5-1.4-1.2-2.6-2.2-3.7c-0.9-1.1-2-2-3.3-2.6c-1.3-0.7-2.7-1-4.2-1s-3,0.3-4.3,1
	c-1.2,0.7-2.3,1.6-3.2,2.7c-0.9,1.1-1.6,2.4-2.1,3.8C174.8,53.9,174.6,55.3,174.6,56.8z"/>
<polygon class="st0" points="109.5,68.3 98.6,42.8 96.9,42.8 87.3,64.5 89.3,64.5 97.8,45.4 107.8,68 85.5,68 85.5,69.8 96.7,97.9 
	98.3,97.9 108,75 106,75 97.5,95.4 87.5,69.8 109.5,69.8 "/>
</svg>
