<?xml version="1.0" encoding="utf-8"?>
<!-- Generator: Adobe Illustrator 16.0.0, SVG Export Plug-In . SVG Version: 6.00 Build 0)  -->
<svg version="1.2" baseProfile="tiny" id="Camada_1"
	 xmlns="http://www.w3.org/2000/svg" xmlns:xlink="http://www.w3.org/1999/xlink" x="0px" y="0px" width="795.909px"
	 height="255.077px" viewBox="0 0 795.909 255.077" xml:space="preserve">
<g>
	<path fill="#FFFFFF" d="M78.925,127.516c-0.116,2.891-0.313,7.734,1.909,11.688c2.801,4.99,7.462,10.73,13.648,9.76
		c0.801-0.123,1.452-0.209,2.311-0.035c0.662,0.137,1.061,0.285,1.545,0.764c1.573,1.557,0.956,4.313-1.177,4.898
		c-0.573,0.16-1.155,0.285-1.743,0.377c-0.748,0.117-1.551,0.188-2.39,0.188c-5.109,0-11.665-2.602-17.491-12.977
		c-3.064-5.455-2.816-11.607-2.682-14.908c0.025-0.613,0.057-1.375,0.03-1.607c-0.201-1.711-0.946-3.395-1.737-5.178
		c-1.781-4.02-4.513-9.352-0.104-15.643c1.078-1.541,3.658,0.244,4.282,1.117c1.147,1.611,0.269,3.887-0.185,5.598
		c-0.127,0.498-0.207,0.93-0.15,1.117c0.117,1.701,0.821,3.344,1.71,5.35c0.894,2.021,1.905,4.305,2.217,6.93
		C79,125.635,78.97,126.422,78.925,127.516 M71.199,151.332c-4.305-7.668-3.936-16.75-3.717-22.176
		c0.074-1.84,0.129-3.172,0.006-4.209c-0.514-4.33-2.174-8.076-3.779-11.699c-3.01-6.793-5.389-12.158-0.625-20.26
		c2.314-3.936,5.056-6.752,8.291-8.537c0.849-0.469,1.468-1.254,1.615-2.207c0.004-0.027,0.008-0.051,0.012-0.074
		c0.377-2.451-2.225-4.305-4.405-3.119c-4.251,2.309-7.857,5.938-10.749,10.859c-6.344,10.789-2.809,18.764,0.309,25.799
		c1.49,3.359,2.896,6.531,3.3,9.953c0.067,0.559,0.013,1.861-0.042,3.248c-0.229,5.672-0.656,16.225,4.491,25.393
		c9.876,17.592,20.798,21.988,29.246,21.986c1.354,0,2.644-0.113,3.854-0.301c5.776-0.906,11.24-3.754,16.143-7.859
		c1.422-1.189,1.348-3.42-0.16-4.498c-0.107-0.08-0.217-0.156-0.324-0.232c-1.08-0.777-2.52-0.689-3.543,0.164
		c-4.035,3.367-8.449,5.703-13.054,6.426C88.231,171.52,78.919,165.074,71.199,151.332 M55.418,167.506
		c14.287,25.443,29.96,31.789,42.045,31.789c1.912,0,3.734-0.158,5.446-0.424c11.699-1.828,22.517-9.23,31.463-19.424
		c1.187-1.35,0.768-3.477-0.815-4.324c-0.138-0.076-0.275-0.15-0.412-0.225c-1.176-0.637-2.614-0.359-3.498,0.646
		c-8.02,9.125-17.555,15.74-27.674,17.322c-15.244,2.391-29.514-7.416-41.258-28.334c-6.574-11.705-6.02-25.408-5.689-33.594
		c0.111-2.654,0.188-4.574,0.02-5.994c-0.73-6.191-3.144-11.633-5.475-16.895c-4.443-10.023-8.281-18.68-0.855-31.313
		c5.133-8.727,11.625-13.938,19.854-15.938c1.871-0.453,3.798-0.729,5.762-0.848c1.297-0.072,2.345-1.055,2.561-2.34
		c0.02-0.123,0.039-0.246,0.061-0.369c0.302-1.811-1.157-3.445-2.984-3.342c-2.316,0.131-4.6,0.451-6.834,0.998
		c-9.771,2.371-17.729,8.686-23.654,18.762c-9.006,15.316-3.936,26.756,0.537,36.85c2.248,5.074,4.372,9.865,5,15.15
		c0.109,0.939,0.032,2.836-0.057,5.033C48.625,138.941,48.002,154.299,55.418,167.506 M43.076,183.045
		c19.478,34.689,40.743,43.33,57.104,43.33c2.571,0,5.023-0.213,7.325-0.574c19.343-3.021,36.932-17.248,50.34-35.938
		c1.081-1.506,0.393-3.613-1.335-4.275c-0.176-0.064-0.349-0.133-0.521-0.199c-1.202-0.463-2.539-0.055-3.295,0.992
		c-12.518,17.391-28.702,30.697-46.127,33.42c-21.589,3.375-41.707-10.367-58.197-39.73c-9.242-16.461-8.468-35.596-8.003-47.027
		c0.142-3.48,0.251-6.229,0.03-8.102c-0.991-8.383-4.289-15.814-7.476-23.008c-6.007-13.555-11.681-26.357-1.119-44.324
		c7.256-12.34,16.467-19.723,28.159-22.563c3.645-0.885,7.424-1.289,11.291-1.289c2.379,0,4.795,0.158,7.235,0.449
		c1.475,0.176,2.839-0.76,3.144-2.213c0.027-0.125,0.054-0.252,0.081-0.381c0.339-1.609-0.739-3.207-2.372-3.404
		c-7.135-0.867-14.137-0.688-20.813,0.938C45.34,32.35,34.588,40.889,26.569,54.529c-12.144,20.656-5.563,35.506,0.802,49.865
		c3.142,7.09,6.111,13.791,6.997,21.26c0.164,1.393,0.056,4.059-0.068,7.143C33.811,144.871,32.991,165.082,43.076,183.045
		 M182.035,193.594c-0.199-0.047-0.396-0.1-0.594-0.148c-1.192-0.297-2.422,0.203-3.069,1.248
		c-17.009,27.471-40.905,49.586-66.93,53.652c-28.3,4.412-54.638-13.492-76.153-51.803c-12.07-21.5-11.063-46.395-10.459-61.27
		c0.183-4.463,0.325-7.988,0.047-10.336c-1.27-10.703-5.5-20.256-9.596-29.492c-7.86-17.734-15.285-34.488-1.399-58.107
		c9.376-15.951,21.812-25.902,36.959-29.582c4.781-1.16,9.73-1.693,14.801-1.693c6.185,0,12.546,0.801,18.981,2.207
		c1.47,0.32,2.925-0.531,3.34-1.973C88,6.174,88.034,6.055,88.07,5.932c0.455-1.57-0.49-3.223-2.088-3.572
		C73.42-0.387,61.02-0.965,49.404,1.854C32.602,5.934,18.888,16.838,8.646,34.26C-6.819,60.566,1.593,79.551,9.73,97.906
		c3.91,8.828,7.952,17.955,9.113,27.746c0.223,1.867,0.086,5.182-0.08,9.375c-0.63,15.52-1.687,41.486,11.229,64.486
		c24.979,44.48,52.176,55.563,73.07,55.563c3.27,0,6.388-0.271,9.315-0.73c28.261-4.414,53.603-27.537,71.431-56.533
		C184.813,196.178,183.898,194.055,182.035,193.594 M99.534,12.488c3.778,1.301,7.556,2.768,11.312,4.352
		c1.545,0.652,3.328-0.143,3.822-1.748c0.037-0.119,0.074-0.244,0.112-0.363c0.433-1.402-0.247-2.916-1.599-3.486
		c-3.883-1.633-7.793-3.148-11.713-4.496C99.94,6.221,98.27,7.098,97.815,8.65c-0.034,0.119-0.071,0.238-0.106,0.359
		C97.281,10.471,98.098,11.994,99.534,12.488 M195.521,166.854c-0.161-0.029-0.321-0.063-0.481-0.094
		c-1.33-0.266-2.647,0.434-3.172,1.686c-1.688,4.039-3.532,8.051-5.52,12.002c-0.834,1.654,0.076,3.674,1.879,4.084
		c0.177,0.039,0.352,0.078,0.531,0.117c1.281,0.289,2.609-0.344,3.194-1.52c2.034-4.086,3.917-8.232,5.646-12.42
		C198.277,169.063,197.266,167.195,195.521,166.854 M93.483,37.473c3.716,1.139,7.443,2.496,11.151,4.02
		c1.652,0.678,3.5-0.275,3.865-2.023l0.078-0.385c0.281-1.336-0.422-2.709-1.689-3.227c-3.875-1.59-7.783-3.008-11.696-4.203
		c-1.59-0.482-3.261,0.541-3.601,2.166c-0.025,0.127-0.053,0.252-0.077,0.379C91.213,35.641,92.074,37.041,93.483,37.473
		 M162.703,177.031c0.158,0.059,0.314,0.115,0.471,0.172c1.311,0.469,2.789-0.08,3.459-1.297c2.156-3.904,4.129-7.914,5.918-11.979
		c0.666-1.512-0.129-3.262-1.685-3.822c-0.132-0.045-0.263-0.094-0.393-0.141c-1.41-0.512-2.954,0.148-3.563,1.52
		c-1.732,3.891-3.636,7.734-5.715,11.482C160.34,174.51,161.045,176.432,162.703,177.031 M140.322,167.242
		c1.313,0.68,2.955,0.236,3.723-1.031c2.35-3.848,4.695-7.779,6.301-11.988c0.865-2.268,0.283-3.789-1.08-4.52
		c-0.85-0.457-3.24-0.859-4.076,1.076c-1.91,4.41-3.6,7.678-6.374,12.221c-0.856,1.404-0.399,3.242,1.059,4.01
		C140.022,167.084,140.172,167.164,140.322,167.242 M87.063,58.156c-0.012,0.07-0.023,0.137-0.035,0.207
		c-0.253,1.523,0.722,2.926,2.218,3.313c3.648,0.938,7.332,2.215,10.992,3.711c1.751,0.713,3.707-0.422,4.005-2.289
		c0.008-0.053,0.018-0.109,0.026-0.166c0.219-1.346-0.512-2.693-1.779-3.209c-3.919-1.596-7.886-2.963-11.844-3.973
		C88.998,55.328,87.343,56.477,87.063,58.156 M82.304,99.594c-0.021,0.973,0.921,2.965,2.892,2.887
		c3.527-0.139,9.617,2.807,14.663,5.518c2.577,1.385,5.481-1.127,4.506-3.887c-0.012-0.031-0.022-0.07-0.035-0.102
		c-0.232-0.66-0.677-1.219-1.286-1.566c-5.359-3.055-11.58-5.891-17.521-6.002C83.798,96.406,82.338,97.871,82.304,99.594
		 M111.563,127.404c-0.921,4.508-2.869,8.885-5.352,12.514c-0.789,1.152-0.605,2.723,0.402,3.693
		c0.038,0.035,0.078,0.072,0.115,0.111c1.332,1.277,3.494,1.072,4.525-0.457c3.037-4.477,5.249-9.682,6.261-14.646
		c0.155-0.746,0.489-2.398-0.677-3.361c-1.92-1.578-4.711-1.092-5.125,1.355C111.66,126.9,111.612,127.166,111.563,127.404
		 M126.16,155.482c3.04-4.609,4.695-7.412,6.609-12.535c0.87-2.963-0.25-3.564-1.027-3.93c-1.734-0.816-3.795-0.359-4.518,1.416
		c-1.639,4.018-3.691,7.969-6.074,11.611c-0.875,1.338-0.602,3.127,0.704,4.045c0.067,0.049,0.138,0.098,0.205,0.146
		C123.393,157.17,125.265,156.838,126.16,155.482 M137.435,124.945c1.383-13.611-2.791-24.383-11.841-30.035l-2.649-1.666
		c-2.054-1.297-4.282-2.701-6.638-4.123c-2.133-1.291-4.811,0.488-4.464,2.955c0.011,0.078,0.024,0.158,0.036,0.236
		c0.126,0.865,0.668,1.629,1.413,2.082c2.272,1.379,4.428,2.734,6.413,3.988l2.67,1.682c8.923,5.572,9.725,16.479,9.02,24.072
		c-0.089,0.943,0.24,1.869,0.943,2.504c0.061,0.055,0.119,0.107,0.18,0.162C134.291,128.396,137.193,127.318,137.435,124.945
		 M97.275,85.971c1.891,0.791,3.95-0.525,4.084-2.568c0.001-0.027,0.004-0.055,0.006-0.082c0.083-1.262-0.605-2.463-1.772-2.949
		c-4.091-1.709-8.272-3.066-12.407-3.779c-1.639-0.283-3.197,0.807-3.456,2.447l-0.024,0.164c-0.248,1.563,0.777,3.072,2.338,3.334
		C89.722,83.16,93.516,84.393,97.275,85.971 M125.246,23.496c3.182,1.596,6.328,3.256,9.432,4.945
		c1.619,0.883,3.641,0.094,4.2-1.662c0.019-0.059,0.038-0.119,0.059-0.182c0.435-1.352-0.13-2.83-1.38-3.508
		c-3.164-1.723-6.373-3.412-9.621-5.039c-1.642-0.824-3.629,0.063-4.149,1.82c-0.019,0.063-0.036,0.121-0.054,0.184
		C123.33,21.414,123.977,22.857,125.246,23.496 M203.9,140.295c-0.063-0.008-0.122-0.016-0.184-0.023
		c-1.518-0.221-2.938,0.73-3.299,2.223c-0.871,3.619-1.893,7.27-3.053,10.934c-0.541,1.709,0.527,3.494,2.291,3.813
		c0.069,0.012,0.137,0.025,0.205,0.035c1.455,0.262,2.893-0.619,3.336-2.031c1.189-3.795,2.238-7.588,3.144-11.363
		C206.741,142.209,205.602,140.537,203.9,140.295 M175.712,134.588c-0.827,4.031-1.909,8.139-3.217,12.26
		c-0.479,1.512,0.282,3.143,1.775,3.676c0.085,0.029,0.17,0.061,0.255,0.09c1.555,0.553,3.281-0.313,3.775-1.885
		c1.17-3.729,2.416-7.414,2.984-11.154c0.35-2.289,1.619-5.324-1.418-6.137C176.242,130.465,175.827,134.018,175.712,134.588
		 M119.242,48.291c3.17,1.629,6.287,3.328,9.339,5.055c1.763,0.996,3.966-0.014,4.338-2c0.012-0.066,0.025-0.135,0.038-0.199
		c0.231-1.242-0.335-2.502-1.434-3.125c-3.119-1.76-6.311-3.496-9.559-5.166c-1.733-0.891-3.863,0.16-4.243,2.072
		c-0.011,0.064-0.023,0.129-0.037,0.195C117.432,46.408,118.075,47.689,119.242,48.291 M148.844,36.516
		c1.951,1.158,3.869,2.318,5.758,3.469c1.627,0.99,3.743,0.199,4.311-1.619c0.018-0.059,0.035-0.119,0.054-0.18
		c0.407-1.301-0.083-2.703-1.245-3.412c-1.91-1.162-3.846-2.332-5.814-3.5c-1.658-0.988-3.815-0.135-4.357,1.715
		c-0.018,0.063-0.035,0.125-0.053,0.184C147.121,34.453,147.695,35.832,148.844,36.516 M207.395,117.07
		c-0.044-0.004-0.09-0.01-0.137-0.014c-1.651-0.168-3.098,1.016-3.219,2.672c-0.172,2.393-0.418,4.826-0.736,7.299
		c-0.205,1.59,0.867,3.094,2.457,3.314c0.091,0.012,0.182,0.023,0.27,0.037c1.602,0.219,3.091-0.939,3.297-2.539
		c0.339-2.59,0.598-5.137,0.781-7.648C210.225,118.588,208.996,117.23,207.395,117.07 M174.114,92.434
		c0.897,1.779,3.204,2.279,4.749,1.02l0.024-0.02c1.022-0.832,1.435-2.238,0.98-3.477c-2.767-7.469-6.922-13.855-12.419-18.932
		c-1.805-1.668-4.774-0.479-5.018,1.965c-0.004,0.029-0.006,0.057-0.01,0.086c-0.092,0.934,0.285,1.834,0.972,2.475
		C166.998,78.906,171.649,87.549,174.114,92.434 M143.197,62.039c1.404,0.867,4.278,2.561,6.377,3.793
		c1.4,0.818,3.189,0.398,4.086-0.955c0.967-1.465,0.51-3.441-1.008-4.322c-2.229-1.297-5.164-3.012-6.341-3.74
		c-1.772-1.098-4.097-0.033-4.447,2.023c-0.015,0.066-0.026,0.137-0.038,0.207C141.626,60.227,142.181,61.408,143.197,62.039
		 M177.818,112.955c0.051,2.422-0.005,4.916-0.175,7.477c-0.085,1.27,0.621,2.48,1.804,2.951c0.068,0.027,0.137,0.053,0.205,0.082
		c1.876,0.742,3.922-0.566,4.056-2.586c0.183-2.711,0.245-5.354,0.2-7.938c-0.02-1.139-0.734-2.139-1.775-2.604
		c-0.07-0.031-0.139-0.063-0.208-0.094C179.964,109.359,177.774,110.803,177.818,112.955 M168.668,48.725
		c0.631,0.395,1.251,0.785,1.862,1.172c0.674,0.424,1.354,0.879,2.032,1.336c1.727,1.172,4.028,0.262,4.606-1.744
		c0.007-0.021,0.013-0.041,0.021-0.063c0.377-1.279-0.205-2.648-1.334-3.355c-0.68-0.432-1.37-0.865-2.084-1.313
		c-0.629-0.398-1.268-0.799-1.911-1.205c-1.687-1.064-3.921-0.182-4.435,1.746l-0.049,0.191
		C167.049,46.729,167.581,48.041,168.668,48.725 M199.594,82.242c0.324,0.885,1.039,1.598,1.951,1.844
		c0.081,0.023,0.164,0.045,0.244,0.066c2.316,0.613,4.397-1.613,3.578-3.865c-3.354-9.227-8.363-17.168-14.959-23.566
		c-1.671-1.621-4.485-0.701-4.943,1.586c-0.018,0.08-0.032,0.16-0.047,0.24c-0.194,0.973,0.145,1.953,0.854,2.648
		C192.106,66.898,196.568,73.988,199.594,82.242 M203.527,98.574c0.242,1.816,0.433,3.672,0.566,5.563
		c0.1,1.393,1.137,2.576,2.523,2.746c0.062,0.01,0.126,0.014,0.187,0.023c1.837,0.217,3.474-1.256,3.344-3.104
		c-0.146-2.037-0.354-4.035-0.613-5.998c-0.184-1.373-1.324-2.371-2.704-2.504c-0.036-0.004-0.07-0.008-0.105-0.012
		C204.861,95.105,203.281,96.721,203.527,98.574 M139.84,87.4c0.002,0.002,0.73,0.637,0.734,0.639
		c5.104,3.996,8.924,10.045,10.77,17.041c0.141,0.525,0.416,1.023,0.812,1.396c0.103,0.098,0.208,0.201,0.312,0.297
		c2.11,1.986,5.6-0.021,4.887-2.832c-2.452-9.736-6.928-17-14.863-21.887c-0.784-0.482-2.188-1.068-3.521,0.148
		C137.301,83.725,138.046,86.027,139.84,87.4 M157.065,123.195c-0.057-0.037-0.115-0.078-0.169-0.113
		c-1.84-1.199-4.248-0.041-4.505,2.143c-0.251,2.154-0.608,4.365-1.073,6.633c-0.337,1.652-0.722,3.115-1.206,5.006
		c-0.073,0.287-1.085,3.371,1.691,4.248c2.956,0.934,3.909-1.588,4.183-2.609c0.486-1.816,0.919-3.629,1.283-5.426
		c0.496-2.42,0.875-4.785,1.147-7.094C158.549,124.871,158,123.803,157.065,123.195 M113.516,69.258
		c-0.012,0.074-0.021,0.146-0.035,0.223c-0.191,1.227,0.421,2.424,1.508,3.018c3.302,1.805,6.504,3.676,9.566,5.527
		c1.82,1.1,4.209-0.051,4.418-2.17c0.006-0.066,0.012-0.133,0.02-0.197c0.121-1.152-0.381-2.275-1.375-2.877
		c-3.137-1.898-6.41-3.818-9.799-5.672C116.041,66.135,113.832,67.258,113.516,69.258"/>
	<g>
		<path fill="#FFFFFF" d="M279.63,100.941V35.945h15.303v64.996H279.63z"/>
		<path fill="#FFFFFF" d="M343.524,101.117l-21.633-36.465c-1.984-3.402-3.401-6.805-3.401-6.805h-0.188
			c0,0,0.377,3.496,0.377,7.088v36.182h-12.846V36.121h13.508l19.933,33.348c1.983,3.305,3.306,6.234,3.306,6.234h0.189
			c0,0-0.378-3.117-0.378-6.518V36.121h12.942v64.996H343.524z"/>
		<path fill="#FFFFFF" d="M391.313,46.242v54.699h-15.398V46.242h-11.336V35.945h37.977v10.297H391.313z"/>
		<path fill="#FFFFFF" d="M411.895,101.117V36.121h33.253v10.297h-17.855v16.535h15.587v10.012h-15.587V90.82h17.855v10.297H411.895
			z"/>
		<path fill="#FFFFFF" d="M486.051,101.117l-15.396-28.721h-0.19v28.721h-15.115V38.955c4.724-2.266,11.526-3.777,19.555-3.777
			c17.572,0,25.697,7.936,25.697,20.311c0,8.5-6.519,15.207-15.021,16.531v0.189l17.288,28.908H486.051z M474.903,43.867
			c-1.888,0-3.306,0.381-4.439,0.854v23.803c0.567,0.191,1.985,0.379,3.308,0.379c7.934,0,11.808-4.82,11.808-12.66
			C485.579,47.932,483.029,43.867,474.903,43.867z"/>
		<path fill="#FFFFFF" d="M546.875,100.941l-3.966-13.887h-19.555l-4.157,13.887h-13.698l21.159-64.996h14.927l21.067,64.996
			H546.875z M535.067,57.109c-1.228-4.537-1.511-7.842-1.511-7.842h-0.19c0,0-0.377,3.211-1.698,7.842l-6.047,21.158h15.209
			L535.067,57.109z"/>
		<path fill="#FFFFFF" d="M591.563,101.885c-17.572,0-25.601-15.869-25.601-33.439c0-17.289,8.217-33.443,25.693-33.443
			c6.331,0,10.864,1.416,14.078,3.777l-3.119,9.26c-1.794-1.135-4.063-1.984-7.651-1.984c-10.014,0-13.228,11.146-13.228,22.293
			c0,11.055,3.686,21.822,13.132,21.822c3.591,0,5.386-0.756,7.464-1.984l3.494,9.828
			C602.52,100.563,597.796,101.885,591.563,101.885z"/>
		<path fill="#FFFFFF" d="M638.028,46.242v54.699H622.63V46.242h-11.335V35.945h37.975v10.297H638.028z"/>
		<path fill="#FFFFFF" d="M658.624,100.941V35.945h15.304v64.996H658.624z"/>
		<path fill="#FFFFFF" d="M709.648,101.885c-18.138,0-25.412-15.02-25.412-33.439c0-18.33,7.274-33.443,25.412-33.443
			c18.137,0,25.412,15.113,25.412,33.443C735.061,86.865,727.785,101.885,709.648,101.885z M709.648,45.107
			c-8.22,0-9.824,11.717-9.824,22.77c0,11.145,1.512,22.768,9.824,22.768c8.408,0,9.824-11.623,9.824-22.768
			C719.473,56.824,717.773,45.107,709.648,45.107z"/>
		<path fill="#FFFFFF" d="M784.102,100.941l-21.635-36.465c-1.983-3.402-3.4-6.805-3.4-6.805h-0.188c0,0,0.377,3.496,0.377,7.088
			v36.182h-12.846V35.945h13.509l19.931,33.348c1.984,3.307,3.307,6.234,3.307,6.234h0.188c0,0-0.377-3.117-0.377-6.518V35.945
			h12.942v64.996H784.102z"/>
	</g>
	<g>
		<path fill="#FFFFFF" d="M287.622,159.74c-4.596,0-7.623-0.813-9.73-2.217l2-6.107c1.189,0.811,3.406,1.729,6,1.729
			c3.082,0,4.975-1.785,4.975-4.434c0-2.375-1.408-3.836-5.19-5.514c-5.784-2.592-7.405-6.648-7.405-10.27
			c0-6.27,4.54-11.459,11.784-11.459c3.999,0,6.918,0.975,8.702,2.162l-1.838,5.352c-1.297-0.811-3.297-1.619-5.567-1.619
			c-2.921,0-4.486,1.619-4.486,4.268c0,2.703,1.892,4.055,5.025,5.459c7.19,3.242,8.218,7.191,8.218,10.975
			C300.108,154.766,294.974,159.74,287.622,159.74z"/>
		<path fill="#FFFFFF" d="M331.254,159.74c-10.378,0-14.542-8.596-14.542-19.135c0-10.486,4.164-19.137,14.542-19.137
			c10.379,0,14.542,8.65,14.542,19.137C345.796,151.145,341.633,159.74,331.254,159.74z M331.254,127.252
			c-4.702,0-5.622,6.703-5.622,13.027c0,6.379,0.865,13.029,5.622,13.029c4.811,0,5.622-6.65,5.622-13.029
			C336.876,133.955,335.903,127.252,331.254,127.252z"/>
		<path fill="#FFFFFF" d="M376.562,159.795c-7.406,0-12.918-4.434-12.918-11.57V122.01h8.81v26.162c0,3.297,1.946,4.973,4.485,4.973
			c2.542,0,4.434-1.676,4.434-5.027V122.01h8.108v26.215C389.48,155.309,384.021,159.795,376.562,159.795z"/>
		<path fill="#FFFFFF" d="M421.923,127.902v31.295h-8.811v-31.295h-6.484v-5.893h21.728v5.893H421.923z"/>
		<path fill="#FFFFFF" d="M463.773,159.197V143.09h-9.407v16.107h-8.811V122.01h8.811v15.352h9.407V122.01h8.811v37.188H463.773z"/>
		<path fill="#FFFFFF" d="M538.387,159.197l-2.269-7.943h-11.19l-2.379,7.943h-7.838l12.109-37.188h8.541l12.055,37.188H538.387z
			 M531.632,134.119c-0.704-2.596-0.865-4.488-0.865-4.488h-0.108c0,0-0.217,1.84-0.975,4.488l-3.459,12.109h8.703L531.632,134.119z
			"/>
		<path fill="#FFFFFF" d="M592.346,159.197c-0.109-1.402-1.838-21.404-1.838-21.404c-0.217-2.324-0.163-4.541-0.163-4.541h-0.106
			c0,0-0.434,2.16-1.138,4.541c0,0-5.62,19.514-6.271,21.404h-4.376c-0.596-1.564-6.271-21.404-6.271-21.404
			c-0.704-2.381-1.134-4.541-1.134-4.541h-0.11c0,0,0.11,2.16-0.108,4.541c0,0-1.783,19.787-1.892,21.404h-7.243l3.946-37.188h8.54
			l5.784,20.811c0.649,2.271,0.973,4.164,0.973,4.164h0.108c0,0,0.379-1.893,1.029-4.164l6.105-20.811h8.487l3.999,37.188H592.346z"
			/>
		<path fill="#FFFFFF" d="M618.248,159.197V122.01h19.026v5.893H627.06v9.459h8.917v5.729h-8.917v10.219h10.215v5.889H618.248z"/>
		<path fill="#FFFFFF" d="M672.642,159.197l-8.812-16.43h-0.109v16.43h-8.649v-35.566c2.703-1.299,6.598-2.162,11.19-2.162
			c10.056,0,14.704,4.541,14.704,11.623c0,4.865-3.731,8.699-8.597,9.455v0.113l9.894,16.537H672.642z M666.262,126.439
			c-1.08,0-1.893,0.219-2.541,0.49v13.621c0.323,0.107,1.137,0.215,1.893,0.215c4.541,0,6.756-2.758,6.756-7.242
			C672.369,128.766,670.912,126.439,666.262,126.439z"/>
		<path fill="#FFFFFF" d="M699.031,159.197V122.01h8.754v37.188H699.031z"/>
		<path fill="#FFFFFF" d="M740.394,159.74c-10.055,0-14.649-9.08-14.649-19.135c0-9.895,4.703-19.137,14.703-19.137
			c3.624,0,6.217,0.809,8.055,2.162l-1.786,5.297c-1.023-0.648-2.321-1.133-4.376-1.133c-5.73,0-7.568,6.377-7.568,12.756
			c0,6.328,2.108,12.486,7.514,12.486c2.055,0,3.08-0.432,4.271-1.135l2,5.621C746.664,158.984,743.961,159.74,740.394,159.74z"/>
		<path fill="#FFFFFF" d="M785.758,159.197l-2.271-7.943h-11.188l-2.375,7.943h-7.842l12.107-37.188h8.543l12.051,37.188H785.758z
			 M779,134.119c-0.701-2.596-0.864-4.488-0.864-4.488h-0.104c0,0-0.224,1.84-0.978,4.488l-3.462,12.109h8.702L779,134.119z"/>
	</g>
	<g>
		<path fill="#FFFFFF" d="M282.888,183.541v13.006h11v3.307h-11v17.609h-4.985v-37.279h17.231v3.357H282.888z"/>
		<path fill="#FFFFFF" d="M308.145,217.646v-37.281h4.985v33.92h11.217v3.361H308.145z"/>
		<path fill="#FFFFFF" d="M347.301,218.004c-9.7,0-13.493-8.506-13.493-19.182c0-10.566,3.793-19.182,13.493-19.182
			c9.645,0,13.438,8.615,13.438,19.182C360.739,209.498,356.945,218.004,347.301,218.004z M347.301,182.945
			c-6.828,0-8.453,8.184-8.453,15.715s1.408,15.66,8.453,15.66c7.044,0,8.397-8.129,8.397-15.66S354.073,182.945,347.301,182.945z"
			/>
		<path fill="#FFFFFF" d="M391.699,217.463l-12.247-17.395h-0.107v17.395h-4.932v-35.818c1.95-1.084,5.256-2.004,9.265-2.004
			c8.453,0,12.79,4.117,12.79,11.055c0,6.338-4.498,10.131-11.325,10.242v0.107l12.192,16.418H391.699z M383.57,182.566
			c-1.842,0-3.251,0.271-4.226,0.813v15.607c0.542,0.16,1.896,0.324,3.196,0.324c6.068,0,8.995-3.035,8.995-8.398
			C391.536,185.223,389.043,182.566,383.57,182.566z"/>
		<path fill="#FFFFFF" d="M410.055,217.463v-37.279h4.985v37.279H410.055z"/>
		<path fill="#FFFFFF" d="M436.99,202.129l-1.68-0.164v15.498h-4.877v-35.764c2.059-1.191,5.364-2.059,9.32-2.059
			c8.779,0,12.733,4.715,12.733,11.271C452.487,197.521,447.989,203.211,436.99,202.129z M439.537,182.619
			c-2.005,0-3.47,0.381-4.227,0.705v15.605l1.624,0.164c7.859,0.76,10.73-2.818,10.73-8.236
			C447.665,185.438,445.228,182.619,439.537,182.619z"/>
		<path fill="#FFFFFF" d="M482.819,217.645l-3.522-11.162H466.51l-3.631,11.162h-4.553l12.627-37.279h4.442l12.572,37.279H482.819z
			 M474.15,189.359c-0.921-2.928-1.085-4.496-1.085-4.496h-0.108c0,0-0.217,1.568-1.137,4.496l-4.445,14.143h11.109L474.15,189.359z
			"/>
		<path fill="#FFFFFF" d="M515.093,217.463l13.167-18.695c2.925-4.172,3.522-6.555,3.522-8.832c0-4.389-2.549-6.717-7.695-6.717
			c-3.089,0-5.04,0.703-6.665,1.516l-1.247-3.09c2.276-1.191,4.986-2.004,9.375-2.004c6.989,0,11.325,4.117,11.325,9.861
			c0,2.762-1.355,6.07-4.715,10.566l-9.97,13.438h15.118v3.957H515.093z"/>
		<path fill="#FFFFFF" d="M562.309,217.822c-9.104,0-11.325-10.838-11.325-19.184c0-8.344,2.222-19.182,11.325-19.182
			s11.324,10.838,11.324,19.182C573.633,206.984,571.412,217.822,562.309,217.822z M562.309,182.383
			c-5.854,0-6.721,9.592-6.721,16.203c0,6.664,0.867,15.982,6.721,15.982c5.852,0,6.719-9.318,6.719-15.982
			C569.027,191.92,568.16,182.383,562.309,182.383z"/>
		<path fill="#FFFFFF" d="M597.333,217.279v-31.32c-2.059,1.303-6.34,2.387-9.537,2.656l-0.54-2.873
			c6.555-0.867,10.132-3.359,11.649-5.742h3.306v37.279H597.333z"/>
		<path fill="#FFFFFF" d="M639.294,191.832c-4.064,9.537-8.073,20.484-9.428,25.631h-5.961l14.577-33.324h-17.287v-3.955h23.086
			L639.294,191.832z"/>
	</g>
</g>
</svg>
