<?xml version="1.0" encoding="utf-8"?>
<!-- Generator: Adobe Illustrator 21.0.0, SVG Export Plug-In . SVG Version: 6.00 Build 0)  -->
<svg version="1.1" id="Layer_1" xmlns="http://www.w3.org/2000/svg" xmlns:xlink="http://www.w3.org/1999/xlink" x="0px" y="0px"
	 viewBox="0 0 203 102" style="enable-background:new 0 0 203 102;" xml:space="preserve">
<style type="text/css">
	.st0{fill:#F16522;}
</style>
<g>
	<g id="vetor_1_">
		<path class="st0" d="M41.9,62.4c0-0.3,0-0.5,0-0.8s0-0.4,0-0.7s0-0.4,0-0.7c0-0.2,0-0.4,0-0.6c0.1,0,0.3,0,0.4,0
			c0.2,0,0.3,0,0.4,0c0.2,0,0.4,0,0.4,0c0.2,0,0.3,0,0.4,0c0,0.3,0,0.4,0,0.6s0,0.4,0,0.7s0,0.4,0,0.7s0,0.5,0,0.8v1.4
			c0,0.4,0,0.8,0,1.2c0,0.4,0,0.7,0,1c0.4,0,0.8,0,1.2,0s0.8-0.1,1.2-0.1c0,0.1,0,0.2,0,0.2c0,0.1,0,0.2,0,0.3c0,0.1,0,0.2,0,0.3
			c0,0.1,0,0.1,0,0.2c-0.2,0-0.4,0-0.7,0s-0.6,0-1.2,0c-0.4,0-0.8,0-1,0c-0.3,0-0.4,0-0.6,0s-0.3,0-0.4,0s-0.2,0-0.2,0
			c0-0.3,0-0.4,0-0.6s0-0.4,0-0.7s0-0.4,0-0.7s0-0.5,0-0.8L41.9,62.4L41.9,62.4z"/>
		<path class="st0" d="M46.7,62.3c0.3-0.3,0.6-0.4,0.9-0.5c0.4-0.1,0.7-0.2,1-0.2s0.5,0,0.8,0.1s0.4,0.2,0.6,0.3
			c0.2,0.2,0.3,0.3,0.4,0.5c0.1,0.2,0.2,0.4,0.2,0.8c0,0.4,0,0.9,0,1.3s0,0.7,0,1.2c0,0.2,0,0.3,0,0.4s0.1,0.2,0.1,0.2
			c0.1,0.1,0.1,0.1,0.2,0.1c0.1,0,0.2,0,0.3,0v0.3C51,66.9,50.8,67,50.7,67c-0.2,0-0.3,0.1-0.4,0.1c-0.3,0-0.4-0.1-0.6-0.2
			c-0.2-0.2-0.3-0.4-0.4-0.5c-0.2,0.2-0.4,0.4-0.5,0.5c-0.2,0.2-0.4,0.2-0.8,0.2c-0.3,0-0.4,0-0.7-0.1c-0.2-0.1-0.4-0.2-0.4-0.3
			c-0.1-0.1-0.2-0.3-0.3-0.4s-0.1-0.4-0.1-0.5c0-0.3,0-0.4,0.1-0.6s0.2-0.3,0.3-0.4c0.2-0.1,0.3-0.2,0.4-0.3
			c0.2-0.1,0.4-0.2,0.6-0.2c0.3-0.1,0.5-0.1,0.7-0.2s0.3-0.1,0.4-0.2s0.2-0.1,0.2-0.2c0-0.1,0-0.2,0-0.3c0-0.3-0.1-0.4-0.3-0.6
			c-0.2-0.2-0.4-0.3-0.7-0.3c-0.1,0-0.3,0-0.4,0.1c-0.1,0-0.3,0.1-0.4,0.1c0.1,0.1,0,0.2-0.1,0.2c-0.1,0.1-0.2,0.2-0.2,0.2H47
			L46.7,62.3z M49.2,65.1c0-0.3,0-0.5,0-0.7s0-0.3,0-0.4c-0.2,0.1-0.3,0.2-0.4,0.2c-0.2,0.1-0.3,0.1-0.4,0.2s-0.3,0.2-0.4,0.4
			s-0.1,0.4-0.1,0.6c0,0.3,0.1,0.4,0.2,0.6c0.1,0.2,0.3,0.2,0.4,0.2c0.3,0,0.4-0.1,0.5-0.3C49.2,65.7,49.2,65.4,49.2,65.1z"/>
		<path class="st0" d="M52,62.5c0-0.4,0-0.6,0-1c0-0.3,0-0.6,0-0.9c0-0.3,0-0.5,0-0.9c0-0.3,0-0.5,0-0.9c0.1,0,0.2,0,0.4,0
			s0.3,0,0.4,0c0.2,0,0.3,0,0.4,0c0.2,0,0.3,0,0.4,0c0,0.3,0,0.5,0,0.9c0,0.3,0,0.5,0,0.9c0,0.3,0,0.6,0,0.9s0,0.6,0,1l0,0
			c0.1-0.3,0.3-0.5,0.5-0.6c0.3-0.2,0.5-0.3,0.8-0.3s0.5,0.1,0.8,0.2c0.3,0.1,0.4,0.3,0.6,0.5c0.2,0.2,0.4,0.4,0.4,0.8
			c0.1,0.3,0.2,0.6,0.2,1c0,0.5-0.1,1-0.2,1.3c-0.2,0.4-0.4,0.6-0.5,0.9c-0.3,0.2-0.4,0.4-0.7,0.4S55.1,67,54.8,67
			c-0.4,0-0.6-0.1-0.8-0.2c-0.3-0.2-0.4-0.3-0.5-0.5c-0.2,0.1-0.3,0.2-0.4,0.3c-0.2,0.1-0.3,0.3-0.4,0.4h-0.3c0-0.3,0-0.6,0-0.9
			s0-0.5,0-0.9c0-0.3,0-0.6,0-0.9s0-0.6,0-1v-0.7H52V62.5z M53.4,64.3c0,0.3,0,0.6,0,0.9s0.1,0.4,0.2,0.7c0.1,0.2,0.2,0.4,0.3,0.4
			c0.1,0.1,0.3,0.2,0.4,0.2c0.3,0,0.5-0.2,0.7-0.5c0.2-0.4,0.3-1,0.3-1.8c0-0.6-0.1-1.1-0.3-1.3c-0.2-0.3-0.4-0.4-0.6-0.4
			c-0.2,0-0.3,0-0.4,0.1s-0.3,0.2-0.3,0.4c-0.1,0.2-0.2,0.4-0.2,0.6C53.4,63.6,53.4,63.8,53.4,64.3z"/>
		<path class="st0" d="M57.5,64.4c0-0.4,0.1-0.9,0.2-1.3c0.2-0.4,0.4-0.6,0.5-0.9c0.3-0.3,0.5-0.4,0.8-0.5s0.6-0.2,1-0.2
			s0.8,0.1,1.1,0.2c0.4,0.1,0.6,0.3,0.8,0.5s0.4,0.4,0.5,0.8c0.1,0.4,0.2,0.6,0.2,1.1c0,0.4-0.1,0.8-0.2,1.2
			c-0.1,0.4-0.3,0.6-0.5,0.9c-0.3,0.3-0.5,0.4-0.8,0.5s-0.6,0.2-1.1,0.2c-0.3,0-0.6-0.1-0.9-0.2c-0.3-0.1-0.5-0.3-0.8-0.4
			c-0.3-0.2-0.4-0.4-0.6-0.8C57.6,65.2,57.5,64.8,57.5,64.4z M61.1,63.9c0-0.6-0.1-1.1-0.3-1.4c-0.2-0.4-0.4-0.5-0.7-0.5
			c-0.4,0-0.5,0.2-0.7,0.5c-0.2,0.4-0.3,1-0.3,1.8c0,0.3,0,0.5,0.1,0.8c0,0.3,0.1,0.4,0.2,0.6c0.1,0.2,0.2,0.4,0.3,0.4
			c0.1,0.1,0.3,0.2,0.4,0.2c0.4,0,0.5-0.2,0.7-0.6C61,65.4,61.1,64.7,61.1,63.9z"/>
		<path class="st0" d="M64.9,62.9L64.9,62.9c0.2-0.4,0.4-0.8,0.7-1.1c0.3-0.3,0.5-0.4,0.9-0.4h0.1h0.1c0,0.1,0,0.2-0.1,0.4
			c0,0.1,0,0.3,0,0.4c0,0.1,0,0.2,0,0.4c0,0.1,0,0.3,0,0.4l-0.1,0.1c-0.1,0-0.2-0.1-0.3-0.1c-0.1,0-0.2,0-0.3,0
			c-0.3,0-0.5,0.1-0.7,0.3C65.1,63.5,65,63.7,65,64v0.4c0,0.4,0,0.8,0,1.2c0,0.4,0,0.7,0.1,1.1c-0.1,0-0.2,0-0.4,0
			c-0.2,0-0.3,0-0.4,0c-0.2,0-0.3,0-0.4,0c-0.1,0-0.3,0-0.4,0c0-0.4,0.1-0.7,0.1-1.1s0-0.8,0-1.2V64c0-0.4,0-0.8,0-1.2
			s0-0.7-0.1-1.1c0.1,0,0.3,0,0.4,0s0.3,0,0.4,0s0.3,0,0.4,0s0.3,0,0.4,0L64.9,62.9z"/>
		<path class="st0" d="M67.3,62.3c0.3-0.3,0.6-0.4,0.9-0.5c0.4-0.1,0.7-0.2,1-0.2s0.5,0,0.8,0.1s0.4,0.2,0.6,0.3
			c0.2,0.2,0.3,0.3,0.4,0.5s0.2,0.4,0.2,0.8c0,0.4,0,0.9,0,1.3s0,0.7,0,1.2c0,0.2,0,0.3,0,0.4s0.1,0.2,0.1,0.2
			c0.1,0.1,0.1,0.1,0.2,0.1s0.2,0,0.3,0v0.3c-0.2,0.1-0.4,0.2-0.5,0.2c-0.2,0-0.3,0.1-0.4,0.1c-0.3,0-0.4-0.1-0.6-0.2
			c-0.2-0.2-0.3-0.4-0.4-0.5c-0.2,0.2-0.4,0.4-0.5,0.5c-0.2,0.2-0.4,0.2-0.8,0.2c-0.3,0-0.4,0-0.7-0.1c-0.2-0.1-0.4-0.2-0.4-0.3
			c-0.1-0.1-0.2-0.3-0.3-0.4c-0.1-0.2-0.1-0.4-0.1-0.5c0-0.3,0-0.4,0.1-0.6s0.2-0.3,0.3-0.4c0.2-0.1,0.3-0.2,0.4-0.3
			c0.2-0.1,0.4-0.2,0.6-0.2c0.3-0.1,0.5-0.1,0.7-0.2s0.3-0.1,0.4-0.2c0.3-0.1,0.4-0.1,0.4-0.2c0-0.1,0-0.2,0-0.3
			c0-0.3-0.1-0.4-0.3-0.6c-0.2-0.2-0.4-0.3-0.7-0.3c-0.1,0-0.3,0-0.4,0.1c-0.1,0-0.3,0.1-0.4,0.1c-0.1,0.1-0.2,0.2-0.3,0.2
			c-0.1,0.1-0.2,0.2-0.2,0.2h-0.1L67.3,62.3z M69.8,65.1c0-0.3,0-0.5,0-0.7s0-0.3,0-0.4c-0.2,0.1-0.3,0.2-0.4,0.2
			c-0.2,0.1-0.3,0.1-0.4,0.2s-0.3,0.2-0.4,0.4c-0.1,0.2-0.1,0.4-0.1,0.6c0,0.3,0.1,0.4,0.2,0.6s0.3,0.2,0.4,0.2
			c0.3,0,0.4-0.1,0.5-0.3C69.7,65.7,69.8,65.4,69.8,65.1z"/>
		<path class="st0" d="M75.1,61.8c0,0.1,0,0.2,0,0.3s0,0.2,0,0.3h-0.9c0,0.2,0,0.4,0,0.5c0,0.2,0,0.4,0,0.6c0,0.2,0,0.4,0,0.6
			c0,0.2,0,0.4,0,0.5c0,0.4,0,0.6,0,0.9c0,0.2,0.1,0.4,0.1,0.5s0.1,0.2,0.2,0.3c0.1,0,0.2,0.1,0.3,0.1s0.3,0,0.3,0
			c0.1,0,0.1,0,0.2-0.1v0.4C75.1,66.9,75,67,74.7,67c-0.2,0.1-0.4,0.1-0.6,0.1c-0.4,0-0.8-0.2-1-0.4c-0.2-0.3-0.4-0.7-0.4-1.2
			c0-0.2,0-0.4,0-0.7s0-0.5,0-0.8c0-0.3,0-0.5,0-0.8s0-0.5,0-0.7H72c0-0.1,0-0.2,0-0.3s0-0.2,0-0.3h0.7c0-0.2,0-0.4,0-0.6
			c0-0.2,0-0.4,0-0.7c0.3-0.1,0.4-0.2,0.7-0.3c0.3-0.1,0.4-0.2,0.7-0.4l0.1,0.1c0,0.1,0,0.3,0,0.4c0,0.2,0,0.3,0,0.4
			c0,0.2,0,0.4,0,0.5s0,0.4,0,0.4L75.1,61.8z"/>
		<path class="st0" d="M75.7,64.4c0-0.4,0.1-0.9,0.2-1.3c0.2-0.4,0.4-0.6,0.5-0.9c0.3-0.3,0.5-0.4,0.8-0.5s0.6-0.2,1-0.2
			s0.7,0.1,1.1,0.2c0.4,0.1,0.6,0.3,0.8,0.5c0.2,0.2,0.4,0.4,0.5,0.8c0.1,0.4,0.2,0.6,0.2,1.1c0,0.4-0.1,0.8-0.2,1.2
			c-0.1,0.4-0.3,0.6-0.5,0.9c-0.3,0.3-0.5,0.4-0.8,0.5s-0.6,0.2-1.1,0.2c-0.3,0-0.6-0.1-0.9-0.2s-0.5-0.3-0.8-0.4s-0.4-0.4-0.6-0.8
			C75.8,65.2,75.7,64.8,75.7,64.4z M79.3,63.9c0-0.6-0.1-1.1-0.3-1.4c-0.2-0.4-0.4-0.5-0.7-0.5c-0.4,0-0.5,0.2-0.7,0.5
			c-0.2,0.4-0.3,1-0.3,1.8c0,0.3,0,0.5,0.1,0.8c0,0.3,0.1,0.4,0.2,0.6s0.2,0.4,0.3,0.4c0.1,0.1,0.3,0.2,0.4,0.2
			c0.4,0,0.5-0.2,0.7-0.6C79.2,65.4,79.3,64.7,79.3,63.9z M77.4,60.9c0.4-0.4,0.7-0.8,0.9-1.1c0.3-0.3,0.4-0.4,0.5-0.6
			c0.1-0.1,0.3-0.2,0.3-0.3c0.1,0,0.2,0,0.2,0c0.2,0,0.3,0.1,0.4,0.2c0.1,0.1,0.1,0.2,0.1,0.4c0,0.1,0,0.2,0,0.2
			c0,0.1-0.1,0.2-0.3,0.3c-0.1,0.1-0.4,0.3-0.5,0.4c-0.3,0.2-0.6,0.4-1.1,0.6C77.8,60.9,77.4,60.9,77.4,60.9z"/>
		<path class="st0" d="M83.2,62.9L83.2,62.9c0.2-0.4,0.4-0.8,0.7-1.1s0.5-0.4,0.9-0.4h0.1H85c0,0.1,0,0.2-0.1,0.4c0,0.1,0,0.3,0,0.4
			c0,0.1,0,0.2,0,0.4c0,0.1,0,0.3,0,0.4l-0.1,0.1c-0.1,0-0.2-0.1-0.3-0.1s-0.2,0-0.3,0c-0.3,0-0.5,0.1-0.7,0.3s-0.3,0.4-0.3,0.7v0.4
			c0,0.4,0,0.8,0,1.2c0,0.4,0,0.7,0.1,1.1c-0.1,0-0.2,0-0.4,0s-0.3,0-0.4,0c-0.2,0-0.3,0-0.4,0s-0.3,0-0.4,0c0-0.4,0.1-0.7,0.1-1.1
			s0-0.8,0-1.2V64c0-0.4,0-0.8,0-1.2s0-0.7-0.1-1.1c0.1,0,0.3,0,0.4,0s0.3,0,0.4,0s0.3,0,0.4,0s0.3,0,0.4,0L83.2,62.9z"/>
		<path class="st0" d="M85.8,59.7c0-0.3,0.1-0.4,0.3-0.6c0.2-0.2,0.4-0.3,0.6-0.3s0.4,0.1,0.6,0.3s0.3,0.4,0.3,0.6s-0.1,0.4-0.3,0.6
			c-0.2,0.2-0.4,0.3-0.6,0.3s-0.4-0.1-0.6-0.3C85.9,60.2,85.8,60,85.8,59.7z M85.9,64c0-0.4,0-0.8,0-1.2s0-0.7-0.1-1.1
			c0.1,0,0.2,0,0.4,0c0.1,0,0.3,0,0.4,0c0.2,0,0.3,0,0.4,0s0.3,0,0.4,0c0,0.4-0.1,0.7-0.1,1.1c0,0.4,0,0.8,0,1.2v0.4
			c0,0.4,0,0.8,0,1.2c0,0.4,0,0.7,0.1,1.1c-0.1,0-0.2,0-0.4,0c-0.2,0-0.3,0-0.4,0c-0.2,0-0.3,0-0.4,0s-0.3,0-0.4,0
			c0-0.4,0.1-0.7,0.1-1.1s0-0.8,0-1.2V64z"/>
		<path class="st0" d="M88.4,64.4c0-0.4,0.1-0.9,0.2-1.3c0.2-0.4,0.4-0.6,0.5-0.9c0.3-0.3,0.5-0.4,0.8-0.5s0.6-0.2,1-0.2
			s0.7,0.1,1.1,0.2c0.4,0.1,0.6,0.3,0.8,0.5c0.2,0.2,0.4,0.4,0.5,0.8c0.1,0.4,0.2,0.6,0.2,1.1c0,0.4-0.1,0.8-0.2,1.2
			c-0.1,0.4-0.3,0.6-0.5,0.9c-0.3,0.3-0.5,0.4-0.8,0.5s-0.6,0.2-1.1,0.2c-0.3,0-0.6-0.1-0.9-0.2s-0.5-0.3-0.8-0.4s-0.4-0.4-0.6-0.8
			C88.5,65.2,88.4,64.8,88.4,64.4z M92,63.9c0-0.6-0.1-1.1-0.3-1.4C91.5,62.1,91.3,62,91,62c-0.4,0-0.5,0.2-0.7,0.5
			c-0.2,0.4-0.3,1-0.3,1.8c0,0.3,0,0.5,0.1,0.8c0,0.3,0.1,0.4,0.2,0.6s0.2,0.4,0.3,0.4c0.1,0.1,0.3,0.2,0.4,0.2
			c0.4,0,0.5-0.2,0.7-0.6C91.9,65.4,92,64.7,92,63.9z"/>
		<path class="st0" d="M101.9,63.1c0,0.4,0,0.6,0,1c0,0.3,0,0.6,0,0.9s0,0.5,0,0.9c0,0.3,0,0.5,0,0.9c-0.1,0-0.2,0-0.4,0
			c-0.2,0-0.3,0-0.4,0c-0.2,0-0.3,0-0.4,0s-0.3,0-0.3,0s0-0.1,0-0.2s0-0.2,0-0.3s0-0.2,0-0.3s0-0.2,0-0.2l0,0
			c-0.1,0.3-0.3,0.5-0.5,0.7c-0.3,0.2-0.5,0.3-1,0.3c-0.4,0-0.6-0.1-0.9-0.2c-0.3-0.2-0.4-0.4-0.6-0.6c-0.2-0.3-0.3-0.5-0.4-0.9
			c0-0.3,0-0.6,0-1s0.1-0.7,0.2-1.1c0.1-0.4,0.3-0.6,0.4-0.8c0.2-0.3,0.4-0.4,0.6-0.5c0.3-0.1,0.5-0.2,0.8-0.2s0.6,0.1,0.8,0.2
			c0.3,0.2,0.4,0.4,0.5,0.5l0,0c0-0.6,0-1.3,0-1.8s0-1.2-0.1-1.7c0.1,0,0.2,0,0.4,0c0.2,0,0.3,0,0.4,0c0.2,0,0.3,0,0.4,0
			c0.2,0,0.3,0,0.4,0c0,0.3,0,0.5,0,0.9c0,0.3,0,0.5,0,0.9c0,0.3,0,0.6,0,0.9s0,0.6,0,1L101.9,63.1L101.9,63.1z M98.6,64.3
			c0,0.4,0,0.6,0.1,0.9s0.1,0.4,0.2,0.6s0.2,0.3,0.3,0.4c0.1,0.1,0.2,0.1,0.4,0.1s0.3,0,0.4-0.1s0.3-0.2,0.3-0.4
			c0.1-0.2,0.2-0.4,0.2-0.6c0.1-0.3,0.1-0.6,0.1-1c0-0.6-0.1-1.1-0.3-1.4c-0.2-0.3-0.4-0.4-0.6-0.4c-0.1,0-0.2,0-0.4,0.1
			c-0.1,0.1-0.2,0.2-0.3,0.4c-0.1,0.2-0.2,0.4-0.3,0.6C98.7,63.6,98.6,63.9,98.6,64.3z"/>
		<path class="st0" d="M104.5,64.2c0,0.3,0,0.5,0.1,0.8s0.2,0.4,0.3,0.6c0.1,0.2,0.3,0.4,0.4,0.4c0.2,0.1,0.4,0.2,0.6,0.2
			c0.4,0,0.9-0.2,1.3-0.4l0.1,0.1l-0.3,0.6c-0.2,0.1-0.4,0.3-0.6,0.4c-0.3,0.1-0.5,0.2-1,0.2c-0.4,0-0.6-0.1-1-0.2
			c-0.3-0.1-0.5-0.3-0.8-0.4c-0.3-0.2-0.4-0.4-0.5-0.8c-0.2-0.4-0.2-0.7-0.2-1.2s0.1-0.8,0.2-1.2s0.3-0.6,0.5-0.8s0.4-0.4,0.8-0.5
			c0.3-0.1,0.6-0.2,1-0.2c0.7,0,1.2,0.2,1.6,0.6c0.4,0.4,0.5,1,0.5,1.7c0,0.1,0,0.2,0,0.2c0,0.1,0,0.1,0,0.1h-3V64.2z M106.1,63.7
			c0-0.5-0.1-0.9-0.2-1.3c-0.1-0.3-0.3-0.4-0.5-0.4s-0.3,0.1-0.4,0.2c-0.1,0.1-0.2,0.3-0.3,0.4c-0.1,0.2-0.1,0.4-0.2,0.5
			c0,0.2-0.1,0.4-0.1,0.6H106.1z"/>
		<path class="st0" d="M111,63.1c0-0.5,0.1-1,0.3-1.4c0.2-0.4,0.4-0.8,0.8-1.2s0.8-0.6,1.3-0.8c0.4-0.2,1.1-0.3,1.6-0.3
			s1.1,0.1,1.5,0.3s0.9,0.4,1.3,0.7s0.6,0.7,0.8,1.2s0.3,1,0.3,1.6c0,0.5-0.1,1-0.3,1.4c-0.2,0.4-0.4,0.9-0.8,1.2
			c-0.4,0.4-0.8,0.6-1.3,0.8c-0.4,0.2-1,0.3-1.6,0.3c-0.5,0-1.1-0.1-1.5-0.2c-0.4-0.2-0.9-0.4-1.3-0.6c-0.4-0.3-0.6-0.7-0.8-1.2
			C111.2,64.4,111,63.8,111,63.1z M117.3,62.9c0-0.4-0.1-0.9-0.2-1.3s-0.3-0.6-0.4-0.9c-0.2-0.3-0.4-0.4-0.7-0.5
			c-0.3-0.2-0.6-0.2-0.9-0.2c-0.4,0-0.6,0.1-1,0.3c-0.3,0.2-0.5,0.4-0.7,0.7s-0.4,0.6-0.4,1c-0.1,0.4-0.2,0.8-0.2,1.3s0.1,1,0.2,1.4
			c0.1,0.4,0.3,0.7,0.4,0.9c0.2,0.3,0.4,0.4,0.7,0.5c0.3,0.1,0.5,0.2,0.8,0.2s0.6-0.1,0.9-0.2s0.5-0.4,0.7-0.6
			c0.2-0.3,0.4-0.6,0.5-1.1C117.2,64,117.3,63.5,117.3,62.9z"/>
		<path class="st0" d="M121.4,62.9L121.4,62.9c0.2-0.4,0.4-0.8,0.7-1.1s0.5-0.4,0.9-0.4h0.1h0.1c0,0.1,0,0.2-0.1,0.4
			c0,0.1,0,0.3,0,0.4c0,0.1,0,0.2,0,0.4c0,0.1,0,0.3,0,0.4l-0.1,0.1c-0.1,0-0.2-0.1-0.3-0.1c-0.1,0-0.2,0-0.3,0
			c-0.3,0-0.5,0.1-0.7,0.3s-0.3,0.4-0.3,0.7v0.4c0,0.4,0,0.8,0,1.2c0,0.4,0,0.7,0.1,1.1c-0.1,0-0.2,0-0.4,0c-0.2,0-0.3,0-0.4,0
			s-0.3,0-0.4,0s-0.3,0-0.4,0c0-0.4,0.1-0.7,0.1-1.1s0-0.8,0-1.2V64c0-0.4,0-0.8,0-1.2s0-0.7-0.1-1.1c0.1,0,0.3,0,0.4,0s0.3,0,0.4,0
			s0.3,0,0.4,0s0.3,0,0.4,0L121.4,62.9z"/>
		<path class="st0" d="M124,59.7c0-0.3,0.1-0.4,0.3-0.6c0.2-0.2,0.4-0.3,0.6-0.3c0.3,0,0.4,0.1,0.6,0.3s0.3,0.4,0.3,0.6
			s-0.1,0.4-0.3,0.6c-0.2,0.2-0.4,0.3-0.6,0.3c-0.3,0-0.4-0.1-0.6-0.3C124.1,60.2,124,60,124,59.7z M124.2,64c0-0.4,0-0.8,0-1.2
			s0-0.7-0.1-1.1c0.1,0,0.2,0,0.4,0c0.1,0,0.3,0,0.4,0s0.3,0,0.4,0c0.2,0,0.3,0,0.4,0c0,0.4-0.1,0.7-0.1,1.1c0,0.4,0,0.8,0,1.2v0.4
			c0,0.4,0,0.8,0,1.2c0,0.4,0,0.7,0.1,1.1c-0.1,0-0.2,0-0.4,0c-0.2,0-0.3,0-0.4,0s-0.3,0-0.4,0s-0.3,0-0.4,0c0-0.4,0.1-0.7,0.1-1.1
			s0-0.8,0-1.2V64z"/>
		<path class="st0" d="M128.2,64.2c0,0.3,0,0.5,0.1,0.8s0.2,0.4,0.3,0.6s0.3,0.4,0.4,0.4c0.2,0.1,0.4,0.2,0.6,0.2
			c0.4,0,0.9-0.2,1.3-0.4l0.1,0.1l-0.3,0.6c-0.2,0.1-0.4,0.3-0.6,0.4c-0.3,0.1-0.5,0.2-1,0.2c-0.4,0-0.6-0.1-1-0.2
			c-0.3-0.1-0.5-0.3-0.8-0.4c-0.3-0.2-0.4-0.4-0.5-0.8c-0.2-0.4-0.2-0.7-0.2-1.2s0.1-0.8,0.2-1.2s0.3-0.6,0.5-0.8s0.4-0.4,0.8-0.5
			c0.3-0.1,0.6-0.2,1-0.2c0.7,0,1.2,0.2,1.6,0.6c0.4,0.4,0.5,1,0.5,1.7c0,0.1,0,0.2,0,0.2c0,0.1,0,0.1,0,0.1h-3L128.2,64.2
			L128.2,64.2z M129.8,63.7c0-0.5-0.1-0.9-0.2-1.3c-0.1-0.3-0.3-0.4-0.5-0.4s-0.3,0.1-0.4,0.2c-0.1,0.1-0.2,0.3-0.3,0.4
			c-0.1,0.2-0.1,0.4-0.2,0.5c0,0.2-0.1,0.4-0.1,0.6H129.8z"/>
		<path class="st0" d="M133.5,62.5L133.5,62.5c0.2-0.3,0.4-0.5,0.7-0.6c0.3-0.2,0.5-0.3,0.9-0.3c0.5,0,0.9,0.2,1.2,0.4
			s0.4,0.8,0.4,1.4c0,0.4,0,0.6,0,0.9s0,0.5,0,0.8c0,0.2,0,0.4,0,0.7s0,0.5,0,0.8c-0.1,0-0.2,0-0.4,0s-0.3,0-0.4,0s-0.3,0-0.4,0
			c-0.2,0-0.3,0-0.4,0c0.1-0.4,0.1-0.8,0.1-1.3s0-1.1,0-1.7c0-0.4-0.1-0.7-0.2-1c-0.2-0.2-0.4-0.3-0.6-0.3s-0.5,0.2-0.7,0.4
			c-0.2,0.3-0.2,0.6-0.2,1.2v0.4c0,0.4,0,0.8,0,1.2c0,0.4,0,0.7,0.1,1.1c-0.1,0-0.2,0-0.4,0s-0.3,0-0.4,0s-0.3,0-0.4,0
			c-0.1,0-0.3,0-0.4,0c0-0.4,0.1-0.7,0.1-1.1s0-0.8,0-1.2V64c0-0.4,0-0.8,0-1.2s0-0.7-0.1-1.1c0.1,0,0.3,0,0.4,0s0.3,0,0.4,0
			s0.3,0,0.4,0c0.1,0,0.3,0,0.4,0L133.5,62.5z"/>
		<path class="st0" d="M140.6,61.8c0,0.1,0,0.2,0,0.3s0,0.2,0,0.3h-0.9c0,0.2,0,0.4,0,0.5c0,0.2,0,0.4,0,0.6c0,0.2,0,0.4,0,0.6
			c0,0.2,0,0.4,0,0.5c0,0.4,0,0.6,0,0.9c0,0.2,0.1,0.4,0.1,0.5s0.1,0.2,0.2,0.3c0.1,0,0.2,0.1,0.3,0.1s0.3,0,0.3,0
			c0.1,0,0.1,0,0.2-0.1v0.4c-0.2,0.1-0.3,0.2-0.5,0.2c-0.2,0.1-0.4,0.1-0.6,0.1c-0.4,0-0.8-0.2-1-0.4c-0.2-0.3-0.4-0.7-0.4-1.2
			c0-0.2,0-0.4,0-0.7s0-0.5,0-0.8s0-0.5,0-0.8s0-0.5,0-0.7h-0.7c0-0.1,0-0.2,0-0.3s0-0.2,0-0.3h0.7c0-0.2,0-0.4,0-0.6
			c0-0.2,0-0.4,0-0.7c0.3-0.1,0.4-0.2,0.7-0.3s0.4-0.2,0.7-0.4l0.1,0.1c0,0.1,0,0.3,0,0.4c0,0.2,0,0.3,0,0.4c0,0.2,0,0.4,0,0.5
			s0,0.4,0,0.4L140.6,61.8z"/>
		<path class="st0" d="M141.4,62.3c0.3-0.3,0.6-0.4,0.9-0.5c0.4-0.1,0.7-0.2,1-0.2s0.5,0,0.8,0.1s0.4,0.2,0.6,0.3
			c0.2,0.2,0.3,0.3,0.4,0.5c0.1,0.2,0.2,0.4,0.2,0.8c0,0.4,0,0.9,0,1.3s0,0.7,0,1.2c0,0.2,0,0.3,0,0.4s0.1,0.2,0.1,0.2
			c0.1,0.1,0.1,0.1,0.2,0.1c0.1,0,0.2,0,0.3,0v0.3c-0.2,0.1-0.4,0.2-0.5,0.2c-0.2,0-0.3,0.1-0.4,0.1c-0.3,0-0.4-0.1-0.6-0.2
			c-0.2-0.2-0.3-0.4-0.4-0.5c-0.2,0.2-0.4,0.4-0.5,0.5c-0.2,0.2-0.4,0.2-0.8,0.2c-0.3,0-0.4,0-0.7-0.1c-0.2-0.1-0.4-0.2-0.4-0.3
			c-0.1-0.1-0.2-0.3-0.3-0.4c-0.1-0.2-0.1-0.4-0.1-0.5c0-0.3,0-0.4,0.1-0.6s0.2-0.3,0.3-0.4c0.2-0.1,0.3-0.2,0.4-0.3
			c0.2-0.1,0.4-0.2,0.6-0.2c0.3-0.1,0.5-0.1,0.7-0.2s0.3-0.1,0.4-0.2s0.2-0.1,0.2-0.2c0-0.1,0-0.2,0-0.3c0-0.3-0.1-0.4-0.3-0.6
			c-0.2-0.2-0.4-0.3-0.7-0.3c-0.1,0-0.3,0-0.4,0.1c-0.1,0-0.3,0.1-0.4,0.1c-0.1,0.1-0.2,0.1-0.3,0.2c-0.1,0.1-0.2,0.2-0.2,0.2h-0.1
			L141.4,62.3z M143.8,65.1c0-0.3,0-0.5,0-0.7s0-0.3,0-0.4c-0.2,0.1-0.3,0.2-0.4,0.2c-0.2,0.1-0.3,0.1-0.4,0.2
			c-0.2,0.1-0.3,0.2-0.4,0.4s-0.1,0.4-0.1,0.6c0,0.3,0.1,0.4,0.2,0.6c0.1,0.2,0.3,0.2,0.4,0.2c0.3,0,0.4-0.1,0.5-0.3
			C143.8,65.7,143.8,65.4,143.8,65.1z"/>
		<path class="st0" d="M147.8,68.3c0.1,0,0.2,0.1,0.3,0.1s0.2,0.1,0.4,0.1s0.4,0,0.4-0.1c0.1-0.1,0.2-0.2,0.2-0.4
			c0-0.3-0.2-0.4-0.4-0.4c-0.1,0-0.2,0-0.3,0l-0.1-0.1l0.4-0.8c-0.4-0.1-0.7-0.2-1-0.4c-0.3-0.2-0.4-0.4-0.6-0.6
			c-0.2-0.3-0.3-0.5-0.4-0.8s-0.1-0.5-0.1-0.8c0-0.4,0.1-0.7,0.2-1.1c0.1-0.4,0.3-0.6,0.5-0.8c0.3-0.3,0.5-0.4,0.9-0.5
			c0.4-0.2,0.7-0.2,1.2-0.2c0.4,0,0.7,0.1,1,0.2c0.3,0.1,0.5,0.2,0.8,0.4c-0.1,0.2-0.2,0.3-0.3,0.5s-0.1,0.4-0.2,0.5h-0.4
			c-0.1-0.3-0.2-0.5-0.4-0.7s-0.4-0.3-0.7-0.3c-0.4,0-0.7,0.2-0.9,0.5c-0.2,0.4-0.4,0.9-0.4,1.6c0,0.6,0.1,1.1,0.4,1.4
			c0.3,0.4,0.6,0.5,1.2,0.5c0.2,0,0.4-0.1,0.6-0.2c0.2-0.1,0.4-0.2,0.4-0.4l0.1,0.1c-0.1,0.1-0.1,0.2-0.1,0.3s-0.1,0.2-0.1,0.3
			c-0.2,0.1-0.4,0.2-0.5,0.3c-0.3,0.1-0.5,0.2-0.8,0.2H149h0l-0.2,0.4c0.1,0,0.1,0,0.2,0c0.1,0,0.1,0,0.2,0c0.4,0,0.5,0.1,0.7,0.2
			c0.2,0.2,0.2,0.4,0.2,0.5c0,0.3-0.1,0.5-0.4,0.6c-0.3,0.2-0.6,0.3-1.1,0.3c-0.1,0-0.2,0-0.3,0s-0.2,0-0.3-0.1
			c-0.1,0-0.2,0-0.3-0.1c-0.1,0-0.1,0-0.2-0.1L147.8,68.3z"/>
		<path class="st0" d="M151.8,62.3c0.3-0.3,0.6-0.4,0.9-0.5c0.4-0.1,0.7-0.2,1-0.2s0.5,0,0.8,0.1s0.4,0.2,0.6,0.3
			c0.2,0.2,0.3,0.3,0.4,0.5c0.1,0.2,0.2,0.4,0.2,0.8c0,0.4,0,0.9,0,1.3s0,0.7,0,1.2c0,0.2,0,0.3,0,0.4s0.1,0.2,0.1,0.2
			c0.1,0.1,0.1,0.1,0.2,0.1c0.1,0,0.2,0,0.3,0v0.3c-0.2,0.1-0.4,0.2-0.5,0.2c-0.2,0-0.3,0.1-0.4,0.1c-0.3,0-0.4-0.1-0.6-0.2
			c-0.2-0.2-0.3-0.4-0.4-0.5c-0.2,0.2-0.4,0.4-0.5,0.5c-0.2,0.2-0.4,0.2-0.8,0.2c-0.3,0-0.4,0-0.7-0.1c-0.2-0.1-0.4-0.2-0.4-0.3
			c-0.1-0.1-0.2-0.3-0.3-0.4c-0.1-0.2-0.1-0.4-0.1-0.5c0-0.3,0-0.4,0.1-0.6s0.2-0.3,0.3-0.4c0.2-0.1,0.3-0.2,0.4-0.3
			c0.2-0.1,0.4-0.2,0.6-0.2c0.3-0.1,0.5-0.1,0.7-0.2s0.3-0.1,0.4-0.2s0.2-0.1,0.2-0.2c0-0.1,0-0.2,0-0.3c0-0.3-0.1-0.4-0.3-0.6
			c-0.2-0.2-0.4-0.3-0.7-0.3c-0.1,0-0.3,0-0.4,0.1c-0.1,0-0.3,0.1-0.4,0.1c-0.1,0.1-0.2,0.1-0.3,0.2c-0.1,0.1-0.2,0.2-0.2,0.2h-0.1
			L151.8,62.3z M151.9,60.6c0-0.2,0.1-0.4,0.1-0.5c0.1-0.2,0.2-0.3,0.3-0.4c0.1-0.1,0.2-0.2,0.4-0.3s0.3-0.1,0.5-0.1s0.3,0,0.4,0.1
			c0.2,0.1,0.3,0.1,0.4,0.2c0.1,0.1,0.3,0.1,0.4,0.2s0.3,0.1,0.4,0.1s0.2,0,0.3-0.1s0.2-0.2,0.3-0.4h0.4c0,0.2-0.1,0.4-0.1,0.5
			c-0.1,0.2-0.2,0.3-0.3,0.4c-0.1,0.1-0.2,0.2-0.4,0.3s-0.3,0.1-0.5,0.1s-0.3,0-0.4-0.1c-0.2-0.1-0.3-0.1-0.4-0.2
			c-0.1-0.1-0.3-0.1-0.4-0.2c-0.1-0.1-0.3-0.1-0.4-0.1c-0.1,0-0.2,0-0.3,0.1s-0.2,0.2-0.3,0.4H151.9z M154.3,65.1c0-0.3,0-0.5,0-0.7
			s0-0.3,0-0.4c-0.2,0.1-0.3,0.2-0.4,0.2c-0.2,0.1-0.3,0.1-0.4,0.2s-0.3,0.2-0.4,0.4c-0.1,0.2-0.1,0.4-0.1,0.6
			c0,0.3,0.1,0.4,0.2,0.6c0.1,0.2,0.3,0.2,0.4,0.2c0.3,0,0.4-0.1,0.5-0.3C154.2,65.7,154.3,65.4,154.3,65.1z"/>
		<path class="st0" d="M156.7,64.4c0-0.4,0.1-0.9,0.2-1.3c0.2-0.4,0.4-0.6,0.5-0.9c0.3-0.3,0.5-0.4,0.8-0.5s0.6-0.2,1-0.2
			s0.7,0.1,1.1,0.2c0.4,0.1,0.6,0.3,0.8,0.5s0.4,0.4,0.5,0.8c0.1,0.4,0.2,0.6,0.2,1.1c0,0.4-0.1,0.8-0.2,1.2
			c-0.1,0.4-0.3,0.6-0.5,0.9c-0.3,0.3-0.5,0.4-0.8,0.5s-0.6,0.2-1.1,0.2c-0.3,0-0.6-0.1-0.9-0.2c-0.3-0.1-0.5-0.3-0.8-0.4
			c-0.3-0.2-0.4-0.4-0.6-0.8C156.8,65.2,156.7,64.8,156.7,64.4z M160.3,63.9c0-0.6-0.1-1.1-0.3-1.4c-0.2-0.4-0.4-0.5-0.7-0.5
			c-0.4,0-0.5,0.2-0.7,0.5c-0.2,0.4-0.3,1-0.3,1.8c0,0.3,0,0.5,0.1,0.8c0,0.3,0.1,0.4,0.2,0.6c0.1,0.2,0.2,0.4,0.3,0.4
			c0.1,0.1,0.3,0.2,0.4,0.2c0.4,0,0.5-0.2,0.7-0.6C160.2,65.4,160.3,64.7,160.3,63.9z"/>
		<path class="st0" d="M46.1,75.7c0,0.4,0,0.6,0,1c0,0.3,0,0.6,0,0.9s0,0.5,0,0.9c0,0.3,0,0.5,0,0.9c-0.1,0-0.2,0-0.4,0
			s-0.3,0-0.4,0c-0.2,0-0.3,0-0.4,0c-0.1,0-0.3,0-0.3,0s0-0.1,0-0.2s0-0.2,0-0.3s0-0.2,0-0.3s0-0.2,0-0.2l0,0
			c-0.1,0.3-0.3,0.5-0.5,0.7c-0.3,0.2-0.5,0.3-1,0.3c-0.4,0-0.6-0.1-0.9-0.2c-0.3-0.2-0.4-0.4-0.6-0.6c-0.2-0.3-0.3-0.5-0.4-0.9
			c-0.1-0.4-0.1-0.7-0.1-1.1s0.1-0.7,0.2-1.1c0.1-0.4,0.3-0.6,0.4-0.8c0.2-0.3,0.4-0.4,0.6-0.5c0.3-0.1,0.5-0.2,0.8-0.2
			s0.6,0.1,0.8,0.2c0.3,0.2,0.4,0.4,0.5,0.5l0,0c0-0.6,0-1.3,0-1.8s0-1.2-0.1-1.7c0.1,0,0.2,0,0.4,0s0.3,0,0.4,0c0.2,0,0.3,0,0.4,0
			c0.2,0,0.3,0,0.4,0c0,0.3,0,0.5,0,0.9c0,0.3,0,0.5,0,0.9c0,0.3,0,0.6,0,0.9s0,0.6,0,1C46.1,74.9,46.1,75.7,46.1,75.7z M42.8,76.8
			c0,0.4,0,0.6,0.1,0.9s0.1,0.4,0.2,0.6c0.1,0.2,0.2,0.3,0.3,0.4s0.2,0.1,0.4,0.1s0.3,0,0.4-0.1c0.1-0.1,0.3-0.2,0.3-0.4
			c0.1-0.2,0.2-0.4,0.2-0.6c0.1-0.3,0.1-0.6,0.1-1c0-0.6-0.1-1.1-0.3-1.4s-0.4-0.4-0.6-0.4c-0.1,0-0.2,0-0.4,0.1
			c-0.1,0.1-0.2,0.2-0.3,0.4c-0.1,0.2-0.2,0.4-0.3,0.6C42.9,76.1,42.8,76.4,42.8,76.8z"/>
		<path class="st0" d="M47.4,74.8c0.3-0.3,0.6-0.4,0.9-0.5c0.4-0.1,0.7-0.2,1-0.2s0.5,0,0.8,0.1s0.4,0.2,0.6,0.3
			c0.2,0.2,0.3,0.3,0.4,0.5c0.1,0.2,0.2,0.4,0.2,0.8s0,0.9,0,1.3s0,0.7,0,1.2c0,0.2,0,0.3,0,0.4s0.1,0.2,0.1,0.2
			c0.1,0.1,0.1,0.1,0.2,0.1c0.1,0,0.2,0,0.3,0v0.3c-0.2,0.1-0.4,0.2-0.5,0.2c-0.2,0-0.3,0.1-0.4,0.1c-0.3,0-0.4-0.1-0.6-0.2
			c-0.2-0.2-0.3-0.4-0.4-0.5c-0.2,0.2-0.4,0.4-0.5,0.5c-0.2,0.2-0.4,0.2-0.8,0.2c-0.3,0-0.4,0-0.7-0.1c-0.2-0.1-0.4-0.2-0.4-0.3
			c-0.1-0.1-0.2-0.3-0.3-0.4c-0.1-0.2-0.1-0.4-0.1-0.5c0-0.3,0-0.4,0.1-0.6s0.2-0.3,0.3-0.4c0.2-0.1,0.3-0.2,0.4-0.3
			c0.2-0.1,0.4-0.2,0.6-0.2c0.3-0.1,0.5-0.1,0.7-0.2s0.3-0.1,0.4-0.2c0.1-0.1,0.2-0.1,0.2-0.2s0-0.2,0-0.3c0-0.3-0.1-0.4-0.3-0.6
			S49.2,75,48.9,75c-0.1,0-0.3,0-0.4,0.1c-0.1,0-0.3,0.1-0.4,0.1c-0.1,0.1-0.2,0.1-0.3,0.2s-0.2,0.2-0.2,0.2h-0.1L47.4,74.8z
			 M49.9,77.6c0-0.3,0-0.5,0-0.7s0-0.3,0-0.4c-0.2,0.1-0.3,0.2-0.4,0.2c-0.2,0.1-0.3,0.1-0.4,0.2c-0.2,0.1-0.3,0.2-0.4,0.4
			c-0.1,0.2-0.1,0.4-0.1,0.6c0,0.3,0.1,0.4,0.2,0.6c0.1,0.2,0.3,0.2,0.4,0.2c0.3,0,0.4-0.1,0.5-0.3C49.8,78.2,49.9,78,49.9,77.6z"/>
		<path class="st0" d="M61.8,73.6c-0.2-0.3-0.5-0.5-0.8-0.7c-0.4-0.2-0.7-0.3-1.3-0.3c-0.4,0-0.6,0.1-1,0.2
			c-0.3,0.2-0.6,0.4-0.8,0.6c-0.3,0.3-0.4,0.6-0.6,1c-0.2,0.4-0.3,0.9-0.3,1.4c0,0.4,0.1,0.8,0.2,1.2s0.3,0.6,0.5,0.9
			s0.4,0.4,0.8,0.6c0.3,0.2,0.6,0.2,1.1,0.2c0.1,0,0.2,0,0.3,0s0.2,0,0.4,0c0.1,0,0.2,0,0.3-0.1c0.1,0,0.2-0.1,0.2-0.1
			c0-0.1,0-0.2,0-0.3c0-0.1,0-0.3,0-0.4c0-0.5,0-1,0-1.3s0-0.4,0-0.5c0.1,0,0.2,0,0.3,0s0.3,0,0.5,0s0.4,0,0.5,0s0.2,0,0.3,0
			c0,0.1,0,0.2,0,0.3c0,0.1,0,0.3,0,0.4c0,0.2,0,0.4,0,0.5s0,0.4,0,0.5s0,0.3,0,0.4s0,0.3,0,0.4s0,0.2,0,0.3s0,0.2,0,0.2
			c-0.4,0.1-0.9,0.3-1.4,0.4c-0.4,0.1-0.9,0.1-1.4,0.1c-0.6,0-1.2-0.1-1.6-0.3c-0.5-0.2-0.9-0.4-1.3-0.7c-0.4-0.3-0.6-0.6-0.9-1.1
			c-0.2-0.4-0.3-0.9-0.3-1.4c0-0.6,0.1-1.3,0.4-1.7c0.2-0.5,0.5-0.9,0.9-1.3s0.8-0.5,1.3-0.7s1.1-0.3,1.7-0.3c0.5,0,1,0.1,1.3,0.2
			s0.8,0.3,1.2,0.4c-0.1,0.2-0.1,0.4-0.2,0.5S61.9,73.5,61.8,73.6L61.8,73.6L61.8,73.6z"/>
		<path class="st0" d="M64.9,76.7c0,0.3,0,0.5,0.1,0.8s0.2,0.4,0.3,0.6c0.1,0.2,0.3,0.4,0.4,0.4c0.2,0.1,0.4,0.2,0.6,0.2
			c0.4,0,0.9-0.2,1.3-0.4l0.1,0.1L67.4,79c-0.2,0.1-0.4,0.3-0.6,0.4c-0.3,0.1-0.5,0.2-1,0.2c-0.4,0-0.6-0.1-1-0.2
			c-0.3-0.1-0.5-0.3-0.8-0.4c-0.3-0.2-0.4-0.4-0.5-0.8c-0.2-0.4-0.2-0.7-0.2-1.2s0.1-0.8,0.2-1.2c0.1-0.4,0.3-0.6,0.5-0.8
			c0.2-0.2,0.4-0.4,0.8-0.5c0.3-0.1,0.6-0.2,1-0.2c0.7,0,1.2,0.2,1.6,0.6s0.5,1,0.5,1.7c0,0.1,0,0.2,0,0.2c0,0.1,0,0.1,0,0.1h-3
			V76.7z M65.6,72.3l-1.2,1h-0.6l1.3-1.9h1l1.3,1.9h-0.6L65.6,72.3z M66.5,76.2c0-0.5-0.1-0.9-0.2-1.3c-0.1-0.3-0.3-0.4-0.5-0.4
			s-0.3,0.1-0.4,0.2s-0.2,0.3-0.3,0.4c-0.1,0.2-0.1,0.4-0.2,0.5c0,0.2-0.1,0.4-0.1,0.6C64.9,76.2,66.5,76.2,66.5,76.2z"/>
		<path class="st0" d="M70.3,74.9L70.3,74.9c0.2-0.3,0.4-0.5,0.7-0.6c0.3-0.2,0.5-0.3,0.9-0.3c0.5,0,0.9,0.2,1.2,0.4
			c0.3,0.3,0.4,0.8,0.4,1.4c0,0.4,0,0.6,0,0.9s0,0.5,0,0.8c0,0.2,0,0.4,0,0.7s0,0.5,0,0.8c-0.1,0-0.2,0-0.4,0c-0.2,0-0.3,0-0.4,0
			s-0.3,0-0.4,0c-0.2,0-0.3,0-0.4,0c0.1-0.4,0.1-0.8,0.1-1.3s0-1.1,0-1.7c0-0.4-0.1-0.7-0.3-1c-0.2-0.2-0.4-0.3-0.6-0.3
			c-0.3,0-0.5,0.2-0.7,0.4c-0.2,0.3-0.2,0.6-0.2,1.2v0.4c0,0.4,0,0.8,0,1.2c0,0.4,0,0.7,0.1,1.1c-0.1,0-0.2,0-0.4,0s-0.3,0-0.4,0
			c-0.2,0-0.3,0-0.4,0s-0.3,0-0.4,0c0-0.4,0.1-0.7,0.1-1.1s0-0.8,0-1.2v-0.4c0-0.4,0-0.8,0-1.2c0-0.4,0-0.7-0.1-1.1
			c0.1,0,0.3,0,0.4,0s0.3,0,0.4,0s0.3,0,0.4,0s0.3,0,0.4,0L70.3,74.9z"/>
		<path class="st0" d="M76,76.7c0,0.3,0,0.5,0.1,0.8s0.2,0.4,0.3,0.6c0.1,0.2,0.3,0.4,0.4,0.4c0.2,0.1,0.4,0.2,0.6,0.2
			c0.4,0,0.9-0.2,1.3-0.4l0.1,0.1L78.5,79c-0.2,0.1-0.4,0.3-0.6,0.4c-0.3,0.1-0.5,0.2-1,0.2c-0.4,0-0.6-0.1-1-0.2
			c-0.3-0.1-0.5-0.3-0.8-0.4c-0.3-0.2-0.4-0.4-0.5-0.8c-0.2-0.4-0.2-0.7-0.2-1.2s0.1-0.8,0.2-1.2c0.1-0.4,0.3-0.6,0.5-0.8
			c0.2-0.2,0.4-0.4,0.8-0.5c0.3-0.1,0.6-0.2,1-0.2c0.7,0,1.2,0.2,1.6,0.6s0.5,1,0.5,1.7c0,0.1,0,0.2,0,0.2c0,0.1,0,0.1,0,0.1h-3
			V76.7z M77.6,76.2c0-0.5-0.1-0.9-0.2-1.3c-0.1-0.3-0.3-0.4-0.5-0.4s-0.3,0.1-0.4,0.2s-0.2,0.3-0.3,0.4c-0.1,0.2-0.1,0.4-0.2,0.5
			c0,0.2-0.1,0.4-0.1,0.6C76,76.2,77.6,76.2,77.6,76.2z"/>
		<path class="st0" d="M80.1,77.9c0,0.1,0.1,0.2,0.2,0.4c0.1,0.1,0.2,0.2,0.3,0.3c0.1,0.1,0.2,0.2,0.4,0.2c0.2,0.1,0.3,0.1,0.4,0.1
			c0.3,0,0.4-0.1,0.5-0.2s0.2-0.3,0.2-0.4c0-0.2-0.1-0.3-0.2-0.4s-0.3-0.2-0.4-0.3c-0.2-0.1-0.4-0.2-0.5-0.3
			c-0.2-0.1-0.4-0.2-0.5-0.4c-0.2-0.1-0.4-0.3-0.4-0.4c-0.1-0.2-0.2-0.4-0.2-0.7s0.1-0.5,0.2-0.7s0.3-0.4,0.4-0.5
			c0.2-0.2,0.4-0.3,0.6-0.3c0.2-0.1,0.4-0.1,0.6-0.1c0.3,0,0.5,0,0.8,0.1s0.4,0.2,0.7,0.4C83,74.8,83,74.9,82.9,75
			c0,0.2-0.1,0.4-0.1,0.4h-0.3c0-0.1-0.1-0.2-0.1-0.3c-0.1-0.1-0.1-0.2-0.2-0.3c-0.1-0.1-0.2-0.2-0.3-0.2c-0.1-0.1-0.3-0.1-0.4-0.1
			s-0.4,0.1-0.5,0.2c-0.2,0.1-0.2,0.3-0.2,0.4c0,0.2,0.1,0.3,0.2,0.4s0.3,0.2,0.4,0.3c0.2,0.1,0.4,0.2,0.6,0.3
			c0.2,0.1,0.4,0.2,0.6,0.3c0.2,0.1,0.4,0.3,0.4,0.4c0.1,0.2,0.2,0.4,0.2,0.7c0,0.3-0.1,0.5-0.2,0.8c-0.1,0.2-0.3,0.4-0.4,0.5
			c-0.2,0.2-0.4,0.3-0.6,0.4c-0.3,0.1-0.5,0.1-0.7,0.1c-0.3,0-0.6-0.1-0.8-0.2c-0.3-0.1-0.4-0.2-0.6-0.3
			C80.1,78.6,80.2,78.3,80.1,77.9L80.1,77.9L80.1,77.9z"/>
		<path class="st0" d="M85.4,76.7c0,0.3,0,0.5,0.1,0.8s0.2,0.4,0.3,0.6c0.1,0.2,0.3,0.4,0.4,0.4c0.2,0.1,0.4,0.2,0.6,0.2
			c0.4,0,0.9-0.2,1.3-0.4l0.1,0.1L87.9,79c-0.2,0.1-0.4,0.3-0.6,0.4c-0.3,0.1-0.5,0.2-1,0.2c-0.4,0-0.6-0.1-1-0.2
			c-0.3-0.1-0.5-0.3-0.8-0.4c-0.3-0.2-0.4-0.4-0.5-0.8c-0.2-0.4-0.2-0.7-0.2-1.2s0.1-0.8,0.2-1.2c0.1-0.4,0.3-0.6,0.5-0.8
			c0.2-0.2,0.4-0.4,0.8-0.5c0.3-0.1,0.6-0.2,1-0.2c0.7,0,1.2,0.2,1.6,0.6s0.5,1,0.5,1.7c0,0.1,0,0.2,0,0.2c0,0.1,0,0.1,0,0.1h-3
			V76.7z M87,76.2c0-0.5-0.1-0.9-0.2-1.3c-0.1-0.3-0.3-0.4-0.5-0.4s-0.3,0.1-0.4,0.2s-0.2,0.3-0.3,0.4c-0.1,0.2-0.1,0.4-0.2,0.5
			c0,0.2-0.1,0.4-0.1,0.6C85.4,76.2,87,76.2,87,76.2z"/>
		<path class="st0" d="M92,75.7c0-0.5,0.1-1,0.3-1.4c0.2-0.4,0.4-0.8,0.8-1.2s0.8-0.6,1.3-0.8c0.4-0.2,1.1-0.3,1.6-0.3
			s1.1,0.1,1.5,0.3c0.4,0.2,0.9,0.4,1.3,0.7c0.4,0.3,0.6,0.7,0.8,1.2s0.3,1,0.3,1.6c0,0.5-0.1,1-0.3,1.4c-0.2,0.4-0.4,0.9-0.8,1.2
			c-0.4,0.4-0.8,0.6-1.3,0.8c-0.4,0.2-1,0.3-1.6,0.3c-0.5,0-1.1-0.1-1.5-0.2c-0.4-0.2-0.9-0.4-1.3-0.6s-0.6-0.7-0.8-1.2
			C92.1,76.8,92,76.3,92,75.7z M98.2,75.4c0-0.4-0.1-0.9-0.2-1.3s-0.3-0.6-0.4-0.9c-0.2-0.3-0.4-0.4-0.7-0.5
			c-0.3-0.2-0.5-0.2-0.9-0.2s-0.6,0.1-1,0.3c-0.3,0.2-0.5,0.4-0.7,0.7c-0.2,0.3-0.4,0.6-0.4,1c-0.1,0.4-0.2,0.8-0.2,1.3
			s0.1,1,0.2,1.4s0.3,0.7,0.4,0.9c0.2,0.3,0.4,0.4,0.7,0.5c0.3,0.1,0.5,0.2,0.8,0.2s0.6-0.1,0.9-0.2s0.5-0.4,0.7-0.6
			c0.2-0.3,0.4-0.6,0.5-1.1C98.2,76.5,98.2,75.9,98.2,75.4z"/>
		<path class="st0" d="M102.3,75.5L102.3,75.5c0.2-0.4,0.4-0.8,0.7-1.1c0.3-0.3,0.5-0.4,0.9-0.4h0.1h0.1c0,0.1,0,0.2-0.1,0.4
			c0,0.1,0,0.3,0,0.4s0,0.2,0,0.4c0,0.2,0,0.3,0,0.4l-0.1,0.1c-0.1,0-0.2-0.1-0.3-0.1s-0.2,0-0.3,0c-0.3,0-0.5,0.1-0.7,0.3
			c-0.2,0.2-0.3,0.4-0.3,0.7V77c0,0.4,0,0.8,0,1.2c0,0.4,0,0.7,0.1,1.1c-0.1,0-0.2,0-0.4,0s-0.3,0-0.4,0c-0.2,0-0.3,0-0.4,0
			s-0.3,0-0.4,0c0-0.4,0.1-0.7,0.1-1.1s0-0.8,0-1.2v-0.4c0-0.4,0-0.8,0-1.2s0-0.7-0.1-1.1c0.1,0,0.3,0,0.4,0s0.3,0,0.4,0
			s0.3,0,0.4,0s0.3,0,0.4,0L102.3,75.5z"/>
		<path class="st0" d="M108.5,74.6L108.5,74.6c0.2,0.2,0.3,0.3,0.4,0.5s0.2,0.4,0.2,0.7s-0.1,0.4-0.2,0.7c-0.1,0.2-0.3,0.4-0.4,0.5
			c-0.2,0.2-0.4,0.3-0.6,0.4c-0.3,0.1-0.5,0.1-0.8,0.1c-0.1,0-0.2,0-0.2,0c-0.1,0-0.2,0-0.3,0c-0.1,0-0.2,0-0.2,0.1
			c-0.1,0.1-0.1,0.2-0.1,0.3c0,0.2,0.1,0.3,0.2,0.4s0.4,0.2,0.6,0.2h0.8c0.5,0,1,0.1,1.3,0.4c0.3,0.2,0.4,0.5,0.4,1.1
			c0,0.4-0.1,0.8-0.3,1.1c-0.2,0.3-0.4,0.5-0.6,0.7c-0.3,0.2-0.5,0.3-0.9,0.4s-0.6,0.1-1,0.1c-0.6,0-1.2-0.1-1.5-0.4s-0.5-0.6-0.5-1
			s0.1-0.6,0.3-0.8s0.4-0.4,0.7-0.4l0,0c-0.2-0.1-0.4-0.2-0.4-0.3c-0.1-0.1-0.2-0.3-0.2-0.4c0-0.3,0.1-0.4,0.3-0.6
			c0.2-0.2,0.4-0.4,0.7-0.4l0,0c-0.4-0.1-0.7-0.3-1-0.5c-0.3-0.3-0.4-0.6-0.4-1.1c0-0.3,0.1-0.5,0.2-0.7s0.3-0.4,0.4-0.5
			c0.2-0.2,0.4-0.3,0.7-0.4c0.3-0.1,0.5-0.1,0.9-0.1c0.1,0,0.3,0,0.4,0s0.3,0,0.4,0s0.2,0,0.3,0C108.2,74.7,108.3,74.7,108.5,74.6
			c0.1,0.1,0.3,0.1,0.4,0.1c0.2,0,0.4,0,0.5,0v0.1v0.1V75v0.1L108.5,74.6z M108.3,80.3c0-0.2,0-0.4-0.1-0.5s-0.2-0.3-0.3-0.3
			c-0.1-0.1-0.3-0.1-0.4-0.2c-0.2,0-0.4,0-0.6,0c-0.4,0-0.6,0-0.7,0.1c-0.1,0-0.2,0.2-0.3,0.3c-0.1,0.2-0.2,0.4-0.2,0.6
			s0,0.4,0.1,0.5c0.1,0.2,0.2,0.3,0.3,0.4c0.1,0.1,0.3,0.2,0.4,0.2c0.2,0.1,0.4,0.1,0.5,0.1c0.2,0,0.4,0,0.5-0.1
			c0.2-0.1,0.3-0.2,0.4-0.3c0.1-0.1,0.2-0.3,0.3-0.4C108.3,80.7,108.3,80.5,108.3,80.3z M107,74.5c-0.4,0-0.7,0.4-0.7,1.3
			c0,0.3,0,0.4,0.1,0.5c0,0.2,0.1,0.3,0.2,0.4s0.2,0.2,0.2,0.2c0.1,0,0.2,0.1,0.3,0.1c0.3,0,0.4-0.1,0.5-0.3c0.1-0.2,0.2-0.5,0.2-1
			s-0.1-0.8-0.2-1C107.3,74.6,107.1,74.5,107,74.5z"/>
		<path class="st0" d="M110.3,74.8c0.3-0.3,0.6-0.4,0.9-0.5c0.4-0.1,0.7-0.2,1-0.2s0.5,0,0.8,0.1s0.4,0.2,0.6,0.3
			c0.2,0.2,0.3,0.3,0.4,0.5s0.2,0.4,0.2,0.8s0,0.9,0,1.3s0,0.7,0,1.2c0,0.2,0,0.3,0,0.4s0.1,0.2,0.1,0.2c0.1,0.1,0.1,0.1,0.2,0.1
			s0.2,0,0.3,0v0.3c-0.2,0.1-0.4,0.2-0.5,0.2c-0.2,0-0.3,0.1-0.4,0.1c-0.3,0-0.4-0.1-0.6-0.2c-0.2-0.2-0.3-0.4-0.4-0.5
			c-0.2,0.2-0.4,0.4-0.5,0.5c-0.2,0.2-0.4,0.2-0.8,0.2c-0.3,0-0.4,0-0.7-0.1c-0.2-0.1-0.4-0.2-0.4-0.3c-0.1-0.1-0.2-0.3-0.3-0.4
			s-0.1-0.4-0.1-0.5c0-0.3,0-0.4,0.1-0.6s0.2-0.3,0.3-0.4c0.2-0.1,0.3-0.2,0.4-0.3c0.2-0.1,0.4-0.2,0.6-0.2c0.3-0.1,0.5-0.1,0.7-0.2
			s0.3-0.1,0.4-0.2s0.2-0.1,0.2-0.2s0-0.2,0-0.3c0-0.3-0.1-0.4-0.3-0.6c-0.2-0.2-0.4-0.3-0.7-0.3c-0.1,0-0.3,0-0.4,0.1
			c-0.1,0-0.3,0.1-0.4,0.1c-0.1,0.1-0.2,0.1-0.3,0.2c-0.1,0.1-0.2,0.2-0.2,0.2h-0.1L110.3,74.8z M112.7,77.6c0-0.3,0-0.5,0-0.7
			s0-0.3,0-0.4c-0.2,0.1-0.3,0.2-0.4,0.2c-0.2,0.1-0.3,0.1-0.4,0.2c-0.2,0.1-0.3,0.2-0.4,0.4c-0.1,0.2-0.1,0.4-0.1,0.6
			c0,0.3,0.1,0.4,0.2,0.6s0.3,0.2,0.4,0.2c0.3,0,0.4-0.1,0.5-0.3C112.6,78.2,112.7,78,112.7,77.6z"/>
		<path class="st0" d="M116.9,74.9L116.9,74.9c0.2-0.3,0.4-0.5,0.7-0.6c0.3-0.2,0.5-0.3,0.9-0.3c0.5,0,0.9,0.2,1.2,0.4
			c0.3,0.3,0.4,0.8,0.4,1.4c0,0.4,0,0.6,0,0.9s0,0.5,0,0.8c0,0.2,0,0.4,0,0.7s0,0.5,0,0.8c-0.1,0-0.2,0-0.4,0s-0.3,0-0.4,0
			c-0.2,0-0.3,0-0.4,0s-0.3,0-0.4,0c0.1-0.4,0.1-0.8,0.1-1.3s0-1.1,0-1.7c0-0.4-0.1-0.7-0.2-1c-0.2-0.2-0.4-0.3-0.6-0.3
			c-0.3,0-0.5,0.2-0.7,0.4c-0.2,0.3-0.2,0.6-0.2,1.2v0.4c0,0.4,0,0.8,0,1.2c0,0.4,0,0.7,0.1,1.1c-0.1,0-0.2,0-0.4,0s-0.3,0-0.4,0
			c-0.2,0-0.3,0-0.4,0s-0.3,0-0.4,0c0-0.4,0.1-0.7,0.1-1.1s0-0.8,0-1.2v-0.4c0-0.4,0-0.8,0-1.2c0-0.4,0-0.7-0.1-1.1
			c0.1,0,0.3,0,0.4,0s0.3,0,0.4,0s0.3,0,0.4,0s0.3,0,0.4,0L116.9,74.9z"/>
		<path class="st0" d="M121.3,72.3c0-0.3,0.1-0.4,0.3-0.6c0.2-0.2,0.4-0.3,0.6-0.3c0.3,0,0.4,0.1,0.6,0.3c0.2,0.2,0.3,0.4,0.3,0.6
			c0,0.3-0.1,0.4-0.3,0.6c-0.2,0.2-0.4,0.3-0.6,0.3s-0.4-0.1-0.6-0.3C121.4,72.6,121.3,72.4,121.3,72.3z M121.5,76.5
			c0-0.4,0-0.8,0-1.2c0-0.4,0-0.7-0.1-1.1c0.1,0,0.2,0,0.4,0c0.1,0,0.3,0,0.4,0c0.2,0,0.3,0,0.4,0c0.2,0,0.3,0,0.4,0
			c0,0.4-0.1,0.7-0.1,1.1s0,0.8,0,1.2v0.4c0,0.4,0,0.8,0,1.2c0,0.4,0,0.7,0.1,1.1c-0.1,0-0.2,0-0.4,0s-0.3,0-0.4,0
			c-0.2,0-0.3,0-0.4,0s-0.3,0-0.4,0c0-0.4,0.1-0.7,0.1-1.1s0-0.8,0-1.2V76.5z"/>
		<path class="st0" d="M123.9,78.8c0.4-0.7,0.9-1.3,1.4-2c0.4-0.6,0.9-1.3,1.3-2.1c-0.2,0-0.4,0-0.5,0c-0.2,0-0.4,0-0.5,0
			c-0.2,0-0.4,0-0.6,0s-0.4,0-0.8,0.1c0-0.1,0-0.1,0-0.2s0-0.1,0-0.2s0-0.1,0-0.2s0-0.1,0-0.2c0.4,0,0.7,0.1,1,0.1
			c0.4,0,0.7,0,1.2,0c0.4,0,0.8,0,1.2,0c0.4,0,0.7,0,1-0.1v0.4c-0.4,0.7-1,1.3-1.4,2c-0.4,0.6-0.9,1.3-1.3,2.1c0.2,0,0.4,0,0.6,0
			s0.4,0,0.5,0c0.2,0,0.4,0,0.6,0c0.3,0,0.5,0,0.9-0.1c0,0.1,0,0.3,0,0.4s0,0.3,0,0.4c-0.2,0-0.3,0-0.4,0s-0.3,0-0.4,0s-0.4,0-0.6,0
			s-0.4,0-0.8,0s-0.7,0-1,0s-0.4,0-0.6,0s-0.3,0-0.4,0s-0.2,0-0.2,0L123.9,78.8L123.9,78.8z"/>
		<path class="st0" d="M129.5,74.8c0.3-0.3,0.6-0.4,0.9-0.5c0.4-0.1,0.7-0.2,1-0.2s0.5,0,0.8,0.1s0.4,0.2,0.6,0.3
			c0.2,0.2,0.3,0.3,0.4,0.5c0.1,0.2,0.2,0.4,0.2,0.8s0,0.9,0,1.3s0,0.7,0,1.2c0,0.2,0,0.3,0,0.4s0.1,0.2,0.1,0.2
			c0.1,0.1,0.1,0.1,0.2,0.1c0.1,0,0.2,0,0.3,0v0.3c-0.2,0.1-0.4,0.2-0.5,0.2s-0.3,0.1-0.4,0.1c-0.3,0-0.4-0.1-0.6-0.2
			c-0.2-0.2-0.3-0.4-0.4-0.5c-0.2,0.2-0.4,0.4-0.5,0.5c-0.2,0.1-0.4,0.2-0.8,0.2c-0.3,0-0.4,0-0.7-0.1c-0.2-0.1-0.4-0.2-0.4-0.3
			c-0.1-0.1-0.2-0.3-0.3-0.4S129,78.2,129,78c0-0.3,0-0.4,0.1-0.6s0.2-0.3,0.3-0.4c0.2-0.1,0.3-0.2,0.4-0.3c0.2-0.1,0.4-0.2,0.6-0.2
			c0.3-0.1,0.5-0.1,0.7-0.2s0.3-0.1,0.4-0.2c0.1-0.1,0.2-0.1,0.2-0.2s0-0.2,0-0.3c0-0.3-0.1-0.4-0.3-0.6s-0.4-0.3-0.7-0.3
			c-0.1,0-0.3,0-0.4,0.1c-0.1,0-0.3,0.1-0.4,0.1c-0.1,0.1-0.2,0.1-0.3,0.2s-0.2,0.2-0.2,0.2h-0.1L129.5,74.8z M132,77.6
			c0-0.3,0-0.5,0-0.7s0-0.3,0-0.4c-0.2,0.1-0.3,0.2-0.4,0.2c-0.2,0.1-0.3,0.1-0.4,0.2c-0.2,0.1-0.3,0.2-0.4,0.4
			c-0.1,0.2-0.1,0.4-0.1,0.6c0,0.3,0.1,0.4,0.2,0.6c0.1,0.2,0.3,0.2,0.4,0.2c0.3,0,0.4-0.1,0.5-0.3C131.9,78.2,132,78,132,77.6z"/>
		<path class="st0" d="M138.4,75.7c-0.1-0.3-0.2-0.5-0.4-0.7s-0.4-0.3-0.7-0.3c-0.4,0-0.7,0.2-0.9,0.5c-0.2,0.4-0.4,0.9-0.4,1.6
			c0,0.6,0.1,1.1,0.4,1.4c0.3,0.4,0.6,0.5,1.2,0.5c0.2,0,0.4-0.1,0.6-0.2c0.2-0.1,0.4-0.2,0.4-0.4l0.1,0.1c-0.1,0.1-0.1,0.2-0.1,0.3
			c0,0.1-0.1,0.2-0.1,0.3c-0.2,0.1-0.4,0.2-0.5,0.3c-0.3,0.1-0.5,0.2-0.8,0.2c-0.5,0-0.9-0.1-1.3-0.3c-0.4-0.2-0.6-0.4-0.8-0.6
			c-0.2-0.3-0.4-0.5-0.4-0.8c-0.1-0.4-0.2-0.6-0.2-1s0.1-0.7,0.2-1.1s0.3-0.6,0.5-0.8c0.3-0.3,0.5-0.4,0.9-0.5
			c0.4-0.2,0.7-0.2,1.2-0.2c0.4,0,0.7,0.1,1,0.2s0.5,0.2,0.8,0.4c-0.1,0.2-0.2,0.3-0.3,0.5s-0.1,0.4-0.2,0.5L138.4,75.7L138.4,75.7z
			"/>
		<path class="st0" d="M140,72.3c0-0.3,0.1-0.4,0.3-0.6s0.4-0.3,0.6-0.3s0.4,0.1,0.6,0.3c0.2,0.2,0.3,0.4,0.3,0.6
			c0,0.3-0.1,0.4-0.3,0.6s-0.4,0.3-0.6,0.3s-0.4-0.1-0.6-0.3C140,72.6,140,72.4,140,72.3z M140.1,76.5c0-0.4,0-0.8,0-1.2
			c0-0.4,0-0.7-0.1-1.1c0.1,0,0.2,0,0.4,0c0.1,0,0.3,0,0.4,0s0.3,0,0.4,0c0.2,0,0.3,0,0.4,0c0,0.4-0.1,0.7-0.1,1.1s0,0.8,0,1.2v0.4
			c0,0.4,0,0.8,0,1.2c0,0.4,0,0.7,0.1,1.1c-0.1,0-0.2,0-0.4,0s-0.3,0-0.4,0s-0.3,0-0.4,0c-0.1,0-0.3,0-0.4,0c0-0.4,0.1-0.7,0.1-1.1
			s0-0.8,0-1.2V76.5z"/>
		<path class="st0" d="M142.6,76.8c0-0.4,0.1-0.9,0.2-1.3c0.2-0.4,0.4-0.6,0.5-0.9c0.3-0.3,0.5-0.4,0.8-0.5s0.6-0.2,1-0.2
			s0.8,0.1,1.1,0.2c0.4,0.1,0.6,0.3,0.8,0.5s0.4,0.4,0.5,0.8s0.2,0.6,0.2,1.1c0,0.4-0.1,0.8-0.2,1.2c-0.1,0.4-0.3,0.6-0.5,0.9
			s-0.5,0.4-0.8,0.5s-0.6,0.2-1.1,0.2c-0.3,0-0.6-0.1-0.9-0.2c-0.3-0.1-0.5-0.3-0.8-0.4c-0.3-0.2-0.4-0.4-0.6-0.8
			C142.7,77.7,142.6,77.3,142.6,76.8z M146.2,76.5c0-0.6-0.1-1.1-0.3-1.4c-0.2-0.4-0.4-0.5-0.7-0.5c-0.4,0-0.5,0.2-0.7,0.5
			c-0.2,0.4-0.3,1-0.3,1.8c0,0.3,0,0.5,0.1,0.8c0,0.3,0.1,0.4,0.2,0.6s0.2,0.4,0.3,0.4c0.1,0.1,0.3,0.2,0.4,0.2
			c0.4,0,0.5-0.2,0.7-0.6C146.1,77.9,146.2,77.3,146.2,76.5z"/>
		<path class="st0" d="M150.1,74.9L150.1,74.9c0.2-0.3,0.4-0.5,0.7-0.6c0.3-0.2,0.5-0.3,0.9-0.3c0.5,0,0.9,0.2,1.2,0.4
			c0.3,0.3,0.4,0.8,0.4,1.4c0,0.4,0,0.6,0,0.9s0,0.5,0,0.8c0,0.2,0,0.4,0,0.7s0,0.5,0,0.8c-0.1,0-0.2,0-0.4,0s-0.3,0-0.4,0
			c-0.2,0-0.3,0-0.4,0s-0.3,0-0.4,0c0.1-0.4,0.1-0.8,0.1-1.3s0-1.1,0-1.7c0-0.4-0.1-0.7-0.2-1c-0.2-0.2-0.4-0.3-0.6-0.3
			s-0.5,0.2-0.7,0.4c-0.2,0.3-0.2,0.6-0.2,1.2v0.4c0,0.4,0,0.8,0,1.2c0,0.4,0,0.7,0.1,1.1c-0.1,0-0.2,0-0.4,0s-0.3,0-0.4,0
			s-0.3,0-0.4,0c-0.1,0-0.3,0-0.4,0c0-0.4,0.1-0.7,0.1-1.1s0-0.8,0-1.2v-0.4c0-0.4,0-0.8,0-1.2c0-0.4,0-0.7-0.1-1.1
			c0.1,0,0.3,0,0.4,0c0.1,0,0.3,0,0.4,0s0.3,0,0.4,0c0.1,0,0.3,0,0.4,0L150.1,74.9z"/>
		<path class="st0" d="M154.6,74.8c0.3-0.3,0.6-0.4,0.9-0.5c0.4-0.1,0.7-0.2,1-0.2s0.5,0,0.8,0.1s0.4,0.2,0.6,0.3
			c0.2,0.2,0.3,0.3,0.4,0.5c0.1,0.2,0.2,0.4,0.2,0.8s0,0.9,0,1.3s0,0.7,0,1.2c0,0.2,0,0.3,0,0.4s0.1,0.2,0.1,0.2
			c0.1,0.1,0.1,0.1,0.2,0.1c0.1,0,0.2,0,0.3,0v0.3c-0.2,0.1-0.4,0.2-0.5,0.2c-0.2,0-0.3,0.1-0.4,0.1c-0.3,0-0.4-0.1-0.6-0.2
			c-0.2-0.2-0.3-0.4-0.4-0.5c-0.2,0.2-0.4,0.4-0.5,0.5c-0.2,0.1-0.4,0.2-0.8,0.2c-0.3,0-0.4,0-0.7-0.1c-0.2-0.1-0.4-0.2-0.4-0.3
			c-0.1-0.1-0.2-0.3-0.3-0.4s-0.1-0.4-0.1-0.5c0-0.3,0-0.4,0.1-0.6s0.2-0.3,0.3-0.4c0.2-0.1,0.3-0.2,0.4-0.3
			c0.2-0.1,0.4-0.2,0.6-0.2c0.3-0.1,0.5-0.1,0.7-0.2s0.3-0.1,0.4-0.2s0.2-0.1,0.2-0.2s0-0.2,0-0.3c0-0.3-0.1-0.4-0.3-0.6
			s-0.4-0.3-0.7-0.3c-0.1,0-0.3,0-0.4,0.1c-0.1,0-0.3,0.1-0.4,0.1c-0.1,0.1-0.2,0.1-0.3,0.2s-0.2,0.2-0.2,0.2h-0.1L154.6,74.8z
			 M157,77.6c0-0.3,0-0.5,0-0.7s0-0.3,0-0.4c-0.2,0.1-0.3,0.2-0.4,0.2c-0.2,0.1-0.3,0.1-0.4,0.2c-0.2,0.1-0.3,0.2-0.4,0.4
			s-0.1,0.4-0.1,0.6c0,0.3,0.1,0.4,0.2,0.6c0.1,0.2,0.3,0.2,0.4,0.2c0.3,0,0.4-0.1,0.5-0.3C156.9,78.2,157,78,157,77.6z"/>
		<path class="st0" d="M159.9,74.9c0-0.4,0-0.6,0-1c0-0.3,0-0.6,0-0.9s0-0.5,0-0.9c0-0.3,0-0.5,0-0.9c0.1,0,0.2,0,0.4,0s0.3,0,0.4,0
			s0.3,0,0.4,0c0.2,0,0.3,0,0.4,0c0,0.3,0,0.5,0,0.9c0,0.3,0,0.5,0,0.9c0,0.3,0,0.6,0,0.9s0,0.6,0,1v0.7c0,0.4,0,0.6,0,1
			c0,0.3,0,0.6,0,0.9s0,0.5,0,0.9c0,0.3,0,0.5,0,0.9c-0.1,0-0.2,0-0.4,0s-0.3,0-0.4,0s-0.3,0-0.4,0c-0.2,0-0.3,0-0.4,0
			c0-0.3,0-0.5,0-0.9c0-0.3,0-0.5,0-0.9c0-0.3,0-0.6,0-0.9s0-0.6,0-1V74.9z"/>
	</g>
	<g id="LOGO_1_">
		<path class="st0" d="M41.4,39.2c0,1.1-0.3,11.1-0.3,11.8c3.1-0.2,5.5-0.3,8.2-0.3c2.3,0,6,0.2,8.2,0.3c-0.2-0.5-0.2-0.8-0.2-1.4
			c0-1,0.1-1.3,0.2-1.7c-2.5,0.4-8.8,0.4-10,0.4h-0.8c0-2.3-0.1-5.2-0.1-8.2c0-6.6,0.1-12.1,0.4-18.6c-1.1,0.2-2,0.3-3,0.3
			c-1.1,0-1.9,0-3-0.3c0,0.8,0.1,4.8,0.2,5.6c0.1,3.9,0.1,4.3,0.1,6.2L41.4,39.2L41.4,39.2z"/>
		<path class="st0" d="M65.1,36.3c0-5.9,2.8-13.1,10.1-13.1c7.5,0,10.2,6,10.2,13.1c0,6.2-2.9,13.1-10.2,13.1S65.1,42.8,65.1,36.3
			L65.1,36.3z M75.4,21c-8.7,0-16.2,4.8-16.2,15.8c0,9.5,7.1,14.8,16.1,14.8c9.6,0,16.1-6.2,16.1-15.8C91.4,25.4,83.5,21,75.4,21z"
			/>
		<path class="st0" d="M95.9,36.7c0,9.7,7,15,15.4,15c4.1,0,8.9-1.1,12.5-3c-0.1-1.2-0.1-2.3-0.1-3.9c0-1.2,0.1-5.7,0.4-7.3
			c-0.9,0.2-1.5,0.3-2.7,0.3s-2.2-0.2-3-0.3c0.1,2.2,0.3,4.2,0.3,6.4c0,0.5,0,0.9-0.1,3.9c-1.7,1.2-4.1,1.5-6.1,1.5
			c-3.9,0-6.3-1.9-7.8-3.9c-2.1-2.6-2.6-5.7-2.6-9.1c0-8.2,3.9-12.9,11-12.9c6.2,0,7.7,3,8.2,4h0.4l1.3-4.2
			c-3.5-1.5-6.5-2.2-10.1-2.2C101.1,21,95.9,28,95.9,36.7z"/>
		<path class="st0" d="M135.5,36.3c0-5.9,2.8-13.1,10.2-13.1c7.5,0,10.2,6,10.2,13.1c0,6.2-2.9,13.1-10.2,13.1
			C138.2,49.4,135.5,42.8,135.5,36.3L135.5,36.3z M145.8,21c-8.7,0-16.2,4.8-16.2,15.8c0,9.5,7.1,14.8,16.1,14.8
			c9.6,0,16.1-6.2,16.1-15.8C161.7,25.4,153.8,21,145.8,21z"/>
	</g>
</g>
</svg>
