<?xml version="1.0" encoding="utf-8"?>
<!-- Generator: Adobe Illustrator 21.0.0, SVG Export Plug-In . SVG Version: 6.00 Build 0)  -->
<svg version="1.1" id="Layer_1" xmlns="http://www.w3.org/2000/svg" xmlns:xlink="http://www.w3.org/1999/xlink" x="0px" y="0px"
	 viewBox="0 0 203 102" style="enable-background:new 0 0 203 102;" xml:space="preserve">
<style type="text/css">
	.st0{fill:#196586;}
	.st1{fill:#5DC6C6;}
	.st2{fill:#DFE274;}
	.st3{fill:#B0E7EA;}
	.st4{fill:#3FB3B6;}
</style>
<g>
	<path class="st0" d="M12.6,71.2c0-5.7,0-11.4,0-17.2v-1v-0.6v-0.3c0-0.1,0-0.2,0-0.3c0-0.8,0.1-1.7,0.3-2.4
		c0.2-0.8,0.5-1.6,0.9-2.3c0.4-0.8,0.9-1.5,1.5-2c0.3-0.3,0.6-0.6,1-0.9c0.3-0.3,0.7-0.5,1.1-0.7c0.7-0.4,1.5-0.7,2.2-1
		c0.8-0.2,1.6-0.4,2.3-0.5c0.7,0,1.4,0,2.1,0c0.4,0,0.8,0,1.2,0c0.4,0,0.8,0.1,1.2,0.1c0.4,0,0.8,0.1,1.2,0.2s0.8,0.2,1.2,0.3
		c0.8,0.2,1.6,0.6,2.2,1c0.4,0.2,0.7,0.4,1.1,0.7c0.3,0.3,0.7,0.5,1,0.9c0.3,0.3,0.6,0.6,0.8,1s0.5,0.7,0.7,1.1
		c0.2,0.4,0.4,0.8,0.5,1.2s0.3,0.8,0.4,1.2c0.2,0.8,0.3,1.7,0.3,2.4c0,0.1,0,0.2,0,0.3v0.3v18.6h-2.5v-8.5v-8.5v-1.1v-0.6v-0.3
		c0-0.1,0-0.2,0-0.2c0-0.7-0.1-1.3-0.3-1.9c-0.1-0.3-0.2-0.6-0.3-0.9c-0.1-0.3-0.2-0.6-0.4-0.9c-0.1-0.3-0.3-0.5-0.5-0.8
		s-0.4-0.5-0.6-0.7s-0.4-0.4-0.7-0.6c-0.2-0.2-0.5-0.4-0.8-0.6c-0.5-0.3-1.1-0.6-1.7-0.8c-1.3-0.4-2.5-0.6-3.9-0.6c-0.4,0-0.7,0-1,0
		s-0.7,0.1-1,0.1c-0.7,0.1-1.3,0.2-1.9,0.5c-1.3,0.4-2.3,1.1-3.1,2c-0.8,0.9-1.4,2-1.7,3.2c-0.2,0.6-0.2,1.3-0.3,1.9
		c0,0.1,0,0.2,0,0.2V54c0,5.7,0,11.4,0,17.2H12.6L12.6,71.2z"/>
	<path class="st0" d="M43.6,52.3L43.6,52.3c0-0.8,0.1-1.5,0.3-2.1c0.2-0.7,0.4-1.3,0.7-1.9s0.7-1.2,1.2-1.6c0.5-0.5,1-0.9,1.6-1.2
		s1.3-0.6,1.9-0.8c0.2,0,0.4-0.1,0.5-0.1c0.2,0,0.4-0.1,0.5-0.1c0.2,0,0.4-0.1,0.6-0.1s0.4,0,0.6-0.1c0.4,0,0.8,0,1.1,0h0.3H53
		c0.2,0,0.4,0,0.6,0c0.4,0,0.7,0.1,1.1,0.1c0.4,0.1,0.7,0.1,1.1,0.2c0.7,0.2,1.4,0.4,1.9,0.7c0.6,0.3,1.2,0.7,1.7,1.2s0.9,1,1.3,1.6
		c0.3,0.6,0.6,1.2,0.8,1.8c0.1,0.3,0.2,0.7,0.2,1c0.1,0.4,0.1,0.7,0.1,1.1c0,0.1,0,0.2,0,0.3v0.9v2.4H43.6v-1v-1.3v-0.6V52.3
		L43.6,52.3L43.6,52.3z M61.2,62.6L61.2,62.6v0.2c0,0.1,0,0.2,0,0.3c0,0.2,0,0.3-0.1,0.5c0,0.3-0.1,0.7-0.2,1
		c-0.2,0.7-0.5,1.3-0.9,1.7c-0.4,0.6-0.8,1.1-1.4,1.5c-0.5,0.4-1.1,0.8-1.7,1.1c-0.6,0.3-1.4,0.5-2,0.6s-1.5,0.2-2.1,0.2
		c-1.5,0-2.9-0.1-4.2-0.6c-1.4-0.4-2.5-1.1-3.4-2c-0.9-1-1.5-2.2-1.7-3.5c-0.1-0.6-0.1-1.4-0.1-2c0-0.1,0-0.2,0-0.3V61v-0.8V59v-1.6
		h20.2V54v-1.2v-0.6v-0.1V52c0-0.1,0-0.2,0-0.3c0-0.9-0.2-1.7-0.4-2.6c-0.2-0.9-0.6-1.7-1.1-2.4c-0.2-0.4-0.5-0.8-0.8-1.1
		c-0.3-0.4-0.6-0.7-1-1c-0.7-0.6-1.5-1.1-2.2-1.5s-1.7-0.6-2.4-0.8c-0.4-0.1-0.9-0.2-1.3-0.2c-0.3,0.2-0.7,0.2-1.1,0.2
		c-0.9,0-1.7,0-2.5,0c-0.4,0-0.9,0.1-1.3,0.1c-0.2,0-0.4,0.1-0.6,0.1s-0.4,0.1-0.6,0.1c-0.9,0.2-1.7,0.5-2.4,0.9
		c-0.4,0.2-0.8,0.4-1.2,0.7s-0.7,0.6-1.1,0.9c-0.7,0.6-1.2,1.4-1.7,2.1c-0.4,0.8-0.8,1.7-1,2.5c-0.2,0.9-0.3,1.7-0.4,2.6v0.2v0.2
		v0.1v0.5v1.2v2.3v4.3c0,0.1,0,0.2,0,0.3c0,0.9,0.1,1.7,0.3,2.5c0.2,0.9,0.5,1.7,0.9,2.5c0.4,0.8,0.9,1.6,1.6,2.2
		c0.6,0.7,1.4,1.3,2.1,1.7s1.6,0.8,2.4,1c0.9,0.2,1.7,0.4,2.5,0.4c0.4,0,0.9,0.1,1.3,0.1h0.3h0.3h0.3c0.1,0,0.2,0,0.3,0
		c0.9,0,1.7-0.1,2.5-0.2c0.9-0.1,1.7-0.4,2.5-0.7c0.8-0.3,1.7-0.8,2.3-1.3c0.7-0.6,1.4-1.2,1.8-1.9c0.4-0.7,1-1.6,1.2-2.4
		c0.3-0.9,0.4-1.7,0.4-2.7L61.2,62.6L61.2,62.6z"/>
	<path class="st0" d="M67,71.2h2.8l9.3-12.1l9.3,12.1h3L80.6,57.1l10.7-14h-2.8l-9.3,12.1l-9.3-12.1h-3l10.6,14.1L67,71.2z"/>
	<path class="st0" d="M98.4,45.3h9.7v-2.2h-9.7v-8.4H96v8.4l0,0v2.2v3.4v8.7v4.3v1.2c0,0.4,0,0.8,0,1.2c0,0.8,0.1,1.6,0.3,2.3
		c0.2,0.8,0.4,1.7,0.8,2.4c0.2,0.4,0.4,0.8,0.7,1.2c1.6,1.8,3.9,2.5,8.2,2c0.8-0.1,1.4-0.2,2-0.3v-2.1c-2.9,0.6-6.2,0.6-7.7-0.7
		c-0.2-0.2-0.4-0.3-0.6-0.6c-0.2-0.2-0.3-0.5-0.5-0.7c-0.3-0.5-0.5-1.2-0.6-1.7c-0.1-0.7-0.2-1.4-0.3-2c0-0.4,0-0.7,0-1.1
		c0-0.2,0-0.4,0-0.5v-0.6v-4.3V53v-4.4L98.4,45.3L98.4,45.3z"/>
	<path class="st0" d="M115.1,45.3h9.7v-2.2h-9.7v-8.4h-2.4v8.4l0,0v2.2v3.4v4.4v4.3v4.3v0.6c0,0.2,0,0.4,0,0.6c0,0.4,0,0.8,0,1.2
		c0,0.8,0.1,1.6,0.3,2.3c0.2,0.8,0.4,1.7,0.8,2.4c0.2,0.4,0.4,0.8,0.7,1.2c1.6,1.8,3.9,2.5,8.2,2c0.8-0.1,1.4-0.2,2-0.3v-2.1
		c-2.9,0.6-6.2,0.6-7.7-0.7c-0.2-0.2-0.4-0.3-0.6-0.6c-0.2-0.2-0.3-0.5-0.5-0.7c-0.3-0.5-0.5-1.2-0.6-1.7c-0.1-0.7-0.3-1.4-0.3-2
		c0-0.4,0-0.7-0.1-1.1c0-0.2,0-0.4,0-0.5v-0.6v-4.3v-4.3v-4.4L115.1,45.3L115.1,45.3z"/>
	<path class="st1" d="M138.5,11.8V1.1l37.2,21.5l-37.2,21.5V33.2L157,22.5L138.5,11.8L138.5,11.8z"/>
	<path class="st2" d="M138.5,33.2L120,22.5l18.5-10.6V33.2L138.5,33.2z"/>
	<path class="st3" d="M138.5,22.6l27.9,16.1l-27.9,16.1V22.6z"/>
	<path class="st4" d="M138.5,33.2l9.3-5.3l9.3,5.3L138.5,44V33.2L138.5,33.2z"/>
</g>
</svg>
