<?xml version="1.0" encoding="UTF-8" standalone="no"?><!DOCTYPE svg PUBLIC "-//W3C//DTD SVG 1.1//EN" "http://www.w3.org/Graphics/SVG/1.1/DTD/svg11.dtd"><svg width="100%" height="100%" viewBox="0 0 151 66" version="1.1" xmlns="http://www.w3.org/2000/svg" xmlns:xlink="http://www.w3.org/1999/xlink" xml:space="preserve" style="fill-rule:evenodd;clip-rule:evenodd;stroke-linejoin:round;stroke-miterlimit:1.41421;"><g><path d="M0.319,65.054c-0.014,-5.271 -0.011,-10.541 -0.004,-15.803l0.004,-0.988l0,-0.495l0,-0.259c0.001,-0.092 0.005,-0.176 0.005,-0.273c0.03,-0.726 0.125,-1.466 0.306,-2.187c0.179,-0.719 0.441,-1.429 0.799,-2.092c0.359,-0.674 0.804,-1.3 1.336,-1.843c0.265,-0.279 0.549,-0.54 0.846,-0.77c0.305,-0.229 0.618,-0.443 0.945,-0.624c0.655,-0.379 1.344,-0.658 2.039,-0.863c0.703,-0.206 1.412,-0.338 2.115,-0.422c0.704,-0.08 1.407,-0.117 2.099,-0.117c0.354,0 0.699,0.012 1.05,0.037c0.349,0.021 0.698,0.045 1.055,0.088c0.345,0.043 0.699,0.097 1.051,0.164c0.35,0.076 0.704,0.156 1.05,0.259c0.699,0.208 1.389,0.49 2.039,0.86c0.331,0.182 0.644,0.389 0.95,0.618c0.301,0.23 0.586,0.485 0.853,0.757c0.269,0.267 0.519,0.569 0.747,0.871c0.221,0.311 0.427,0.644 0.604,0.975c0.181,0.335 0.334,0.681 0.468,1.035c0.131,0.348 0.241,0.709 0.328,1.067c0.177,0.727 0.269,1.461 0.296,2.187c0.005,0.089 0.005,0.177 0.009,0.273l0.003,0.259l0,17.286l-2.315,0l-0.005,-7.904l0,-7.899l0.005,-0.988l0,-0.495l-0.005,-0.235c0,-0.064 0,-0.139 -0.003,-0.213c-0.02,-0.591 -0.093,-1.17 -0.229,-1.727c-0.067,-0.272 -0.146,-0.547 -0.244,-0.814c-0.093,-0.264 -0.207,-0.524 -0.333,-0.772c-0.127,-0.254 -0.265,-0.484 -0.423,-0.708c-0.16,-0.231 -0.332,-0.446 -0.521,-0.65c-0.185,-0.201 -0.388,-0.394 -0.602,-0.574c-0.214,-0.177 -0.443,-0.342 -0.683,-0.496c-0.479,-0.3 -1.006,-0.546 -1.565,-0.736c-1.114,-0.387 -2.342,-0.543 -3.586,-0.559c-0.311,0 -0.62,0.016 -0.924,0.028c-0.307,0.024 -0.613,0.054 -0.914,0.096c-0.6,0.083 -1.188,0.22 -1.744,0.41c-1.113,0.383 -2.091,0.999 -2.838,1.816c-0.751,0.811 -1.253,1.846 -1.524,2.959c-0.133,0.56 -0.203,1.143 -0.225,1.727c-0.005,0.071 -0.005,0.136 -0.005,0.213l0,1.718c0.01,5.262 0.013,10.532 0,15.803l-2.31,0Z" style="fill:#196586;fill-rule:nonzero;"/><path d="M28.926,47.61l0,-0.114c0.014,-0.633 0.091,-1.272 0.231,-1.877c0.139,-0.613 0.352,-1.193 0.631,-1.725c0.289,-0.535 0.641,-1.021 1.063,-1.446c0.42,-0.433 0.909,-0.794 1.449,-1.1c0.54,-0.298 1.129,-0.53 1.751,-0.7c0.155,-0.043 0.313,-0.086 0.469,-0.113c0.163,-0.033 0.322,-0.069 0.481,-0.093c0.165,-0.024 0.325,-0.048 0.49,-0.075c0.164,-0.02 0.328,-0.03 0.494,-0.055c0.333,-0.018 0.666,-0.035 1.003,-0.035l0.25,0.005l0.251,0.003c0.166,0 0.334,0.015 0.501,0.025c0.331,0.027 0.662,0.057 0.987,0.108c0.324,0.048 0.646,0.117 0.956,0.187c0.632,0.154 1.233,0.368 1.783,0.654c0.555,0.286 1.056,0.635 1.492,1.048c0.445,0.414 0.817,0.886 1.121,1.412c0.305,0.529 0.536,1.089 0.697,1.699c0.082,0.3 0.145,0.611 0.19,0.921c0.048,0.311 0.078,0.624 0.089,0.933c0.001,0.083 0.001,0.157 0.001,0.234l0,0.783l-0.011,2.2l-16.36,0l-0.001,-0.892l-0.003,-1.064l-0.005,-0.535l0,-0.263l0,-0.125Zm16.369,9.515l0,0.111l-0.001,0.109c-0.006,0.076 -0.006,0.15 -0.014,0.225c-0.007,0.146 -0.022,0.297 -0.047,0.445c-0.038,0.291 -0.105,0.588 -0.187,0.874c-0.17,0.579 -0.426,1.119 -0.758,1.624c-0.334,0.491 -0.742,0.936 -1.212,1.314c-0.472,0.38 -1.005,0.7 -1.581,0.942c-0.574,0.253 -1.194,0.433 -1.831,0.561c-0.637,0.115 -1.296,0.186 -1.963,0.21c-1.344,0.025 -2.697,-0.1 -3.92,-0.488c-1.216,-0.384 -2.319,-1.007 -3.114,-1.898c-0.802,-0.881 -1.298,-2.023 -1.536,-3.266c-0.121,-0.616 -0.184,-1.256 -0.195,-1.911c-0.001,-0.084 -0.001,-0.16 -0.001,-0.247l0,-0.264l0,-0.527l0.001,-1.068l0,-1.418l18.669,0l0,-3.1l-0.007,-1.064l-0.004,-0.535l-0.003,-0.129l0,-0.153c-0.002,-0.102 -0.006,-0.2 -0.011,-0.304c-0.04,-0.795 -0.169,-1.579 -0.392,-2.36c-0.218,-0.761 -0.532,-1.509 -0.957,-2.214c-0.21,-0.347 -0.444,-0.691 -0.707,-1.005c-0.264,-0.31 -0.547,-0.616 -0.855,-0.886c-0.614,-0.547 -1.311,-0.989 -2.042,-1.325c-0.726,-0.339 -1.483,-0.574 -2.244,-0.735c-0.38,-0.073 -0.76,-0.141 -1.137,-0.189c-0.383,-0.046 -0.76,-0.077 -1.139,-0.099c-0.758,-0.041 -1.505,-0.037 -2.263,0.022c-0.378,0.019 -0.76,0.058 -1.141,0.109c-0.192,0.027 -0.383,0.06 -0.571,0.096c-0.187,0.025 -0.38,0.076 -0.568,0.118c-0.76,0.173 -1.517,0.431 -2.239,0.789c-0.362,0.177 -0.712,0.379 -1.049,0.61c-0.338,0.232 -0.659,0.492 -0.959,0.775c-0.593,0.574 -1.104,1.237 -1.495,1.95c-0.397,0.719 -0.685,1.478 -0.879,2.256c-0.196,0.779 -0.293,1.57 -0.316,2.357l-0.003,0.15l-0.003,0.137l0,0.274l-0.006,0.535l0,1.064l-0.002,2.141l0,4.004c0.002,0.096 0.002,0.191 0.002,0.291c0.028,0.764 0.099,1.543 0.262,2.322c0.165,0.77 0.408,1.545 0.769,2.281c0.361,0.733 0.837,1.422 1.408,2.026c0.566,0.594 1.232,1.109 1.94,1.498c0.704,0.396 1.457,0.672 2.216,0.881c0.754,0.201 1.519,0.328 2.273,0.396c0.379,0.039 0.757,0.068 1.131,0.076l0.281,0.011l0.288,0.007l0.276,0.004c0.095,0 0.189,0 0.286,-0.004c0.754,-0.007 1.515,-0.068 2.281,-0.205c0.762,-0.125 1.524,-0.326 2.265,-0.612c0.741,-0.293 1.461,-0.677 2.114,-1.166c0.655,-0.496 1.237,-1.101 1.713,-1.771c0.477,-0.678 0.845,-1.43 1.096,-2.21c0.248,-0.788 0.388,-1.606 0.397,-2.438l-2.316,-0.004Z" style="fill:#196586;fill-rule:nonzero;"/><path d="M50.579,65.09l2.596,0l8.585,-11.262l8.55,11.262l2.716,0l-9.903,-13.051l9.883,-12.949l-2.596,0l-8.58,11.25l-8.547,-11.25l-2.716,0l9.9,13.039l-9.888,12.961Z" style="fill:#196586;fill-rule:nonzero;"/><path d="M79.559,41.101l8.911,0l0,-2.012l-8.917,0l0,-7.748l-2.21,0l0,7.748l-0.008,0l0,2.012l0.012,3.078l0,8.039l-0.004,4.018l0,1.027c0.004,0.356 0.02,0.707 0.039,1.058c0.044,0.712 0.113,1.422 0.257,2.159c0.145,0.724 0.353,1.464 0.713,2.187c0.182,0.358 0.395,0.723 0.661,1.051c1.382,1.681 3.659,2.256 7.55,1.858c0.67,-0.063 1.249,-0.221 1.887,-0.253l0,-1.943c-2.697,0.572 -5.732,0.516 -7.099,-0.619c-0.179,-0.142 -0.354,-0.308 -0.507,-0.503c-0.154,-0.19 -0.288,-0.406 -0.414,-0.645c-0.241,-0.471 -0.432,-1.022 -0.564,-1.612c-0.131,-0.583 -0.219,-1.197 -0.265,-1.822c-0.022,-0.312 -0.037,-0.636 -0.042,-0.951c-0.006,-0.164 -0.006,-0.322 -0.006,-0.484l0,-0.508l-0.009,-4.018l0,-4.012l0,-4.027l0.015,-3.078Z" style="fill:#196586;fill-rule:nonzero;"/><path d="M94.969,41.101l8.915,0l0,-2.012l-8.918,0l0,-7.748l-2.208,0l0,7.748l-0.008,0l0,2.012l0.008,3.078l0.001,4.027l-0.001,4.012l-0.004,4.018l0,0.508c0,0.171 0,0.347 0.004,0.519c0.003,0.356 0.017,0.707 0.037,1.058c0.044,0.712 0.115,1.422 0.258,2.159c0.145,0.724 0.354,1.464 0.712,2.187c0.183,0.358 0.394,0.723 0.662,1.051c1.38,1.681 3.662,2.256 7.551,1.858c0.67,-0.063 1.25,-0.221 1.882,-0.253l0,-1.943c-2.688,0.572 -5.731,0.516 -7.097,-0.619c-0.178,-0.142 -0.352,-0.308 -0.506,-0.503c-0.151,-0.19 -0.291,-0.406 -0.41,-0.645c-0.246,-0.471 -0.431,-1.022 -0.564,-1.612c-0.132,-0.583 -0.222,-1.197 -0.266,-1.822c-0.027,-0.312 -0.04,-0.636 -0.048,-0.951c-0.002,-0.164 -0.003,-0.322 -0.003,-0.484l0,-0.508l-0.008,-4.018l0,-4.012l0.002,-4.027l0.009,-3.078Z" style="fill:#196586;fill-rule:nonzero;"/><path d="M116.609,10.248l0,-9.901l34.3,19.801l-34.3,19.803l0,-9.901l17.15,-9.902l-17.15,-9.9Z" style="fill:#5dc6c6;fill-rule:nonzero;"/><path d="M116.609,30.05l-17.147,-9.901l17.147,-9.901l0,19.802Z" style="fill:#dfe274;fill-rule:nonzero;"/><path d="M116.609,20.148l25.725,14.852l-25.725,14.85l0,-29.702Z" style="fill:#b0e7ea;fill-rule:nonzero;"/><path d="M116.609,30.05l8.575,-4.95l8.575,4.95l-17.15,9.901l0,-9.901Z" style="fill:#3fb3b6;fill-rule:nonzero;"/></g></svg>