<?xml version="1.0" encoding="utf-8"?>
<!-- Generator: Adobe Illustrator 21.0.0, SVG Export Plug-In . SVG Version: 6.00 Build 0)  -->
<svg version="1.1" id="Layer_1" xmlns="http://www.w3.org/2000/svg" xmlns:xlink="http://www.w3.org/1999/xlink" x="0px" y="0px"
	 viewBox="0 0 203 102" style="enable-background:new 0 0 203 102;" xml:space="preserve">
<style type="text/css">
	.st0{fill:#FCB813;}
	.st1{fill:#636466;}
</style>
<g>
	<path class="st0" d="M192.5,69.4c-0.4,1.4-0.7,2.9-1.2,4.3c-3.3,10.6-14.1,17.7-25.1,16.8c-11-1-20.5-9.4-21.5-20.3
		c-0.8-9-0.2-18.2-0.2-27.5c0.4,0,1-0.2,1.7-0.2c8.2,0.1,16.4-0.2,24.6,0.3c10.8,0.7,19.3,8.8,21.2,19.5c0.1,0.4,0.3,0.7,0.5,1.1
		C192.5,65.4,192.5,67.4,192.5,69.4z M171.9,70.2c3.1,0,5.9,0.1,8.7,0c2.5-0.2,3.9-1.7,3.7-3.8c-0.1-2.1-1.7-3.4-4.1-3.4
		c-2.7,0-5.4,0-8.4,0c0-3-0.1-5.7,0-8.3c0.2-2.6-1.6-4-3.7-4c-2.2,0-3.3,1.5-3.3,4c0,2.7,0,5.4,0,8.3c-3.2,0-6.1,0-8.9,0
		c-2.2,0-3.5,1.4-3.5,3.1c0,1.3,1.2,2.8,2.2,3.7c0.7,0.6,2.1,0.4,3.1,0.5c2.3,0.1,4.6,0,7,0c0,3,0,5.6,0,8.2c0,2.7,1.1,4,3.3,4.1
		c2.3,0.1,3.7-1.3,3.7-4C171.9,75.9,171.9,73.2,171.9,70.2z"/>
	<g>
		<circle class="st1" cx="75.3" cy="36.1" r="5.2"/>
		<g>
			<path class="st1" d="M16.2,62.4c2.3-2.7,5.1-2.7,8.1-1.6c1.4,0.5,2.8,0.8,4.2,1.2c0.1-0.2,0.2-0.5,0.3-0.7
				c-0.5-0.3-0.9-0.7-1.4-0.9c-2.1-0.7-4.4-1.2-6.4-2.1c-4.3-2-5.2-7.3-2.1-11c4.2-5.1,14.8-4.6,18.4-1.4c0.9,0.8,1.6,2.8,1.3,3.9
				c-0.3,1.1-2,2.2-3.2,2.5c-1.4,0.3-3.1-0.4-4.6-0.6c-0.9-0.1-1.9-0.2-2.8-0.3c-0.1,0.2-0.1,0.4-0.2,0.6c1.3,0.5,2.7,0.9,4,1.4
				c3.2,1.1,6.3,2.5,7.4,6.1c1.3,4.1-1.5,8.7-6.1,10c-4.1,1.1-8.3,1.1-12.3-0.5c-1.7-0.7-3.1-2.3-4.7-3.5
				C16.2,64.4,16.2,63.4,16.2,62.4z"/>
			<path class="st1" d="M70.1,56.5c0-2.4,0-4.9,0-7.3c0.1-3.4,2.3-5.9,5.3-5.8c2.9,0,5.1,2.3,5.2,5.7c0.1,5.1,0.1,10.2,0,15.3
				c0,3.3-2.4,5.6-5.2,5.6c-2.9,0-5-2.4-5.2-5.7c0-0.2,0-0.3,0-0.5C70.1,61.3,70.1,58.9,70.1,56.5z"/>
			<path class="st1" d="M67,46.7c0-2.7-2.4-3.9-4.8-2.5c-0.6,0.4-1.2,0.9-1.9,1.5c-7.2-4.5-13.7-1.5-16.9,2.5
				c-3.9,5-3.7,12.7,0.4,17.3c4.3,4.8,10.7,5.7,16.6,2.1c0.5,0.4,0.9,1.1,1.5,1.3c1.1,0.4,2.5,1,3.4,0.6s1.7-1.9,1.8-2.9
				C67.1,59.9,67.1,53.3,67,46.7z M53.5,60.1c-1.7,0-3.1-1.5-3.1-3.3s1.4-3.3,3.1-3.3c1.7,0,3.1,1.5,3.1,3.3S55.2,60.1,53.5,60.1z"
				/>
			<path class="st1" d="M108.1,49.4c-1.3-2-3.4-3.7-5.5-4.9c-2.7-1.6-5.7-1.4-8.9,0.2c0-1.9,0.1-3.3,0-4.8c-0.2-2.8-2.4-4.7-5.2-4.6
				c-2.7,0.1-4.8,2-4.8,4.7c-0.1,8.9-0.1,17.7,0.1,26.6c0,1,0.9,2.4,1.8,2.9c0.8,0.4,2.2-0.1,3.2-0.4c0.6-0.2,1.1-0.9,1.7-1.4
				c7.4,4,13,2,16.3-1.7C110.5,61.8,111.4,54.5,108.1,49.4z M96.9,60c-1.7,0-3.1-1.5-3.1-3.3s1.4-3.3,3.1-3.3c1.4,0,2.6,1.1,3,2.5
				c0,0,0,0,0.1,0.1v0.1c0,0.2,0.1,0.4,0.1,0.7C99.9,58.5,98.6,60,96.9,60z"/>
			<path class="st1" d="M138.6,47c0-1-0.7-2.6-1.4-2.9c-1.1-0.4-2.5,0-3.7,0.4c-0.6,0.1-1,0.8-1.4,1.3c-7.3-4.6-13.7-1.6-16.7,2.2
				c-4.2,5.2-4.1,12.8,0.3,17.8c3.4,3.9,10.3,6.1,16.4,1.8c0.3,0.3,0.6,0.8,1.1,1c1.2,0.4,2.8,1.3,3.7,0.9s1.7-2.2,1.8-3.4
				C138.8,59.7,138.7,53.3,138.6,47z M125.5,60c-1.7,0-3.1-1.5-3.1-3.3c0-0.2,0-0.4,0.1-0.6c0-0.1,0-0.1,0-0.2
				c0-0.1,0.1-0.2,0.1-0.4c0-0.1,0.1-0.2,0.1-0.2c0-0.1,0.1-0.2,0.1-0.3s0.1-0.2,0.1-0.3l0.1-0.1c0.3-0.4,0.6-0.7,1-0.9l0,0
				c0.1-0.1,0.3-0.1,0.4-0.2l0,0l0,0c0.3-0.1,0.6-0.2,1-0.2c1,0,1.8,0.5,2.4,1.2l0.1,0.1c0.1,0.1,0.1,0.2,0.2,0.3
				c0,0.1,0.1,0.2,0.1,0.3s0.1,0.2,0.1,0.3s0.1,0.2,0.1,0.4c0,0.1,0,0.1,0.1,0.2c0,0.2,0.1,0.4,0.1,0.6
				C128.6,58.5,127.2,60,125.5,60z"/>
		</g>
	</g>
</g>
</svg>
