<?xml version="1.0" encoding="utf-8"?>
<!-- Generator: Adobe Illustrator 21.0.0, SVG Export Plug-In . SVG Version: 6.00 Build 0)  -->
<svg version="1.1" id="Layer_1" xmlns="http://www.w3.org/2000/svg" xmlns:xlink="http://www.w3.org/1999/xlink" x="0px" y="0px"
	 viewBox="0 0 203 102" style="enable-background:new 0 0 203 102;" xml:space="preserve">
<style type="text/css">
	.st0{fill:#929497;}
	.st1{fill:#6D6E70;}
	.st2{fill:#73BE44;}
	.st3{fill:#EE413B;}
	.st4{fill:#F18021;}
	.st5{fill:#049DC2;}
</style>
<path class="st0" d="M73.2,32.1c-0.6-0.6-1.2-1-1.9-1.3c-0.7-0.3-1.4-0.4-2.2-0.4c-0.7,0-1.5,0.1-2.2,0.4s-1.3,0.7-1.9,1.3
	s-1,1.2-1.2,1.9c-0.3,0.7-0.4,1.4-0.4,2.2c0,0.7,0.1,1.5,0.4,2.2c0.3,0.7,0.7,1.3,1.2,1.9c0.6,0.6,1.2,1,1.9,1.3
	c1.4,0.6,2.9,0.6,4.3,0c0.7-0.3,1.3-0.7,1.9-1.3l0.5-0.5l-1.1-1.1L72,39.2c-0.4,0.4-0.8,0.7-1.4,0.9c-0.5,0.2-1.1,0.3-1.6,0.3
	c-1.2,0-2.2-0.4-3-1.2c-0.4-0.4-0.7-0.9-0.9-1.4c-0.2-0.5-0.3-1-0.3-1.6c0-0.5,0.1-1.1,0.3-1.6c0.2-0.5,0.5-1,0.9-1.4
	s0.9-0.7,1.4-0.9c1-0.4,2.1-0.4,3.2,0c0.5,0.2,1,0.5,1.4,0.9l0.5,0.5l1.1-1.1L73.2,32.1z"/>
<path class="st0" d="M92,32.3c1-0.4,2.3-0.4,3.3,0c0.5,0.2,1,0.5,1.4,0.9s0.7,0.8,1,1.3c0.2,0.5,0.4,1.1,0.4,1.6v5.7h1.5v-5.7
	c0-0.8-0.2-1.5-0.5-2.2s-0.7-1.3-1.3-1.8c-0.5-0.5-1.2-0.9-1.8-1.2c-0.7-0.3-1.4-0.4-2.2-0.4c-0.8,0-1.5,0.2-2.2,0.4
	c-0.7,0.3-1.3,0.7-1.8,1.2s-0.9,1.1-1.2,1.8c-0.3,0.7-0.4,1.4-0.4,2.2v5.7h1.5v-5.7c0-0.6,0.1-1.1,0.3-1.6c0.2-0.5,0.5-1,0.9-1.3
	C91,32.8,91.5,32.5,92,32.3"/>
<path class="st0" d="M102.8,40.2c0.5,0.5,1.1,0.9,1.8,1.2c0.7,0.3,1.4,0.5,2.2,0.5h0.8v-1.5h-0.8c-0.6,0-1.1-0.1-1.7-0.3
	c-0.5-0.2-1-0.5-1.4-0.9s-0.8-0.8-1-1.4c-0.2-0.5-0.4-1.1-0.4-1.7v-1.8h5.2v-1.5h-5.2v-7.3H101v10.6c0,0.8,0.2,1.5,0.5,2.2
	C101.8,39.1,102.3,39.7,102.8,40.2"/>
<path class="st0" d="M113.6,32.2c0.5-0.2,1.1-0.4,1.6-0.4h0.7v-1.5h-0.7c-0.8,0-1.5,0.2-2.2,0.5s-1.3,0.7-1.8,1.2
	c-0.5,0.5-0.9,1.1-1.2,1.8c-0.3,0.7-0.4,1.4-0.4,2.2v5.8h1.5V36c0-0.6,0.1-1.1,0.3-1.6c0.2-0.5,0.5-1,0.9-1.4
	C112.6,32.8,113.1,32.5,113.6,32.2"/>
<path class="st0" d="M128.7,38.4c0.3-0.7,0.4-1.4,0.4-2.2s-0.1-1.5-0.4-2.2c-0.3-0.7-0.7-1.3-1.2-1.8s-1.1-0.9-1.8-1.2
	c-0.7-0.3-1.4-0.4-2.2-0.4c-0.8,0-1.5,0.2-2.2,0.4c-0.7,0.3-1.3,0.7-1.8,1.2s-0.9,1.1-1.2,1.8c-0.3,0.7-0.4,1.4-0.4,2.2
	s0.1,1.5,0.4,2.2s0.7,1.3,1.2,1.8s1.1,0.9,1.8,1.2c0.7,0.3,1.4,0.4,2.2,0.4c0.8,0,1.5-0.1,2.2-0.4c0.7-0.3,1.3-0.7,1.8-1.2
	S128.4,39.1,128.7,38.4 M126.4,39.2c-0.4,0.4-0.8,0.7-1.4,0.9c-0.5,0.2-1.1,0.3-1.7,0.3s-1.1-0.1-1.7-0.3c-0.5-0.2-1-0.5-1.4-0.9
	s-0.7-0.8-0.9-1.4c-0.2-0.5-0.3-1.1-0.3-1.7c0-0.6,0.1-1.1,0.3-1.6c0.2-0.5,0.5-1,0.9-1.3c0.4-0.4,0.8-0.7,1.4-0.9
	c1-0.4,2.3-0.4,3.3,0c0.5,0.2,1,0.5,1.4,0.9s0.7,0.8,0.9,1.3c0.2,0.5,0.3,1.1,0.3,1.6c0,0.6-0.1,1.1-0.3,1.7
	C127.1,38.4,126.8,38.8,126.4,39.2"/>
<path class="st0" d="M84.7,32.1c-0.5-0.5-1.1-0.9-1.8-1.2c-0.7-0.3-1.4-0.4-2.2-0.4c-0.8,0-1.5,0.2-2.2,0.4
	c-0.7,0.3-1.3,0.7-1.8,1.2s-0.9,1.1-1.2,1.8c-0.3,0.7-0.5,1.4-0.5,2.2s0.1,1.5,0.4,2.2s0.7,1.3,1.2,1.9c0.5,0.5,1.2,1,1.9,1.2
	c0.7,0.3,1.4,0.4,2.2,0.4h3.9v-1.5h-3.9c-0.9,0-1.8-0.3-2.5-0.8s-1.2-1.2-1.5-2.1l-0.2-0.8h9.9V36c0-0.8-0.2-1.5-0.4-2.2
	C85.6,33.2,85.2,32.6,84.7,32.1 M84.2,35.3c-0.4,0-0.9,0-1.6,0s-1.4,0-2.1,0h-4.2l0.2-0.6c0.2-0.6,0.6-1.1,1-1.6
	c0.8-0.8,1.9-1.2,3-1.2c1,0,1.8,0.3,2.5,0.8s1.2,1.2,1.5,2l0.2,0.6H84.2z"/>
<path class="st1" d="M82.6,65.1c0.3-0.7,0.4-1.4,0.4-2.1c0-0.8-0.1-1.5-0.4-2.1c-0.3-0.7-0.7-1.2-1.2-1.7s-1.1-0.9-1.8-1.2
	c-0.7-0.3-1.4-0.4-2.1-0.4h-8.4c-0.8,0-1.5-0.3-2.1-0.9c-0.6-0.6-0.8-1.3-0.8-2.1s0.3-1.5,0.8-2.1c0.6-0.6,1.3-0.9,2.1-0.9h11.8
	v-2.5H69.1c-0.8,0-1.5,0.1-2.1,0.4c-0.7,0.3-1.2,0.7-1.7,1.2s-0.9,1.1-1.2,1.7c-0.3,0.7-0.4,1.4-0.4,2.1c0,0.8,0.1,1.5,0.4,2.1
	c0.3,0.7,0.7,1.3,1.2,1.8s1.1,0.9,1.7,1.2c0.7,0.3,1.4,0.4,2.1,0.4h8.4c0.8,0,1.6,0.3,2.1,0.8c0.6,0.6,0.9,1.3,0.9,2.1
	s-0.3,1.6-0.8,2.1c-0.6,0.6-1.3,0.9-2.1,0.9H65.8v2.5h11.8c0.8,0,1.5-0.1,2.1-0.4c0.7-0.3,1.2-0.7,1.7-1.2S82.3,65.7,82.6,65.1"/>
<path class="st1" d="M128.1,62.4c0.5-1.2,0.8-2.5,0.8-3.9s-0.3-2.7-0.8-3.9s-1.3-2.3-2.2-3.2c-0.9-0.9-2-1.6-3.2-2.2
	c-1.2-0.5-2.5-0.8-3.9-0.8s-2.7,0.3-3.9,0.8c-1.2,0.5-2.3,1.2-3.2,2.1c-0.9,0.9-1.6,2-2.1,3.2s-0.8,2.5-0.8,3.9v20.1h2.6v-10h7.4
	c1.4,0,2.7-0.3,3.9-0.8c1.2-0.5,2.3-1.3,3.2-2.2C126.8,64.7,127.6,63.6,128.1,62.4 M124.1,63.8c-0.7,0.7-1.5,1.2-2.4,1.6
	s-1.9,0.6-2.9,0.6h-7.4v-7.5c0-1,0.2-2,0.6-2.9s0.9-1.7,1.6-2.4s1.5-1.2,2.4-1.6c0.9-0.4,1.9-0.6,2.9-0.6s2,0.2,2.9,0.6
	c0.9,0.4,1.7,0.9,2.4,1.6c0.7,0.7,1.2,1.5,1.6,2.4s0.6,1.9,0.6,2.9s-0.2,2-0.6,2.9C125.3,62.3,124.8,63.1,124.1,63.8"/>
<rect x="131.4" y="49.1" class="st1" width="2.4" height="19.3"/>
<path class="st1" d="M153.1,51.4c-0.9-0.9-2-1.6-3.2-2.1s-2.5-0.8-3.9-0.8s-2.7,0.3-3.8,0.8c-1.2,0.5-2.2,1.2-3.1,2.1
	c-0.9,0.9-1.6,2-2.2,3.2c-0.5,1.2-0.8,2.5-0.8,3.9c0,1.3,0.3,2.6,0.8,3.8s1.2,2.3,2.2,3.2c0.9,0.9,2,1.7,3.2,2.2s2.5,0.8,3.8,0.8
	h6.8v-2.6h-6.8c-1.6,0-3.1-0.5-4.4-1.4c-1.3-0.9-2.1-2.1-2.6-3.6l-0.3-1.3h17.3v-1.1c0-1.4-0.3-2.7-0.8-3.9
	C154.8,53.3,154,52.3,153.1,51.4 M152.2,56.9c-0.6,0-1.6,0-2.7,0c-1.2,0-2.4,0-3.6,0h-7.3l0.4-1.1c0.4-1.1,1-2,1.8-2.8
	c1.5-1.4,3.2-2.1,5.3-2.1c1.7,0,3.1,0.5,4.4,1.4c1.3,0.9,2.1,2.1,2.6,3.5l0.4,1.1L152.2,56.9z"/>
<path class="st1" d="M175.5,51.4c-0.9-0.9-2-1.6-3.2-2.1s-2.5-0.8-3.9-0.8s-2.7,0.3-3.9,0.8s-2.3,1.2-3.2,2.1
	c-0.9,0.9-1.6,2-2.1,3.2s-0.8,2.5-0.8,3.9v10h2.6v-10c0-1,0.2-2,0.6-2.9c0.4-0.9,0.9-1.7,1.6-2.3c0.7-0.7,1.5-1.2,2.3-1.6
	c0.9-0.4,1.9-0.6,2.9-0.6s2,0.2,2.9,0.6c0.9,0.4,1.7,0.9,2.4,1.6c0.7,0.7,1.2,1.5,1.6,2.3c0.4,0.9,0.6,1.9,0.6,2.9v10h2.6v-10
	c0-1.4-0.3-2.7-0.8-3.9C177.1,53.3,176.4,52.3,175.5,51.4"/>
<path class="st1" d="M199.6,65.1c0.3-0.7,0.4-1.4,0.4-2.1c0-0.8-0.1-1.5-0.4-2.1c-0.3-0.7-0.7-1.2-1.2-1.7s-1.1-0.9-1.8-1.2
	s-1.4-0.4-2.1-0.4h-8.4c-0.8,0-1.5-0.3-2.1-0.9c-0.6-0.6-0.8-1.3-0.8-2.1s0.3-1.5,0.8-2.1c0.6-0.6,1.3-0.9,2.1-0.9h11.8v-2.5h-11.8
	c-0.8,0-1.5,0.1-2.1,0.4c-0.7,0.3-1.2,0.7-1.7,1.2s-0.9,1.1-1.2,1.7c-0.3,0.7-0.4,1.4-0.4,2.1c0,0.8,0.1,1.5,0.4,2.1
	c0.3,0.7,0.7,1.3,1.2,1.8s1.1,0.9,1.7,1.2c0.7,0.3,1.4,0.4,2.1,0.4h8.4c0.8,0,1.6,0.3,2.1,0.8c0.6,0.6,0.9,1.3,0.9,2.1
	s-0.3,1.6-0.8,2.1c-0.6,0.6-1.3,0.9-2.1,0.9h-11.8v2.5h11.8c0.8,0,1.5-0.1,2.1-0.4c0.7-0.3,1.2-0.7,1.7-1.2S199.3,65.7,199.6,65.1"
	/>
<path class="st1" d="M103.6,66v3.2h2.7V58.5c0-1.3-0.3-2.6-0.8-3.7c-0.5-1.2-1.3-2.3-2.2-3.3c-1-0.9-2.1-1.7-3.3-2.2
	c-1.2-0.5-2.6-0.8-4-0.8s-2.8,0.3-4,0.8c-1.3,0.5-2.4,1.3-3.3,2.2s-1.7,2-2.2,3.3c-0.5,1.2-0.8,2.6-0.8,4s0.3,2.8,0.8,4
	c0.5,1.3,1.3,2.4,2.2,3.3c0.9,0.9,2,1.7,3.3,2.2s2.6,0.8,4,0.8s2.8-0.3,4-0.8c0.8-0.3,1.5-0.8,2.2-1.3L103.6,66z M98.9,65.9
	c-0.9,0.4-2,0.6-3,0.6c-1.1,0-2.1-0.2-3-0.6s-1.8-1-2.5-1.6c-0.7-0.7-1.3-1.5-1.6-2.5c-0.4-0.9-0.6-2-0.6-3c0-1.1,0.2-2.1,0.6-3
	s0.9-1.7,1.6-2.4s1.5-1.3,2.5-1.6c0.9-0.4,2-0.6,3-0.6c1.1,0,2.1,0.2,3,0.6c0.9,0.4,1.8,0.9,2.5,1.6c0.7,0.7,1.3,1.5,1.6,2.4
	c0.4,0.8,0.6,1.7,0.6,2.7V59c0,1-0.2,1.9-0.6,2.8c-0.4,0.9-0.9,1.8-1.6,2.5C100.6,65,99.8,65.5,98.9,65.9"/>
<g>
	<path class="st2" d="M4.3,71.5c0,0,0.1-0.2,0.2-0.6s0.3-1,0.5-1.7s0.5-1.6,0.9-2.6c0.2-0.5,0.4-1,0.6-1.6s0.5-1.1,0.7-1.8
		c0.5-1.2,1.1-2.5,1.7-3.9c0.3-0.7,0.7-1.4,1-2.1c0.4-0.7,0.7-1.4,1.2-2.1c0.2-0.4,0.4-0.7,0.6-1.1c0.2-0.4,0.4-0.7,0.7-1.1
		c0.4-0.7,0.9-1.4,1.4-2.2c0.5-0.7,1-1.4,1.5-2.2c0.5-0.7,1-1.4,1.6-2.1c0.6-0.7,1.1-1.4,1.7-2c0.3-0.3,0.6-0.7,0.9-1
		s0.6-0.6,0.9-0.9c0.3-0.3,0.6-0.6,0.9-0.9c0.3-0.3,0.6-0.6,0.9-0.9c0.6-0.6,1.3-1.1,1.9-1.7c1.3-1.1,2.5-2,3.8-2.9
		c0.6-0.4,1.3-0.8,1.9-1.2c0.3-0.2,0.6-0.4,0.9-0.5c0.3-0.2,0.6-0.3,0.9-0.5c1.1-0.7,2.3-1.1,3.3-1.6c1-0.4,1.9-0.7,2.6-1
		c1.5-0.4,2.3-0.7,2.3-0.7s-0.8,0.3-2.3,0.8c-0.7,0.3-1.6,0.7-2.5,1.1c-0.9,0.5-2,1-3.2,1.7c-0.3,0.2-0.6,0.3-0.9,0.5
		s-0.6,0.4-0.9,0.6c-0.6,0.4-1.2,0.8-1.8,1.2c-1.2,0.9-2.5,1.9-3.7,2.9c-0.6,0.5-1.2,1.1-1.8,1.7c-0.3,0.3-0.6,0.6-0.9,0.9
		c-0.3,0.3-0.6,0.6-0.9,0.9c-0.3,0.3-0.6,0.6-0.9,0.9c-0.3,0.3-0.6,0.7-0.9,1c-0.6,0.6-1.1,1.3-1.7,2c-0.5,0.7-1.1,1.4-1.6,2.1
		c-0.5,0.7-1,1.4-1.5,2.1c-0.5,0.7-1,1.4-1.4,2.1c-0.2,0.4-0.5,0.7-0.7,1.1c-0.2,0.4-0.4,0.7-0.6,1.1c-0.4,0.7-0.8,1.4-1.2,2.1
		c-0.4,0.7-0.7,1.4-1.1,2C8.6,60.7,8,62,7.4,63.2c-0.5,1.2-1,2.3-1.4,3.3s-0.7,1.9-1,2.6s-0.5,1.3-0.6,1.7
		C4.4,71.3,4.3,71.5,4.3,71.5"/>
	<path class="st3" d="M2,62.2c0,0,0.1-0.2,0.3-0.6c0.2-0.4,0.5-0.9,0.8-1.6c0.8-1.3,1.9-3.2,3.4-5.3c0.8-1,1.6-2.2,2.6-3.3
		s2-2.3,3.2-3.5c0.6-0.6,1.2-1.2,1.8-1.7c0.3-0.3,0.6-0.6,0.9-0.9c0.3-0.3,0.6-0.6,1-0.8c0.6-0.6,1.3-1.1,2-1.6s1.4-1,2.1-1.6
		c1.4-1,2.9-1.9,4.4-2.8c0.4-0.2,0.7-0.4,1.1-0.6c0.4-0.2,0.8-0.4,1.1-0.6c0.4-0.2,0.7-0.4,1.1-0.6c0.4-0.2,0.8-0.3,1.1-0.5
		c0.7-0.3,1.5-0.7,2.2-1s1.4-0.6,2.2-0.8c0.7-0.2,1.4-0.5,2.1-0.7c0.7-0.2,1.3-0.4,2-0.6c0.6-0.2,1.2-0.3,1.8-0.4
		c0.6-0.1,1.1-0.3,1.7-0.3c0.5-0.1,1-0.2,1.5-0.3s0.9-0.2,1.2-0.2c1.5-0.2,2.4-0.3,2.4-0.3s-0.9,0.2-2.3,0.4
		c-0.4,0.1-0.8,0.2-1.2,0.3s-0.9,0.2-1.4,0.3S40,32.9,39.5,33c-0.6,0.2-1.2,0.3-1.8,0.5s-1.3,0.4-1.9,0.6c-0.7,0.2-1.3,0.5-2,0.7
		s-1.4,0.6-2.1,0.9c-0.4,0.2-0.7,0.3-1.1,0.5s-0.7,0.3-1.1,0.5s-0.7,0.3-1.1,0.5s-0.7,0.4-1.1,0.6c-0.7,0.4-1.5,0.8-2.2,1.2
		c-1.6,1.1-3.1,2-4.5,3c-0.7,0.5-1.4,1-2.1,1.5s-1.4,1-2,1.6c-0.3,0.3-0.6,0.5-1,0.8c-0.3,0.3-0.6,0.6-0.9,0.8
		c-0.6,0.5-1.2,1.1-1.8,1.7c-1.1,1.1-2.2,2.3-3.2,3.4c-1,1.1-1.9,2.2-2.7,3.2s-1.5,2-2.1,2.8c-0.6,0.9-1.1,1.6-1.5,2.3
		c-0.4,0.6-0.7,1.1-0.9,1.5C2.1,62,2,62.2,2,62.2"/>
	<path class="st2" d="M42.3,71.5c0,0-1-2.4-2.1-6.2c-0.6-1.9-1.2-4-1.9-6.4c-0.3-1.2-0.6-2.4-0.9-3.7c-0.3-1.2-0.6-2.5-0.9-3.8
		c-0.3-1.3-0.5-2.6-0.7-3.8c-0.2-1.3-0.4-2.5-0.6-3.7c-0.1-0.6-0.2-1.2-0.2-1.8c-0.1-0.6-0.1-1.2-0.2-1.7c-0.1-1.1-0.1-2.2-0.2-3.2
		c0-0.5,0-1,0-1.4s0-0.9,0-1.3c0-0.4,0.1-0.8,0.1-1.1s0.1-0.7,0.1-0.9c0.1-0.6,0.2-1,0.2-1.3c0.1-0.3,0.1-0.5,0.1-0.5s0,0.2-0.1,0.5
		c0,0.3-0.1,0.7-0.1,1.3c-0.1,0.6-0.1,1.3-0.1,2c0,0.4,0,0.8,0,1.3c0,0.4,0,0.9,0.1,1.4c0.1,1,0.2,2,0.3,3.1s0.3,2.3,0.5,3.5
		c0.1,0.6,0.2,1.2,0.3,1.8s0.2,1.2,0.3,1.9c0.2,1.3,0.5,2.5,0.8,3.8s0.5,2.5,0.8,3.8c0.3,1.2,0.6,2.5,0.9,3.7
		c0.3,1.2,0.6,2.3,0.9,3.4c0.3,1.1,0.5,2.1,0.8,3C41.6,69,42.3,71.5,42.3,71.5"/>
	<path class="st3" d="M28.9,31.8L28.9,31.8c0.1,0.1,0.2,0.1,0.2,0.1l0.1,0.1c0.2,0.2,0.6,0.4,0.9,0.8c0.2,0.2,0.4,0.4,0.6,0.6
		c0.1,0.1,0.2,0.2,0.4,0.4c0.1,0.1,0.2,0.3,0.4,0.4c0.5,0.6,1,1.2,1.6,2c0.6,0.7,1.2,1.6,1.8,2.4c0.6,0.9,1.3,1.8,2,2.7
		c0.7,1,1.3,2,2,3c0.3,0.5,0.7,1,1,1.5s0.7,1.1,1,1.6c0.7,1.1,1.3,2.1,2,3.2c0.6,1,1.3,2.1,1.9,3.1c0.6,1,1.1,2,1.7,2.9
		c0.5,0.9,1,1.8,1.5,2.6c1.8,3.3,3,5.5,3,5.5s-1.4-2.1-3.4-5.2c-0.5-0.8-1-1.7-1.6-2.6C45.4,56,44.8,55,44.2,54s-1.3-2-1.9-3
		c-0.6-1-1.3-2.1-2-3.1c-0.3-0.5-0.6-1.1-1-1.6c-0.3-0.5-0.7-1-1-1.5c-0.7-1-1.3-2-1.9-3c-0.6-1-1.3-1.9-1.9-2.8
		c-0.6-0.9-1.2-1.7-1.7-2.5c-0.6-0.7-1.1-1.4-1.5-2c-0.1-0.2-0.2-0.3-0.3-0.4c-0.1-0.1-0.2-0.3-0.3-0.4c-0.2-0.3-0.4-0.5-0.6-0.7
		c-0.3-0.4-0.6-0.7-0.9-0.9C29.1,32,29.1,32,29.1,32C29.1,31.9,29,31.9,28.9,31.8L28.9,31.8"/>
	<path class="st4" d="M20.5,34.7c0,0,0,0-0.1,0.1c0,0.1-0.1,0.2-0.1,0.3s0,0.2-0.1,0.3c0,0.1,0,0.2,0,0.3c0,0.2-0.1,0.5-0.1,0.8
		c0,0.1,0,0.3,0,0.5s0,0.3,0,0.5c0,0.4,0,0.7,0,1.1c0,0.4,0,0.8,0.1,1.3s0.1,0.9,0.2,1.4s0.2,1,0.2,1.6c0.1,0.5,0.2,1.1,0.3,1.7
		c0.2,1.1,0.4,2.3,0.7,3.6c0.1,0.6,0.3,1.2,0.4,1.9c0.1,0.6,0.3,1.3,0.5,1.9c0.2,0.6,0.3,1.3,0.5,2s0.3,1.3,0.5,2s0.3,1.3,0.5,2
		c0.1,0.3,0.2,0.7,0.3,1c0.1,0.3,0.2,0.6,0.3,1c0.4,1.3,0.7,2.5,1.1,3.8c0.7,2.4,1.4,4.7,1.9,6.7c1.2,3.9,1.9,6.5,1.9,6.5
		s-1-2.5-2.3-6.4c-0.3-1-0.7-2-1-3.1c-0.4-1.1-0.8-2.3-1.1-3.5c-0.4-1.2-0.8-2.5-1.1-3.8c-0.1-0.3-0.2-0.6-0.3-1
		c-0.1-0.3-0.2-0.7-0.3-1c-0.2-0.7-0.4-1.3-0.5-2c-0.2-0.7-0.4-1.3-0.5-2c-0.2-0.7-0.3-1.3-0.5-2s-0.3-1.3-0.4-1.9
		c-0.1-0.6-0.3-1.3-0.4-1.9c-0.3-1.2-0.4-2.5-0.6-3.6c-0.1-0.6-0.2-1.1-0.2-1.7c-0.1-0.5-0.1-1.1-0.2-1.6c0-0.5-0.1-1-0.1-1.5
		s0-0.9,0-1.3c0-0.4,0-0.8,0-1.2c0-0.2,0-0.4,0-0.5c0-0.2,0-0.3,0.1-0.5c0-0.1,0-0.3,0.1-0.4c0-0.1,0.1-0.3,0.1-0.4
		c0-0.1,0.1-0.2,0.1-0.3s0.1-0.2,0.1-0.3c0-0.2,0.1-0.3,0.1-0.3C20.5,34.7,20.5,34.7,20.5,34.7"/>
	<path class="st4" d="M57.4,54.2c0,0-0.5-0.4-1.4-1.2c-0.9-0.7-2.2-1.8-3.8-3c-0.8-0.6-1.7-1.2-2.6-1.9c-0.9-0.7-1.9-1.4-2.9-2.1
		c-1-0.7-2.1-1.4-3.2-2.1c-1.1-0.7-2.2-1.4-3.3-2.1c-0.6-0.3-1.1-0.7-1.7-1c-0.6-0.3-1.1-0.7-1.7-1c-1.1-0.6-2.3-1.2-3.4-1.7
		c-0.3-0.1-0.6-0.3-0.8-0.4c-0.3-0.1-0.6-0.2-0.8-0.4c-0.3-0.1-0.5-0.2-0.8-0.3s-0.5-0.2-0.8-0.3c-0.5-0.2-1-0.4-1.6-0.6
		c-0.5-0.2-1-0.3-1.5-0.5c-0.2-0.1-0.5-0.1-0.7-0.2c-0.2-0.1-0.5-0.1-0.7-0.2c-0.4-0.1-0.9-0.2-1.2-0.3c-0.4-0.1-0.8-0.1-1.1-0.2
		c-0.3,0-0.7-0.1-1-0.1c-0.1,0-0.3,0-0.4,0s-0.2,0-0.4,0c-0.2,0-0.4,0-0.6,0c-0.3,0-0.5,0-0.5,0s0.2,0,0.5,0c0.2,0,0.3,0,0.6,0
		c0.1,0,0.2,0,0.4,0c0.1,0,0.3,0,0.4,0c0.3,0,0.6,0,1,0s0.7,0.1,1.1,0.1s0.8,0.1,1.3,0.2c0.2,0,0.5,0.1,0.7,0.1
		c0.2,0.1,0.5,0.1,0.7,0.2c0.5,0.1,1,0.2,1.5,0.4s1.1,0.3,1.6,0.5c0.3,0.1,0.5,0.2,0.8,0.3s0.6,0.2,0.8,0.3c0.3,0.1,0.6,0.2,0.8,0.3
		c0.3,0.1,0.6,0.2,0.9,0.4c0.6,0.2,1.2,0.5,1.7,0.8c0.6,0.3,1.2,0.6,1.7,0.9c0.6,0.3,1.2,0.6,1.7,1c0.6,0.3,1.2,0.7,1.7,1
		c1.1,0.7,2.3,1.4,3.4,2.1c0.5,0.4,1.1,0.7,1.6,1.1c0.5,0.4,1,0.7,1.5,1.1c1,0.7,2,1.5,2.9,2.2s1.7,1.4,2.5,2
		C55.5,52.3,57.4,54.2,57.4,54.2"/>
	<path class="st4" d="M13.4,76.7c0,0,0-0.2,0.2-0.7c0.1-0.4,0.3-1.1,0.5-1.8c0.2-0.8,0.5-1.7,0.9-2.8c0.4-1.1,0.8-2.3,1.4-3.6
		c0.5-1.3,1.2-2.7,1.9-4.1c0.4-0.7,0.7-1.5,1.1-2.2c0.2-0.4,0.4-0.7,0.6-1.1c0.2-0.4,0.4-0.7,0.7-1.1c0.4-0.8,0.9-1.5,1.4-2.3
		s1-1.5,1.6-2.3c0.6-0.7,1.1-1.5,1.7-2.2c0.3-0.4,0.6-0.7,0.9-1.1l0.9-1.1c1.2-1.4,2.6-2.8,3.9-4.1c0.7-0.6,1.4-1.2,2.1-1.8
		s1.4-1.1,2.1-1.7c0.7-0.5,1.4-1,2.1-1.5c0.7-0.5,1.4-0.9,2.1-1.3c0.7-0.4,1.4-0.8,2.1-1.1c0.7-0.4,1.3-0.7,2-1
		c0.6-0.3,1.3-0.6,1.8-0.8c0.6-0.2,1.2-0.5,1.7-0.7s1-0.4,1.5-0.5c0.5-0.2,0.9-0.3,1.3-0.4c1.6-0.4,2.5-0.7,2.5-0.7S51.5,35,50,35.5
		c-0.4,0.1-0.8,0.3-1.3,0.5s-1,0.4-1.5,0.6c-0.5,0.2-1.1,0.5-1.6,0.7c-0.3,0.1-0.6,0.3-0.9,0.4c-0.3,0.1-0.6,0.3-0.9,0.5
		c-0.6,0.3-1.3,0.6-1.9,1c-0.6,0.4-1.3,0.8-2,1.2s-1.3,0.9-2,1.4s-1.4,1-2.1,1.5c-0.7,0.5-1.4,1.1-2.1,1.7c-0.3,0.3-0.7,0.6-1,0.9
		c-0.3,0.3-0.7,0.6-1,0.9c-1.3,1.3-2.6,2.6-3.8,4L27,51.9c-0.3,0.4-0.6,0.7-0.9,1.1c-0.6,0.7-1.1,1.5-1.7,2.2
		c-0.3,0.4-0.5,0.7-0.8,1.1c-0.3,0.4-0.5,0.7-0.8,1.1c-0.5,0.8-1,1.5-1.4,2.2c-0.2,0.4-0.5,0.7-0.7,1.1c-0.2,0.4-0.4,0.7-0.6,1.1
		c-0.4,0.7-0.8,1.5-1.2,2.2c-0.7,1.4-1.4,2.8-2,4.1c-0.6,1.3-1.1,2.5-1.5,3.5c-0.4,1.1-0.8,2-1,2.8c-0.3,0.8-0.5,1.4-0.6,1.8
		C13.4,76.5,13.4,76.7,13.4,76.7"/>
	<path class="st3" d="M16.9,77.6c0,0,0-0.2,0-0.5c0-0.4-0.1-0.9-0.1-1.6c-0.1-1.3-0.2-3.3-0.2-5.6c0-1.1,0-2.4,0.1-3.7
		c0-1.3,0.1-2.7,0.2-4.1c0.1-1.4,0.2-2.9,0.4-4.4c0.2-1.5,0.4-3,0.7-4.5c0.3-1.5,0.6-3,1-4.5s0.8-2.9,1.3-4.3
		c0.9-2.7,2.1-5.2,3.4-7.1c0.6-1,1.3-1.8,1.9-2.5s1.2-1.3,1.7-1.7c0.1-0.1,0.2-0.2,0.4-0.3c0.1-0.1,0.2-0.2,0.3-0.3
		c0.2-0.2,0.4-0.3,0.5-0.4c0.3-0.2,0.5-0.3,0.5-0.3s-0.1,0.1-0.4,0.3c-0.1,0.1-0.3,0.3-0.5,0.4c-0.1,0.1-0.2,0.2-0.3,0.3
		c-0.1,0.1-0.2,0.2-0.3,0.3c-0.5,0.5-1,1.1-1.6,1.8s-1.2,1.6-1.7,2.6c-0.6,1-1.1,2.1-1.7,3.3c-0.5,1.2-1,2.5-1.4,3.8
		c-0.4,1.4-0.8,2.8-1.2,4.2c-0.4,1.5-0.7,2.9-0.9,4.4c-0.3,1.5-0.5,3-0.7,4.5s-0.4,3-0.5,4.4C17.3,65,17.1,67.7,17,70
		s-0.1,4.2-0.1,5.5c0,0.7,0,1.2,0,1.6C16.9,77.4,16.9,77.6,16.9,77.6"/>
	<path class="st2" d="M24.8,33.1L24.8,33.1c-0.1,0.2-0.2,0.3-0.3,0.4c-0.1,0.1-0.2,0.3-0.3,0.5c-0.1,0.2-0.3,0.5-0.4,0.7
		c-0.2,0.3-0.3,0.6-0.4,0.9c-0.1,0.2-0.2,0.3-0.2,0.5c-0.1,0.2-0.1,0.4-0.2,0.6c-0.3,0.8-0.6,1.7-0.8,2.8c-0.2,1-0.5,2.2-0.6,3.4
		c0,0.3-0.1,0.6-0.1,0.9c0,0.3-0.1,0.6-0.1,0.9c-0.4,0.7-0.4,1.3-0.5,2c0,0.3-0.1,0.7-0.1,1s0,0.7,0,1c0,0.7-0.1,1.4-0.1,2.1
		c0,1.4,0,2.8,0,4.2s0.1,2.8,0.2,4.2c0,0.7,0.1,1.4,0.1,2.1c0.1,0.7,0.1,1.4,0.2,2c0.1,0.7,0.1,1.3,0.2,2c0.1,0.6,0.1,1.3,0.2,1.9
		c0.1,1.2,0.3,2.4,0.4,3.4c0,0.5,0.1,1,0.2,1.5s0.1,0.9,0.2,1.4c0.1,0.9,0.2,1.6,0.3,2.2c0.2,1.2,0.2,1.9,0.2,1.9s-0.1-0.7-0.4-1.9
		c-0.1-0.6-0.3-1.4-0.4-2.2c-0.2-0.9-0.4-1.8-0.5-2.9c-0.2-1.1-0.3-2.2-0.5-3.4c-0.1-0.6-0.2-1.2-0.3-1.9c-0.1-0.6-0.1-1.3-0.2-2
		c-0.1-0.7-0.1-1.3-0.2-2s-0.2-1.4-0.2-2.1c-0.1-1.4-0.1-2.8-0.2-4.3c0-1.4,0-2.9,0-4.3c0-0.7,0.1-1.4,0.1-2.1c0-0.3,0-0.7,0.1-1
		c0-0.3,0.1-0.7,0.1-1c0.1-0.7,0.2-1.3,0.2-2c0-0.3,0.1-0.6,0.2-0.9c0.1-0.3,0.1-0.6,0.2-0.9c0.2-1.2,0.5-2.3,0.8-3.4
		c0.3-1,0.6-2,1-2.8c0.1-0.2,0.2-0.4,0.2-0.6c0.1-0.2,0.2-0.4,0.3-0.5c0.2-0.3,0.3-0.6,0.5-0.9c0.2-0.3,0.3-0.5,0.5-0.7
		c0.1-0.2,0.3-0.4,0.4-0.5C24.6,33.3,24.6,33.2,24.8,33.1L24.8,33.1"/>
	<path class="st2" d="M18.8,77.6c0,0,0.1-0.9,0.4-2.4s0.8-3.7,1.5-6.2c0.4-1.3,0.8-2.6,1.3-4.1c0.1-0.4,0.2-0.7,0.4-1.1
		c0.1-0.4,0.3-0.7,0.4-1.1c0.3-0.8,0.6-1.5,0.9-2.3s0.6-1.5,1-2.3s0.7-1.6,1.1-2.3c0.4-0.8,0.8-1.6,1.2-2.3c0.2-0.4,0.4-0.8,0.6-1.2
		l0.7-1.1l0.3-0.6L29,50c0.2-0.4,0.5-0.7,0.7-1.1c0.5-0.7,1-1.4,1.5-2.2c0.5-0.7,1-1.4,1.6-2c0.3-0.3,0.5-0.7,0.8-1
		c0.1-0.2,0.3-0.3,0.4-0.5c0.1-0.2,0.3-0.3,0.4-0.5c0.6-0.6,1.1-1.2,1.7-1.8c0.6-0.5,1.1-1.1,1.7-1.6c0.6-0.5,1.1-1,1.7-1.4
		c0.3-0.2,0.6-0.4,0.8-0.6c0.1-0.1,0.3-0.2,0.4-0.3c0.1-0.1,0.3-0.2,0.4-0.3c0.6-0.4,1.1-0.7,1.6-1s1-0.6,1.5-0.8
		c0.5-0.3,0.9-0.4,1.4-0.6c0.4-0.2,0.8-0.4,1.2-0.5c0.7-0.3,1.3-0.5,1.7-0.6s0.6-0.2,0.6-0.2s-0.8,0.3-2.2,0.9
		c-0.3,0.2-0.7,0.4-1.1,0.6c-0.4,0.2-0.9,0.4-1.3,0.7c-0.5,0.3-0.9,0.6-1.5,0.9c-0.5,0.3-1,0.7-1.5,1.1c-0.1,0.1-0.3,0.2-0.4,0.3
		c-0.1,0.1-0.3,0.2-0.4,0.3c-0.3,0.2-0.5,0.4-0.8,0.6c-0.6,0.4-1.1,0.9-1.7,1.4c-0.6,0.5-1.1,1-1.7,1.6c-0.6,0.5-1.1,1.2-1.6,1.8
		c-0.1,0.2-0.3,0.3-0.4,0.5c-0.1,0.2-0.3,0.3-0.4,0.5c-0.3,0.3-0.5,0.6-0.8,1c-0.3,0.3-0.5,0.7-0.8,1s-0.5,0.7-0.8,1
		c-0.5,0.7-1,1.4-1.5,2.1c-0.2,0.4-0.5,0.7-0.7,1.1L29.2,51l-0.3,0.6l-0.7,1.1c-0.2,0.4-0.4,0.8-0.6,1.1c-0.4,0.8-0.8,1.5-1.2,2.3
		c-0.2,0.4-0.4,0.8-0.6,1.2s-0.4,0.8-0.5,1.1c-0.3,0.8-0.7,1.5-1,2.3s-0.6,1.5-0.9,2.2c-0.1,0.4-0.3,0.7-0.4,1.1
		c-0.1,0.4-0.3,0.7-0.4,1.1c-0.5,1.4-1,2.8-1.4,4c-0.4,1.3-0.8,2.4-1,3.4c-0.3,1-0.5,1.9-0.7,2.7C19.2,76,19.1,76.6,19,77
		S18.8,77.6,18.8,77.6"/>
	<path class="st3" d="M45.2,31.8c0,0-0.2,0.1-0.5,0.3c-0.3,0.2-0.8,0.6-1.3,1c-0.3,0.2-0.6,0.5-0.9,0.8c-0.2,0.1-0.3,0.3-0.5,0.4
		c-0.2,0.1-0.3,0.3-0.5,0.5c-0.3,0.3-0.7,0.7-1.1,1.1c-0.4,0.4-0.8,0.8-1.2,1.3c-0.4,0.4-0.8,1-1.2,1.5c-0.1,0.1-0.2,0.3-0.3,0.4
		c-0.1,0.1-0.2,0.3-0.3,0.4c-0.2,0.3-0.4,0.5-0.6,0.8c-0.8,1.1-1.5,2.4-2.3,3.7c-0.4,0.7-0.7,1.3-1.1,2c-0.3,0.7-0.7,1.4-1,2.1
		c-0.6,1.4-1.3,2.9-1.8,4.4l-0.4,1.1c-0.1,0.4-0.3,0.8-0.4,1.1c-0.3,0.8-0.5,1.5-0.7,2.3s-0.4,1.5-0.6,2.3s-0.4,1.5-0.6,2.2
		s-0.3,1.5-0.5,2.2c-0.2,0.7-0.3,1.4-0.4,2.1c-0.3,1.4-0.5,2.6-0.7,3.8c-0.2,1.2-0.3,2.3-0.5,3.3c-0.1,1-0.2,1.8-0.3,2.5
		c-0.1,0.7-0.1,1.3-0.2,1.6c0,0.4,0,0.6,0,0.6s0-0.8,0.1-2.2c0.1-1.4,0.2-3.4,0.5-5.8c0.2-1.2,0.3-2.5,0.6-3.9
		c0.2-1.4,0.5-2.8,0.8-4.3c0.2-0.7,0.4-1.5,0.5-2.3c0.2-0.8,0.4-1.5,0.6-2.3s0.4-1.5,0.7-2.3c0.1-0.4,0.3-0.8,0.4-1.2l0.4-1.1
		c0.6-1.5,1.2-3,1.8-4.5c0.3-0.7,0.7-1.4,1.1-2.1c0.4-0.7,0.7-1.4,1.1-2c0.8-1.3,1.6-2.5,2.4-3.7c0.2-0.3,0.4-0.6,0.6-0.8
		c0.1-0.1,0.2-0.3,0.3-0.4c0.1-0.1,0.2-0.3,0.3-0.4c0.4-0.5,0.8-1,1.3-1.4c0.4-0.4,0.8-0.9,1.2-1.3c0.4-0.4,0.8-0.7,1.2-1
		c0.2-0.2,0.4-0.3,0.5-0.5c0.2-0.1,0.4-0.3,0.5-0.4c0.3-0.3,0.7-0.5,0.9-0.7c0.6-0.4,1.1-0.7,1.4-0.9C45,31.9,45.2,31.8,45.2,31.8"
		/>
	<path class="st4" d="M2,54.2c0,0,0.1-0.2,0.4-0.5c0.2-0.3,0.6-0.8,1.1-1.4c0.5-0.6,1.1-1.3,1.9-2c0.4-0.4,0.8-0.8,1.2-1.2
		C7,48.8,7.4,48.4,7.9,48c1-0.9,2.1-1.7,3.3-2.6c1.2-0.9,2.5-1.8,3.9-2.6c0.7-0.4,1.4-0.8,2.2-1.2c0.7-0.4,1.5-0.8,2.3-1.2
		c0.4-0.2,0.8-0.4,1.2-0.6c0.4-0.2,0.8-0.3,1.2-0.5c0.8-0.4,1.6-0.7,2.4-1l0.6-0.2l0.6-0.2c0.4-0.1,0.8-0.3,1.2-0.4
		c0.8-0.3,1.7-0.5,2.5-0.7s1.7-0.4,2.5-0.6c0.8-0.2,1.6-0.3,2.4-0.5c0.8-0.1,1.6-0.3,2.4-0.4c0.4-0.1,0.8-0.1,1.2-0.2
		c0.4,0,0.8-0.1,1.1-0.1c0.4,0,0.7-0.1,1.1-0.1c0.4,0,0.7-0.1,1.1-0.1c0.7,0,1.4-0.1,2-0.1c1.3,0,2.5-0.1,3.5,0c1.1,0,2,0,2.7,0.1
		c1.5,0.1,2.4,0.2,2.4,0.2s-0.9,0-2.4,0c-0.8,0-1.7,0-2.7,0c-1.1,0-2.2,0.1-3.5,0.2c-0.6,0-1.3,0.1-2,0.2c-0.3,0-0.7,0.1-1.1,0.1
		c-0.4,0-0.7,0.1-1.1,0.1c-0.4,0.1-0.7,0.1-1.1,0.2c-0.4,0.1-0.8,0.1-1.1,0.2c-0.8,0.1-1.5,0.3-2.3,0.4c-0.8,0.2-1.6,0.3-2.4,0.5
		c-0.8,0.2-1.6,0.4-2.4,0.6c-0.8,0.3-1.6,0.5-2.4,0.8c-0.4,0.1-0.8,0.3-1.2,0.4l-0.6,0.2L24.6,39c-0.8,0.3-1.6,0.6-2.4,1
		c-0.4,0.2-0.8,0.3-1.2,0.5c-0.4,0.2-0.8,0.4-1.2,0.5l-0.6,0.3l-0.6,0.3c-0.4,0.2-0.7,0.4-1.1,0.6c-0.7,0.4-1.5,0.8-2.1,1.2
		c-0.7,0.4-1.4,0.8-2,1.2c-0.7,0.4-1.3,0.8-1.9,1.2c-1.2,0.8-2.3,1.7-3.3,2.5s-1.9,1.6-2.7,2.3s-1.4,1.4-2,1.9
		c-0.5,0.5-0.9,1-1.2,1.3C2.1,54.1,2,54.2,2,54.2"/>
	<path class="st5" d="M12.8,39.6c0,0,0.2-0.1,0.5-0.3s0.8-0.4,1.4-0.6c0.6-0.2,1.4-0.5,2.2-0.7c0.9-0.2,1.9-0.5,3-0.6
		c1.1-0.2,2.3-0.3,3.6-0.4c0.6,0,1.3,0,2-0.1c0.7,0,1.4,0,2.1,0.1c0.4,0,0.7,0,1.1,0.1c0.4,0,0.7,0.1,1.1,0.1
		c0.7,0.1,1.4,0.2,2.2,0.3c0.7,0.1,1.5,0.2,2.2,0.4c0.7,0.1,1.5,0.3,2.2,0.4c0.7,0.2,1.5,0.4,2.2,0.5c0.7,0.2,1.4,0.4,2.1,0.6
		c0.7,0.2,1.4,0.4,2.1,0.7c0.7,0.2,1.4,0.5,2,0.7c0.3,0.1,0.7,0.2,1,0.4c0.3,0.1,0.6,0.3,1,0.4c0.3,0.1,0.6,0.2,0.9,0.4
		c0.3,0.1,0.6,0.3,0.9,0.4c0.6,0.3,1.2,0.5,1.7,0.7c0.5,0.3,1.1,0.5,1.6,0.7c1,0.5,1.9,0.9,2.7,1.4c0.4,0.2,0.8,0.4,1.1,0.6
		c0.3,0.2,0.7,0.4,0.9,0.5c1.1,0.6,1.8,1,1.8,1s-0.7-0.3-1.9-0.9c-0.3-0.1-0.6-0.3-1-0.5s-0.7-0.3-1.2-0.5c-0.8-0.4-1.8-0.8-2.8-1.2
		c-0.5-0.2-1-0.4-1.6-0.7c-0.6-0.2-1.1-0.4-1.7-0.7c-0.3-0.1-0.6-0.2-0.9-0.4c-0.3-0.1-0.6-0.2-0.9-0.3c-0.6-0.2-1.3-0.5-1.9-0.7
		c-0.7-0.2-1.3-0.4-2-0.7c-0.7-0.2-1.4-0.4-2.1-0.6c-0.7-0.2-1.4-0.4-2.1-0.6c-0.7-0.2-1.4-0.3-2.2-0.5c-0.7-0.2-1.4-0.3-2.2-0.5
		c-0.7-0.1-1.4-0.3-2.2-0.4c-0.7-0.1-1.4-0.2-2.1-0.3c-0.4,0-0.7-0.1-1.1-0.1s-0.7-0.1-1-0.1c-0.7-0.1-1.4-0.1-2-0.1
		c-0.7,0-1.3,0-2,0c-1.3,0-2.5,0.1-3.6,0.2c-1.1,0.1-2.1,0.3-3,0.5s-1.6,0.4-2.3,0.6c-0.6,0.2-1.1,0.4-1.4,0.5
		C13,39.5,12.8,39.6,12.8,39.6"/>
	<path class="st5" d="M8.3,74.7c0,0,0.1-0.8,0.3-2.3s0.6-3.5,1.2-6c0.3-1.2,0.6-2.6,1.1-3.9c0.4-1.4,0.9-2.8,1.4-4.3
		c0.6-1.5,1.1-3,1.8-4.5c0.2-0.4,0.3-0.8,0.5-1.1c0.2-0.4,0.4-0.8,0.5-1.1c0.4-0.8,0.8-1.5,1.2-2.3c0.4-0.7,0.8-1.5,1.3-2.2
		s0.9-1.4,1.3-2.1c0.5-0.7,0.9-1.4,1.4-2c0.5-0.7,1-1.3,1.5-1.9c0.3-0.3,0.5-0.6,0.8-0.9c0.3-0.3,0.5-0.6,0.8-0.8
		c0.3-0.3,0.5-0.6,0.8-0.8c0.3-0.3,0.5-0.5,0.8-0.8s0.5-0.5,0.8-0.7s0.5-0.5,0.8-0.7c0.5-0.4,1-0.9,1.5-1.2c0.3-0.2,0.5-0.4,0.7-0.6
		c0.2-0.2,0.5-0.4,0.7-0.5c0.5-0.3,1-0.6,1.4-0.9c0.1-0.1,0.2-0.1,0.3-0.2c0.1-0.1,0.2-0.1,0.3-0.2c0.2-0.1,0.4-0.2,0.6-0.3
		c0.4-0.2,0.8-0.4,1.1-0.6c1.3-0.6,2.1-0.9,2.1-0.9s-0.7,0.4-2,1.1c-0.3,0.2-0.7,0.4-1,0.6c-0.2,0.1-0.4,0.2-0.6,0.4
		c-0.1,0.1-0.2,0.1-0.3,0.2c-0.1,0.1-0.2,0.1-0.3,0.2c-0.4,0.3-0.9,0.6-1.3,0.9c-0.5,0.3-0.9,0.7-1.4,1.1c-0.5,0.4-1,0.8-1.5,1.3
		c-0.2,0.2-0.5,0.5-0.8,0.7c-0.2,0.2-0.5,0.5-0.7,0.8c-0.3,0.3-0.5,0.5-0.8,0.8c-0.2,0.3-0.5,0.6-0.7,0.8c-0.2,0.3-0.5,0.6-0.8,0.9
		c-0.2,0.3-0.5,0.6-0.7,0.9c-0.5,0.6-1,1.2-1.4,1.9c-0.2,0.3-0.5,0.6-0.7,1c-0.2,0.3-0.5,0.7-0.7,1c-0.5,0.7-0.9,1.4-1.3,2.1
		c-0.4,0.7-0.8,1.4-1.2,2.2c-0.4,0.7-0.8,1.5-1.1,2.2c-0.2,0.4-0.4,0.7-0.5,1.1c-0.2,0.4-0.3,0.8-0.5,1.1c-0.7,1.5-1.3,3-1.9,4.5
		c-0.5,1.5-1.1,2.9-1.5,4.3c-0.5,1.4-0.8,2.7-1.2,3.9c-0.3,1.2-0.6,2.3-0.9,3.3c-0.2,1-0.4,1.9-0.6,2.6c-0.1,0.7-0.3,1.3-0.3,1.7
		C8.3,74.5,8.3,74.7,8.3,74.7"/>
	<path class="st5" d="M39.7,30.7c0,0,0,0-0.1,0.1s-0.2,0.1-0.3,0.3c-0.1,0.1-0.2,0.3-0.4,0.5c-0.1,0.2-0.3,0.4-0.5,0.7
		s-0.3,0.6-0.5,0.9c-0.2,0.3-0.3,0.7-0.5,1.1c-0.2,0.4-0.3,0.8-0.5,1.3c-0.1,0.2-0.2,0.5-0.3,0.7s-0.1,0.5-0.2,0.7
		c-0.1,0.5-0.3,1-0.4,1.6c-0.1,0.6-0.2,1.1-0.4,1.7c-0.1,0.6-0.2,1.2-0.3,1.8S35.1,43.4,35,44c-0.1,0.7-0.1,1.3-0.2,2
		c0,0.7-0.1,1.4-0.1,2.1c0,0.7-0.1,1.4-0.1,2.1c0,0.7-0.1,1.4-0.1,2.1c0,1.4,0,2.8,0,4.2c0.1,1.4,0.1,2.8,0.2,4.1
		c0,1.3,0.1,2.6,0.2,3.8c0.1,1.2,0.2,2.4,0.2,3.4c0.1,1.1,0.2,2,0.3,2.9s0.1,1.6,0.2,2.2c0.1,1.2,0.2,1.9,0.2,1.9s-0.1-0.7-0.3-1.9
		c-0.1-0.6-0.2-1.4-0.3-2.2c-0.1-0.9-0.3-1.8-0.4-2.9c-0.1-1.1-0.2-2.2-0.4-3.4c-0.1-1.2-0.3-2.5-0.3-3.8c-0.1-1.3-0.2-2.7-0.2-4.1
		c0-1.4,0-2.8,0-4.2c0-0.7,0-1.4,0.1-2.1c0-0.7,0.1-1.4,0.1-2.1c0-0.7,0.1-1.4,0.2-2.1c0.1-0.7,0.1-1.4,0.2-2
		c0.1-0.7,0.2-1.3,0.3-1.9c0.1-0.6,0.2-1.3,0.4-1.8c0.1-0.6,0.3-1.2,0.4-1.7c0.1-0.6,0.3-1.1,0.5-1.6c0.1-0.3,0.2-0.5,0.2-0.7
		c0.1-0.2,0.2-0.5,0.3-0.7c0.2-0.4,0.3-0.9,0.6-1.3c0.2-0.4,0.4-0.7,0.6-1.1c0.2-0.3,0.4-0.6,0.6-0.9c0.2-0.2,0.4-0.5,0.5-0.6
		c0.2-0.2,0.3-0.3,0.4-0.4c0.1-0.1,0.2-0.2,0.3-0.2C39.7,30.8,39.7,30.7,39.7,30.7"/>
	<path class="st5" d="M5.1,47.2c0,0,0.2-0.1,0.5-0.4c0.3-0.2,0.7-0.6,1.3-1s1.3-0.9,2.2-1.5c0.9-0.5,1.9-1.1,3-1.7
		c1.1-0.6,2.4-1.2,3.7-1.7c1.3-0.6,2.8-1.1,4.3-1.6s3.1-0.9,4.7-1.3c0.4-0.1,0.8-0.2,1.2-0.3c0.4-0.1,0.8-0.2,1.2-0.2l0.6-0.1
		l0.6-0.1l1.2-0.2c0.8-0.1,1.7-0.2,2.5-0.3s1.7-0.1,2.5-0.2c0.8,0,1.7-0.1,2.5-0.1s1.6,0,2.4,0c0.8,0,1.6,0.1,2.3,0.1
		c0.8,0.1,1.5,0.1,2.2,0.2c0.7,0.1,1.4,0.2,2.1,0.3c0.7,0.1,1.3,0.2,1.9,0.3c1.2,0.2,2.4,0.4,3.4,0.7c1,0.2,1.9,0.4,2.6,0.6
		c1.4,0.4,2.2,0.6,2.2,0.6s-0.8-0.2-2.3-0.5c-0.7-0.2-1.6-0.3-2.6-0.5s-2.1-0.3-3.4-0.5c-0.6-0.1-1.3-0.2-1.9-0.2
		c-0.7-0.1-1.4-0.2-2.1-0.2c-0.7,0-1.4-0.1-2.2-0.1s-1.5-0.1-2.3-0.1s-1.6,0-2.4,0c-0.8,0-1.6,0.1-2.4,0.1c-0.8,0.1-1.6,0.1-2.5,0.2
		c-0.8,0.1-1.7,0.2-2.5,0.3L28.4,38L28,38.1l-0.6,0.1c-0.4,0.1-0.8,0.1-1.2,0.2c-0.4,0.1-0.8,0.2-1.2,0.3c-1.6,0.3-3.2,0.7-4.7,1.2
		c-1.5,0.5-2.9,0.9-4.3,1.5c-1.3,0.5-2.6,1-3.7,1.6c-1.1,0.5-2.1,1.1-3,1.6S7.7,45.6,7,46c-0.6,0.4-1.1,0.7-1.4,1
		C5.3,47.1,5.1,47.2,5.1,47.2"/>
</g>
</svg>
