<?xml version="1.0" encoding="UTF-8" standalone="no"?>
<!-- Created with Inkscape (http://www.inkscape.org/) -->

<svg
   xmlns:dc="http://purl.org/dc/elements/1.1/"
   xmlns:cc="http://creativecommons.org/ns#"
   xmlns:rdf="http://www.w3.org/1999/02/22-rdf-syntax-ns#"
   xmlns:svg="http://www.w3.org/2000/svg"
   xmlns="http://www.w3.org/2000/svg"
   xmlns:sodipodi="http://sodipodi.sourceforge.net/DTD/sodipodi-0.dtd"
   xmlns:inkscape="http://www.inkscape.org/namespaces/inkscape"
   width="560"
   height="149"
   id="svg3480"
   version="1.1"
   inkscape:version="0.48.4 r9939"
   sodipodi:docname="Novo documento 11">
  <defs
     id="defs3482">
    <clipPath
       clipPathUnits="userSpaceOnUse"
       id="clipPath150">
      <path
         inkscape:connector-curvature="0"
         d="m 249.999,331.303 450,0 0,120.875 -450,0 0,-120.875 z"
         id="path152" />
    </clipPath>
  </defs>
  <sodipodi:namedview
     id="base"
     pagecolor="#ffffff"
     bordercolor="#666666"
     borderopacity="1.0"
     inkscape:pageopacity="0.0"
     inkscape:pageshadow="2"
     inkscape:zoom="1.4"
     inkscape:cx="495.91579"
     inkscape:cy="190.1712"
     inkscape:document-units="px"
     inkscape:current-layer="layer1"
     showgrid="false"
     inkscape:window-width="1855"
     inkscape:window-height="1056"
     inkscape:window-x="65"
     inkscape:window-y="24"
     inkscape:window-maximized="1" />
  <metadata
     id="metadata3485">
    <rdf:RDF>
      <cc:Work
         rdf:about="">
        <dc:format>image/svg+xml</dc:format>
        <dc:type
           rdf:resource="http://purl.org/dc/dcmitype/StillImage" />
        <dc:title></dc:title>
      </cc:Work>
    </rdf:RDF>
  </metadata>
  <g
     inkscape:label="Camada 1"
     inkscape:groupmode="layer"
     id="layer1"
     transform="translate(0,-903.36218)">
    <path
       id="path156"
       style="fill:#ef3829;fill-opacity:1;fill-rule:evenodd;stroke:none"
       d="m 187.76721,1001.0686 c 8.68582,0 13.90834,-4.28595 15.96498,-13.10128 l 15.44452,-67.98516 c 1.00973,-4.33032 0.72552,-7.52379 -0.84304,-9.50008 -1.51939,-1.91513 -4.40947,-2.88648 -8.59108,-2.88648 l -165.482684,0 c -8.793748,0 -14.067839,4.28595 -16.12447,13.10128 l -15.444523,67.98516 c -1.007329,4.31713 -0.723119,7.49981 0.840641,9.4713 1.534978,1.93436 4.480218,2.91526 8.752975,2.91526 l 165.482681,0 z"
       inkscape:connector-curvature="0" />
    <path
       id="path160"
       style="fill:#0060ae;fill-opacity:1;fill-rule:evenodd;stroke:none"
       d="m 519.59264,920.4936 -294.65592,0 c -0.91859,0 -1.79281,0.0576 -2.64304,0.1463 -0.005,0.0192 -0.008,0.0372 -0.0132,0.0576 l -15.44452,67.98516 c -2.06383,8.84532 -7.30913,14.06188 -15.26224,15.28508 -1.67409,8.7877 2.07222,13.184 11.38762,13.184 l 294.65592,0 c 9.39575,0 15.28743,-4.7776 17.51675,-14.3317 l 15.44572,-67.99474 c 2.23051,-9.55404 -1.43305,-14.33166 -10.98709,-14.33166"
       inkscape:connector-curvature="0" />
    <path
       id="path164"
       style="fill:#ffffff;fill-opacity:1;fill-rule:evenodd;stroke:none"
       d="m 71.549905,947.00484 c -3.42612,-1.59254 -5.290879,-2.54711 -5.450373,-2.54711 -1.227983,-0.95576 -1.81799,-1.91152 -1.764026,-3.02558 0.08514,-1.75204 1.244771,-2.7078 3.315793,-2.7078 3.344575,0 7.057304,2.22932 11.459575,6.68795 l 9.035987,-15.60522 c -5.637449,-5.2549 -12.512474,-7.9615 -20.794163,-7.9615 -7.165232,0 -13.16484,2.22932 -17.823739,6.36896 -4.500605,4.14085 -6.991348,9.55405 -7.307937,16.0837 -0.392139,8.121 4.091677,14.17217 13.438257,18.47131 3.889012,1.91153 5.889281,3.34457 5.835317,4.45863 -0.07675,1.59254 -1.389875,2.38881 -3.93698,2.38881 -5.414397,0 -10.514603,-3.18508 -14.824535,-9.55404 l -11.310873,16.56098 c 7.750442,7.64251 16.164043,11.46557 25.559791,11.46557 7.165232,0 13.325533,-2.23052 18.317811,-6.68915 4.992278,-4.45863 7.484219,-9.87183 7.808004,-16.56098 0.369354,-7.64251 -3.477686,-13.69488 -11.557909,-17.83453"
       inkscape:connector-curvature="0" />
    <path
       id="path168"
       style="fill:#ffffff;fill-opacity:1;fill-rule:evenodd;stroke:none"
       d="m 101.59507,965.63588 c 0.0995,-2.06982 0.65476,-3.66236 1.84677,-5.2549 1.17642,-1.27356 2.48835,-2.06983 4.08089,-2.06983 2.86609,0 4.21519,1.75204 4.06049,4.93592 -0.23864,4.93711 -2.26529,7.32592 -5.92765,7.32592 -2.86609,0 -4.2152,-1.75203 -4.0605,-4.93711 m 23.06545,-19.26758 c -3.63598,-3.82186 -8.63905,-5.73338 -15.00801,-5.73338 -7.16643,0 -13.348319,2.70779 -18.706354,8.12219 -4.704469,5.09541 -7.234785,11.30608 -7.596944,18.7903 -0.292606,6.04997 1.379082,10.98709 5.016262,14.80894 3.788279,3.98015 8.631856,5.89168 14.683026,5.89168 8.121,0 14.96365,-3.18508 20.22335,-9.87303 4.0533,-4.77762 6.07395,-10.35031 6.36656,-16.40148 0.30819,-6.37016 -1.3479,-11.62507 -4.97789,-15.60522"
       inkscape:connector-curvature="0" />
    <path
       id="path172"
       style="fill:#ffffff;fill-opacity:1;fill-rule:evenodd;stroke:none"
       d="m 169.88615,920.41206 c -3.28222,-1.27355 -6.43612,-1.91153 -9.4629,-1.91153 -11.30488,0 -18.37058,7.80321 -21.67318,23.40962 l -4.93712,0 -3.64437,16.0825 5.09661,0 -6.1579,28.50383 19.10928,0 6.1567,-28.50383 7.32473,0 3.48488,-16.0825 -7.16523,0 c 0.35976,-4.14084 1.72565,-6.05117 4.11446,-6.05117 1.27355,0 2.52432,0.47728 4.07009,1.43305 l 3.68395,-16.87997 z"
       inkscape:connector-curvature="0" />
    <path
       id="path176"
       style="fill:#ffffff;fill-opacity:1;fill-rule:evenodd;stroke:none"
       d="m 192.04356,941.90931 2.67062,-12.42133 -19.42707,0 -2.67062,12.42133 -5.25491,0 -3.48488,16.0837 5.09541,0 -6.1567,28.50383 19.26758,0 6.3162,-28.50383 6.05117,0 3.48488,-16.0837 -5.89168,0 z"
       inkscape:connector-curvature="0" />
    <path
       id="path180"
       style="fill:#ffffff;fill-opacity:1;fill-rule:evenodd;stroke:none"
       d="m 249.34743,979.70324 1.38508,-6.52965 19.26758,0 3.50047,-15.36298 -19.26758,0 1.51219,-5.76097 20.38164,0 3.71513,-16.70728 -42.8343,0 -14.13859,60.87629 44.74582,0 3.86743,-16.51541 -22.13487,0 z"
       inkscape:connector-curvature="0" />
    <path
       id="path184"
       style="fill:#ffffff;fill-opacity:1;fill-rule:evenodd;stroke:none"
       d="m 303.81027,957.81049 -2.35763,-4.60973 -23.08944,0 13.00535,20.54952 -22.90236,22.46825 24.68198,0 3.16109,-3.26423 c 0.99414,-0.96056 2.49794,-2.68861 4.52099,-5.37722 l 5.05704,8.64145 22.92994,0 -13.61814,-21.12394 21.76432,-21.89383 -23.72741,0 -3.84344,4.41786 c -1.33112,1.3443 -2.35644,3.07235 -3.54245,4.8016 -0.43051,-1.15243 -1.16322,-2.68981 -2.03984,-4.60973"
       inkscape:connector-curvature="0" />
    <path
       id="path188"
       style="fill:#ffffff;fill-opacity:1;fill-rule:evenodd;stroke:none"
       d="m 364.19357,973.55793 c -0.19067,4.60973 -2.35523,6.9134 -6.17709,6.9134 -3.18508,0 -4.70567,-1.72805 -4.56296,-5.18415 0.17388,-4.22599 2.18015,-6.53085 6.47929,-6.53085 2.86729,0 4.38788,1.72805 4.26076,4.8016 m 16.28636,-16.51541 c -2.88288,-3.4573 -6.79947,-4.99348 -11.57709,-4.99348 -4.93592,0 -9.16311,2.113 -12.84106,6.33779 l 1.32872,-5.18535 -19.58657,0 -13.17803,56.04472 20.54233,0 3.08914,-12.25946 c 0.59721,-2.88048 0.82026,-4.41666 0.83585,-4.80161 l -0.0719,-2.11179 c 3.28821,5.18535 7.32592,7.68209 12.26184,7.68209 6.37016,0 11.90328,-2.88168 16.44106,-8.64265 4.36149,-5.37722 6.68435,-11.52193 6.97096,-18.43533 0.23024,-5.5691 -1.18002,-9.98696 -4.2152,-13.63493"
       inkscape:connector-curvature="0" />
    <path
       id="path192"
       style="fill:#ffffff;fill-opacity:1;fill-rule:evenodd;stroke:none"
       d="m 416.24337,969.14079 -10.6693,0 c 1.40906,-3.26423 3.55084,-4.99348 6.57642,-4.99348 2.8661,0 4.23559,1.53618 4.11686,4.41786 l -0.024,0.57562 z m 17.75538,1.92112 c 0.22186,-5.37842 -1.65729,-9.98695 -5.48754,-13.63612 -3.98975,-3.64798 -9.1727,-5.37723 -15.70235,-5.37723 -7.80201,0 -14.4348,2.49674 -19.91155,7.87396 -4.97549,4.80161 -7.60894,10.75445 -7.90275,17.85972 -0.23864,5.76097 1.63332,10.56257 5.61587,14.40361 3.82905,3.64918 9.1655,5.5691 15.53446,5.5691 10.98709,0 19.30715,-4.80161 24.7995,-14.40362 l -15.47091,-3.26422 c -2.02305,2.68861 -4.13964,3.84104 -6.36896,3.84104 -3.66356,0 -5.16017,-2.30487 -4.97789,-6.72153 l 29.30011,0 c 0.23864,-1.91992 0.48447,-4.03291 0.57201,-6.14471"
       inkscape:connector-curvature="0" />
    <path
       id="path196"
       style="fill:#ffffff;fill-opacity:1;fill-rule:evenodd;stroke:none"
       d="m 469.50341,952.0494 c -5.09541,0 -9.33099,2.30367 -12.55445,7.10527 l 1.83718,-5.95404 -19.10808,0 -9.89822,43.01778 20.86132,0 4.29554,-19.20402 c 1.34551,-5.5691 4.01133,-8.44958 8.47117,-8.44958 1.91033,0 4.27515,0.57682 7.10167,1.53618 l 4.0653,-17.47597 c -1.88755,-0.57562 -3.63838,-0.57562 -5.07143,-0.57562"
       inkscape:connector-curvature="0" />
    <path
       id="path200"
       style="fill:#ffffff;fill-opacity:1;fill-rule:evenodd;stroke:none"
       d="m 501.90849,953.20124 2.72099,-11.90568 -20.70063,0 -2.88048,11.90568 -5.57389,0 -3.50886,15.55605 5.57389,0 -6.22986,27.46172 20.70183,0 6.38814,-27.46172 6.37017,0 3.50886,-15.55605 -6.37016,0 z"
       inkscape:connector-curvature="0" />
    <path
       id="path204"
       style="fill:#de00cb;fill-opacity:1;fill-rule:evenodd;stroke:none"
       d="m 544.57393,910.30266 c 1.43305,1.43305 2.22932,3.34457 2.22932,5.4144 0,2.06982 -0.79627,3.98015 -2.22932,5.41319 -1.59254,1.59255 -3.34457,2.22932 -5.4144,2.22932 -2.06982,0 -3.98015,-0.63677 -5.41319,-2.22932 -1.43305,-1.43304 -2.23052,-3.34337 -2.23052,-5.41319 0,-2.06983 0.63797,-3.98135 2.23052,-5.4144 1.43304,-1.43305 3.34337,-2.22932 5.41319,-2.22932 2.06983,0 3.82186,0.79627 5.4144,2.22932 m 1.11526,-1.27355 c -1.75204,-1.75204 -3.98135,-2.7078 -6.52966,-2.7078 -2.5471,0 -4.77642,0.95576 -6.68675,2.7078 -1.75203,1.91033 -2.7078,4.13964 -2.7078,6.68795 0,2.5471 0.95577,4.77642 2.7078,6.68795 1.91033,1.91033 4.13965,2.7066 6.68675,2.7066 2.54831,0 4.77762,-0.79627 6.52966,-2.7066 l 0.15829,0 c 1.75204,-1.91153 2.7078,-4.14085 2.7078,-6.68795 0,-2.54831 -0.95576,-4.77762 -2.86609,-6.68795"
       inkscape:connector-curvature="0" />
    <path
       id="path208"
       style="fill:#de00cb;fill-opacity:1;fill-rule:evenodd;stroke:none"
       d="m 540.43405,912.40115 c 0.47848,0 0.95576,0.15949 1.27355,0.31899 0.47848,0.15829 0.63798,0.63677 0.63798,1.43304 0,0.63678 -0.1595,1.11406 -0.47848,1.43305 -0.47729,0.31779 -0.95457,0.47728 -1.59254,0.47728 l -3.34458,0 0,-3.66236 3.50407,0 z m 2.22932,-0.79627 c -0.63678,-0.31779 -1.43425,-0.47728 -2.22932,-0.47728 l -4.93711,0 0,10.5098 1.43304,0 0,-4.45863 3.18508,0 c 0.63678,0 1.11406,0 1.43305,0.31779 0.47848,0.15949 0.63797,0.63797 0.63797,1.27355 l 0.1595,1.75324 0,0.47728 0,0.31779 0.15829,0.31898 1.75204,0 0,-0.15949 c -0.1595,-0.15949 -0.31899,-0.31779 -0.47729,-0.63678 0,-0.15949 -0.16069,-0.47848 -0.16069,-0.95576 l 0,-1.43305 c 0,-0.31779 0,-0.47728 -0.15829,-0.79627 0,-0.15949 -0.1595,-0.31779 -0.1595,-0.63677 -0.15949,-0.1595 -0.47848,-0.31779 -0.95456,-0.47848 0.47608,-0.31779 0.79507,-0.63678 1.11406,-0.95457 0.15829,-0.47848 0.31898,-0.95576 0.31898,-1.59254 0,-1.27355 -0.31898,-1.91033 -1.11525,-2.38881"
       inkscape:connector-curvature="0" />
    <path
       id="path212"
       style="fill:#0060ae;fill-opacity:1;fill-rule:nonzero;stroke:none"
       d="m 504.38808,1039.3681 9.21707,0 c 0.0108,-0.2902 0.0156,-0.4965 0.0156,-0.6176 0,-1.4043 -0.34897,-2.4811 -1.0505,-3.2246 -0.70274,-0.7495 -1.60454,-1.1249 -2.7078,-1.1249 -1.19321,0 -2.28688,0.4173 -3.26783,1.2412 -0.98694,0.8226 -1.72085,2.0638 -2.20653,3.7259 m 8.13419,4.0653 2.72458,0.2794 c -0.39094,1.3515 -1.29393,2.6347 -2.6982,3.8542 -1.40906,1.2136 -3.08675,1.8204 -5.03545,1.8204 -1.21359,0 -2.33245,-0.2794 -3.34697,-0.8394 -1.01333,-0.5636 -1.78921,-1.3827 -2.32286,-2.4548 -0.52765,-1.0709 -0.79147,-2.2905 -0.79147,-3.6635 0,-1.794 0.41253,-3.5317 1.24117,-5.2202 0.83465,-1.6836 1.90434,-2.9356 3.22466,-3.7583 1.31912,-0.819 2.74977,-1.2303 4.28715,-1.2303 1.95709,0 3.51965,0.6115 4.69247,1.8263 1.17162,1.2196 1.75204,2.8769 1.75204,4.9779 0,0.8083 -0.0684,1.6309 -0.21586,2.4764 l -12.09395,0 c -0.0372,0.3214 -0.0576,0.6068 -0.0576,0.8658 0,1.5362 0.35256,2.7078 1.05529,3.5209 0.70753,0.807 1.57216,1.2136 2.59148,1.2136 0.96056,0 1.90074,-0.3166 2.83012,-0.945 0.92818,-0.6284 1.6513,-1.5362 2.16336,-2.7234 m -16.11968,-0.4017 2.79894,0.2962 c -0.70273,2.053 -1.70047,3.5724 -2.99321,4.5713 -1.29394,0.993 -2.76656,1.4882 -4.41426,1.4882 -1.78321,0 -3.22945,-0.5756 -4.33871,-1.7316 -1.10806,-1.156 -1.6621,-2.7654 -1.6621,-4.8412 0,-1.794 0.35377,-3.5568 1.06609,-5.2885 0.71233,-1.7316 1.73165,-3.0459 3.05677,-3.9477 1.32512,-0.9042 2.83491,-1.3575 4.53898,-1.3575 1.76283,0 3.1575,0.5012 4.18641,1.4942 1.03492,0.9977 1.54697,2.312 1.54697,3.9537 l -2.75096,0.1847 c -0.01,-1.0457 -0.3118,-1.8576 -0.9018,-2.444 -0.59721,-0.5864 -1.37909,-0.8826 -2.34444,-0.8826 -1.12366,0 -2.10101,0.355 -2.92366,1.0673 -0.82385,0.7123 -1.47382,1.7892 -1.94391,3.2415 -0.46888,1.4462 -0.70153,2.8397 -0.70153,4.1804 0,1.4042 0.31179,2.4547 0.92938,3.1563 0.61759,0.7027 1.38268,1.0505 2.28568,1.0505 0.9078,0 1.77842,-0.343 2.60707,-1.0337 0.82984,-0.692 1.48341,-1.7425 1.95829,-3.1575 m -28.51342,5.9864 3.43691,-16.4219 2.53272,0 -0.6008,2.8601 c 1.10326,-1.1236 2.13338,-1.9475 3.09394,-2.4596 0.95456,-0.5168 1.93671,-0.7758 2.93444,-0.7758 1.32992,0 2.37562,0.3645 3.13592,1.0816 0.7543,0.7232 1.13324,1.6897 1.13324,2.8937 0,0.6116 -0.13071,1.5674 -0.40053,2.8757 l -2.09021,9.9462 -2.79774,0 2.18015,-10.4103 c 0.21706,-1.0073 0.32738,-1.7568 0.32738,-2.2377 0,-0.5492 -0.18947,-0.9917 -0.56482,-1.3299 -0.38015,-0.343 -0.92339,-0.5133 -1.63092,-0.5133 -1.43664,0 -2.71379,0.5181 -3.82785,1.5482 -1.11885,1.0289 -1.94151,2.7965 -2.46916,5.3053 l -1.59014,7.6377 -2.80253,0 z m -13.24759,-9.65 9.21587,0 c 0.012,-0.2902 0.0168,-0.4965 0.0168,-0.6176 0,-1.4043 -0.34897,-2.4811 -1.0505,-3.2246 -0.70273,-0.7495 -1.60453,-1.1249 -2.709,-1.1249 -1.19201,0 -2.28448,0.4173 -3.26662,1.2412 -0.98695,0.8226 -1.72086,2.0638 -2.20654,3.7259 m 8.13419,4.0653 2.72459,0.2794 c -0.39094,1.3515 -1.29394,2.6347 -2.69701,3.8542 -1.41026,1.2136 -3.08914,1.8204 -5.03665,1.8204 -1.21479,0 -2.33364,-0.2794 -3.34697,-0.8394 -1.01332,-0.5636 -1.78921,-1.3827 -2.32285,-2.4548 -0.52765,-1.0709 -0.79148,-2.2905 -0.79148,-3.6635 0,-1.794 0.41133,-3.5317 1.23998,-5.2202 0.83464,-1.6836 1.90673,-2.9356 3.22585,-3.7583 1.31912,-0.819 2.74977,-1.2303 4.28595,-1.2303 1.9583,0 3.52086,0.6115 4.69248,1.8263 1.17282,1.2196 1.75323,2.8769 1.75323,4.9779 0,0.8083 -0.0695,1.6309 -0.21586,2.4764 l -12.09395,0 c -0.0372,0.3214 -0.0588,0.6068 -0.0588,0.8658 0,1.5362 0.35377,2.7078 1.0565,3.5209 0.70753,0.807 1.57215,1.2136 2.59147,1.2136 0.96056,0 1.90074,-0.3166 2.83012,-0.945 0.92818,-0.6284 1.6513,-1.5362 2.16336,-2.7234 m -18.87424,5.5847 4.73445,-22.6721 2.79774,0 -4.73445,22.6721 -2.79774,0 z m -6.59681,0 4.73445,-22.6721 2.79774,0 -4.73445,22.6721 -2.79774,0 z m -13.03173,-9.65 9.21587,0 c 0.012,-0.2902 0.0168,-0.4965 0.0168,-0.6176 0,-1.4043 -0.34897,-2.4811 -1.0505,-3.2246 -0.70154,-0.7495 -1.60454,-1.1249 -2.7078,-1.1249 -1.19321,0 -2.28568,0.4173 -3.26783,1.2412 -0.98694,0.8226 -1.72085,2.0638 -2.20653,3.7259 m 8.13419,4.0653 2.72459,0.2794 c -0.39094,1.3515 -1.29394,2.6347 -2.69821,3.8542 -1.40906,1.2136 -3.08674,1.8204 -5.03545,1.8204 -1.21479,0 -2.33364,-0.2794 -3.34697,-0.8394 -1.01333,-0.5636 -1.78921,-1.3827 -2.32285,-2.4548 -0.52765,-1.0709 -0.79148,-2.2905 -0.79148,-3.6635 0,-1.794 0.41133,-3.5317 1.24118,-5.2202 0.83344,-1.6836 1.90433,-2.9356 3.22465,-3.7583 1.32032,-0.819 2.75097,-1.2303 4.28715,-1.2303 1.9571,0 3.51966,0.6115 4.69128,1.8263 1.17282,1.2196 1.75323,2.8769 1.75323,4.9779 0,0.8083 -0.0684,1.6309 -0.21586,2.4764 l -12.09395,0 c -0.0372,0.3214 -0.0588,0.6068 -0.0588,0.8658 0,1.5362 0.35376,2.7078 1.0565,3.5209 0.70753,0.807 1.57215,1.2136 2.59147,1.2136 0.96056,0 1.90074,-0.3166 2.83012,-0.945 0.92938,-0.6284 1.6525,-1.5362 2.16336,-2.7234 m -16.11967,-0.4017 2.79893,0.2962 c -0.70273,2.053 -1.70047,3.5724 -2.9932,4.5713 -1.29394,0.993 -2.76656,1.4882 -4.41427,1.4882 -1.78321,0 -3.22945,-0.5756 -4.33871,-1.7316 -1.10806,-1.156 -1.66329,-2.7654 -1.66329,-4.8412 0,-1.794 0.35496,-3.5568 1.06729,-5.2885 0.71232,-1.7316 1.73164,-3.0459 3.05676,-3.9477 1.32512,-0.9042 2.83492,-1.3575 4.53898,-1.3575 1.76283,0 3.1575,0.5012 4.18642,1.4942 1.03371,0.9977 1.54697,2.312 1.54697,3.9537 l -2.75097,0.1847 c -0.0108,-1.0457 -0.3118,-1.8576 -0.9018,-2.444 -0.59721,-0.5864 -1.37789,-0.8826 -2.34444,-0.8826 -1.12365,0 -2.101,0.355 -2.92366,1.0673 -0.82505,0.7123 -1.47382,1.7892 -1.9439,3.2415 -0.46889,1.4462 -0.70154,2.8397 -0.70154,4.1804 0,1.4042 0.3118,2.4547 0.92938,3.1563 0.61759,0.7027 1.38268,1.0505 2.28568,1.0505 0.9078,0 1.77842,-0.343 2.60707,-1.0337 0.82985,-0.692 1.48341,-1.7425 1.9583,-3.1575 m -27.83228,5.9864 7.14724,-8.3357 -4.10127,-8.0862 3.09274,0 1.39347,2.9177 c 0.51806,1.0936 0.98215,2.1441 1.39348,3.1419 l 4.73085,-6.0596 3.42012,0 -6.90021,8.3033 4.14445,8.1186 -3.09275,0 -1.63691,-3.3422 c -0.35376,-0.7111 -0.7495,-1.5937 -1.192,-2.6442 l -4.88915,5.9864 -3.51006,0 z m -19.21362,0 4.74644,-22.6721 16.36431,0 -0.54323,2.5806 -13.32913,0 -1.48941,7.0526 12.99095,0 -0.53844,2.5866 -12.99096,0 -1.6417,7.886 14.2741,0 -0.53844,2.5663 -17.30449,0 z m -203.67606,0 3.43691,-16.4219 2.47036,0 -0.69074,3.3518 c 0.84423,-1.2676 1.66809,-2.2078 2.47995,-2.8134 0.80826,-0.6067 1.63691,-0.9137 2.48234,-0.9137 0.55403,0 1.23878,0.2002 2.05783,0.6068 l -1.14523,2.5974 c -0.48568,-0.3537 -1.01933,-0.5276 -1.59494,-0.5276 -0.97615,0 -1.98348,0.5492 -3.0136,1.6417 -1.03491,1.0925 -1.84197,3.0555 -2.42838,5.8905 l -1.39347,6.5884 -2.66103,0 z m -13.88077,-6.5093 c 0,1.5482 0.37535,2.7198 1.11286,3.5161 0.74471,0.7974 1.68968,1.198 2.83012,1.198 0.602,0 1.19321,-0.1211 1.77962,-0.3634 0.5912,-0.2434 1.13444,-0.608 1.6405,-1.1045 0.50247,-0.4952 0.93538,-1.06 1.28915,-1.6944 0.35856,-0.6332 0.64397,-1.3131 0.85982,-2.0483 0.32139,-1.0229 0.48088,-2.0002 0.48088,-2.9404 0,-1.4822 -0.37535,-2.6335 -1.12485,-3.4573 -0.7447,-0.8179 -1.68368,-1.2244 -2.81932,-1.2244 -0.87542,0 -1.67768,0.2063 -2.39601,0.6236 -0.72312,0.4161 -1.37788,1.0289 -1.95829,1.8312 -0.58162,0.807 -1.00853,1.7424 -1.28315,2.8085 -0.27462,1.0661 -0.41133,2.0159 -0.41133,2.8553 m -2.79773,0.2746 c 0,-3.2042 0.94497,-5.8593 2.82891,-7.9603 1.55777,-1.7364 3.60001,-2.6022 6.12433,-2.6022 1.97868,0 3.57842,0.6235 4.78721,1.8575 1.2088,1.2352 1.81559,2.9093 1.81559,5.0103 0,1.8899 -0.38014,3.6432 -1.14523,5.2681 -0.7603,1.6201 -1.84797,2.8661 -3.25104,3.7319 -1.41026,0.8658 -2.89368,1.2987 -4.45024,1.2987 -1.27835,0 -2.43918,-0.2698 -3.48488,-0.8178 -1.04451,-0.5445 -1.84677,-1.3203 -2.39601,-2.3181 -0.55403,-1.0025 -0.82864,-2.1585 -0.82864,-3.4681 m -8.47117,6.2347 2.98841,-14.2573 -2.50753,0 0.4485,-2.1646 2.50754,0 0.47968,-2.3396 c 0.24823,-1.1609 0.50246,-2.0051 0.76629,-2.5172 0.26382,-0.518 0.69194,-0.9401 1.28314,-1.2771 0.59001,-0.3334 1.39827,-0.5025 2.41759,-0.5025 0.71233,0 1.74125,0.1487 3.09275,0.4497 l -0.50607,2.444 c -0.95096,-0.2482 -1.74244,-0.3754 -2.38641,-0.3754 -0.54324,0 -0.96056,0.138 -1.24117,0.4126 -0.28421,0.2746 -0.52765,0.9174 -0.73871,1.9415 l -0.36936,1.764 3.12512,0 -0.4485,2.1646 -3.12512,0 -2.98241,14.2573 -2.80374,0 z m -21.99216,-9.65 9.21706,0 c 0.01,-0.2902 0.0156,-0.4965 0.0156,-0.6176 0,-1.4043 -0.34896,-2.4811 -1.0505,-3.2246 -0.70273,-0.7495 -1.60573,-1.1249 -2.7078,-1.1249 -1.1932,0 -2.28567,0.4173 -3.26782,1.2412 -0.98694,0.8226 -1.72086,2.0638 -2.20653,3.7259 m 8.13418,4.0653 2.72339,0.2794 c -0.38974,1.3515 -1.29274,2.6347 -2.697,3.8542 -1.40907,1.2136 -3.08795,1.8204 -5.03665,1.8204 -1.21359,0 -2.33245,-0.2794 -3.34578,-0.8394 -1.01452,-0.5636 -1.7892,-1.3827 -2.32285,-2.4548 -0.52765,-1.0709 -0.79147,-2.2905 -0.79147,-3.6635 0,-1.794 0.41132,-3.5317 1.23997,-5.2202 0.83465,-1.6836 1.90553,-2.9356 3.22586,-3.7583 1.31912,-0.819 2.74977,-1.2303 4.28594,-1.2303 1.9583,0 3.52086,0.6115 4.69248,1.8263 1.17282,1.2196 1.75203,2.8769 1.75203,4.9779 0,0.8083 -0.0671,1.6309 -0.21585,2.4764 l -12.09395,0 c -0.036,0.3214 -0.0576,0.6068 -0.0576,0.8658 0,1.5362 0.35377,2.7078 1.0553,3.5209 0.70753,0.807 1.57336,1.2136 2.59268,1.2136 0.96056,0 1.90073,-0.3166 2.82891,-0.945 0.92939,-0.6284 1.65251,-1.5362 2.16456,-2.7234 m -22.16844,5.5847 3.43571,-16.4219 2.47036,0 -0.69194,3.3518 c 0.84543,-1.2676 1.66929,-2.2078 2.48115,-2.8134 0.80826,-0.6067 1.63811,-0.9137 2.48114,-0.9137 0.55523,0 1.24118,0.2002 2.05903,0.6068 l -1.14523,2.5974 c -0.48568,-0.3537 -1.01813,-0.5276 -1.59374,-0.5276 -0.97735,0 -1.98588,0.5492 -3.0148,1.6417 -1.03491,1.0925 -1.84197,3.0555 -2.42838,5.8905 l -1.39347,6.5884 -2.65983,0 z m -5.066632,-8.3189 c -0.389741,0.1523 -0.813059,0.2746 -1.261561,0.3526 -0.448501,0.085 -1.198003,0.1703 -2.248504,0.265 -1.624918,0.1427 -2.776152,0.3262 -3.446506,0.5492 -0.671553,0.2207 -1.177617,0.5745 -1.515791,1.0601 -0.342972,0.4809 -0.51206,1.0194 -0.51206,1.6046 0,0.7866 0.269821,1.4306 0.813059,1.9379 0.538442,0.5012 1.309529,0.7543 2.312062,0.7543 0.929381,0 1.821588,-0.2423 2.676619,-0.7327 0.855031,-0.4917 1.53138,-1.1729 2.021854,-2.0483 0.49647,-0.8766 0.881414,-2.1274 1.160828,-3.7427 m -1.033712,6.2754 c -0.971354,0.8347 -1.900736,1.4475 -2.798938,1.8324 -0.897003,0.3898 -1.857564,0.5804 -2.875686,0.5804 -1.515792,0 -2.740177,-0.4437 -3.668359,-1.3359 -0.924585,-0.8922 -1.389875,-2.0314 -1.389875,-3.4249 0,-0.9186 0.206262,-1.7328 0.623585,-2.4344 0.417322,-0.7063 0.971353,-1.2771 1.663293,-1.7052 0.69074,-0.427 1.534978,-0.7328 2.53871,-0.9174 0.628382,-0.1224 1.821588,-0.2219 3.578419,-0.2962 1.75803,-0.068 3.019591,-0.2579 3.779885,-0.5541 0.217055,-0.7663 0.32738,-1.3982 0.32738,-1.9055 0,-0.65 -0.23744,-1.156 -0.712324,-1.5314 -0.649967,-0.512 -1.599735,-0.7711 -2.845706,-0.7711 -1.177617,0 -2.138177,0.2591 -2.881683,0.7819 -0.749501,0.5229 -1.293939,1.2616 -1.630914,2.2173 l -2.834914,-0.2482 c 0.580414,-1.6261 1.494206,-2.8721 2.744973,-3.7427 1.255565,-0.8658 2.834914,-1.2987 4.739247,-1.2987 2.032647,0 3.643171,0.4856 4.825591,1.457 0.90779,0.7183 1.36229,1.6573 1.36229,2.8145 0,0.8754 -0.12711,1.8888 -0.38614,3.0448 l -0.91259,4.0857 c -0.29021,1.2987 -0.43292,2.354 -0.43292,3.1671 0,0.518 0.11633,1.2567 0.34298,2.2281 l -2.834918,0 c -0.153498,-0.5385 -0.259028,-1.2148 -0.321386,-2.0435 m -30.382982,2.0435 -1.716058,-16.4219 2.693407,0 0.738709,7.3739 0.295003,4.1432 c 0.02039,0.3118 0.05276,0.9342 0.08994,1.8744 0.311792,-1.0505 0.575617,-1.8576 0.791473,-2.4224 0.215856,-0.56 0.558828,-1.3623 1.034911,-2.402 l 3.911797,-8.5671 3.05077,0 0.538442,8.2085 c 0.08394,1.2508 0.131912,2.9141 0.153498,4.9983 0.516856,-1.3827 1.356297,-3.299 2.523121,-5.7538 l 3.525653,-7.453 2.797739,0 -8.023861,16.4219 -2.908065,0 -0.617589,-9.6332 c -0.04197,-0.5972 -0.07435,-1.764 -0.09594,-3.4945 -0.422119,1.1021 -0.923385,2.2905 -1.499002,3.5676 l -4.34351,9.5601 -2.940443,0 z m -4.94431,-2.2749 -0.459295,2.2905 c -0.670353,0.1739 -1.320321,0.2638 -1.9535,0.2638 -1.108062,0 -1.995472,-0.2734 -2.655033,-0.8227 -0.496469,-0.4113 -0.744704,-0.9725 -0.744704,-1.6848 0,-0.3586 0.131912,-1.1872 0.401732,-2.492 l 1.995473,-9.5372 -2.212528,0 0.448501,-2.1646 2.212528,0 0.850234,-4.0389 3.203069,-1.9319 -1.255565,5.9708 2.755767,0 -0.465291,2.1646 -2.738977,0 -1.900735,9.0791 c -0.237442,1.1501 -0.353765,1.842 -0.353765,2.0686 0,0.3334 0.09474,0.5817 0.28541,0.7603 0.189474,0.1739 0.501267,0.2591 0.934178,0.2591 0.617589,0 1.171621,-0.059 1.652501,-0.1847 m -14.515141,2.2749 2.987212,-14.2573 -2.506332,0 0.448501,-2.1646 2.506333,0 0.48088,-2.3396 c 0.248234,-1.1609 0.501266,-2.0051 0.76509,-2.5172 0.263825,-0.518 0.69194,-0.9401 1.284346,-1.2771 0.590007,-0.3334 1.398269,-0.5025 2.416392,-0.5025 0.713525,0 1.74244,0.1487 3.093941,0.4497 l -0.507263,2.444 c -0.949767,-0.2482 -1.741241,-0.3754 -2.386411,-0.3754 -0.543239,0 -0.960561,0.138 -1.239975,0.4126 -0.28541,0.2746 -0.527649,0.9174 -0.738709,1.9415 l -0.369354,1.764 3.12512,0 -0.448501,2.1646 -3.125121,0 -2.983614,14.2573 -2.802535,0 z m -14.266906,-6.5093 c 0,1.5482 0.37535,2.7198 1.114058,3.5161 0.744705,0.7974 1.689676,1.198 2.828918,1.198 0.601999,0 1.193206,-0.1211 1.779616,-0.3634 0.591206,-0.2434 1.135644,-0.608 1.641707,-1.1045 0.501267,-0.4952 0.934178,-1.06 1.287943,-1.6944 0.358561,-0.6332 0.643972,-1.3131 0.861027,-2.0483 0.321386,-1.0229 0.479681,-2.0002 0.479681,-2.9404 0,-1.4822 -0.374151,-2.6335 -1.124852,-3.4573 -0.743505,-0.8179 -1.683679,-1.2244 -2.818124,-1.2244 -0.876617,0 -1.678883,0.2063 -2.396006,0.6236 -0.724318,0.4161 -1.379082,1.0289 -1.958297,1.8312 -0.581613,0.807 -1.008529,1.7424 -1.283146,2.8085 -0.274617,1.0661 -0.412525,2.0159 -0.412525,2.8553 m -2.797739,0.2746 c 0,-3.2042 0.944972,-5.8593 2.830117,-7.9603 1.556564,-1.7364 3.600004,-2.6022 6.123125,-2.6022 1.979883,0 3.578419,0.6235 4.788414,1.8575 1.208796,1.2352 1.815592,2.9093 1.815592,5.0103 0,1.8899 -0.380147,3.6432 -1.146437,5.2681 -0.759095,1.6201 -1.846771,2.8661 -3.251037,3.7319 -1.409062,0.8658 -2.892475,1.2987 -4.450238,1.2987 -1.277151,0 -2.439177,-0.2698 -3.483682,-0.8178 -1.045704,-0.5445 -1.847971,-1.3203 -2.396006,-2.3181 -0.55523,-1.0025 -0.829848,-2.1585 -0.829848,-3.4681 m -20.003888,-1.0972 2.966826,-0.2747 -0.02758,0.7867 c 0,0.8754 0.200267,1.6789 0.601999,2.4068 0.401733,0.7231 1.06729,1.288 1.995472,1.6837 0.924585,0.3957 2.027851,0.5972 3.309798,0.5972 1.810795,0 3.199471,-0.3957 4.149239,-1.1932 0.955764,-0.7915 1.430648,-1.7005 1.430648,-2.7246 0,-0.7063 -0.254231,-1.3563 -0.754298,-1.9475 -0.518055,-0.5756 -1.927118,-1.3563 -4.22359,-2.3492 -1.784412,-0.7711 -2.998005,-1.3671 -3.647972,-1.7785 -1.024119,-0.6703 -1.77362,-1.3994 -2.259297,-2.1861 -0.485677,-0.7915 -0.727915,-1.6897 -0.727915,-2.7018 0,-1.162 0.321386,-2.2173 0.96056,-3.1515 0.637976,-0.9402 1.573353,-1.6573 2.803735,-2.155 1.235178,-0.4904 2.622655,-0.7387 4.169625,-0.7387 1.84797,0 3.404535,0.307 4.670892,0.9294 1.267556,0.6176 2.186145,1.4414 2.761762,2.4704 0.569621,1.0349 0.855031,2.017 0.855031,2.956 0,0.096 -0.0048,0.2482 -0.01559,0.4641 l -2.918857,0.2326 c 0,-0.6379 -0.05876,-1.1404 -0.175084,-1.499 -0.205063,-0.6332 -0.522852,-1.1608 -0.955764,-1.5949 -0.432912,-0.4317 -1.028915,-0.7795 -1.789209,-1.0433 -0.754298,-0.265 -1.604532,-0.397 -2.538711,-0.397 -1.6525,0 -2.935646,0.3754 -3.853036,1.1141 -0.702732,0.5696 -1.0517,1.3191 -1.0517,2.2593 0,0.56 0.142705,1.0553 0.432912,1.4942 0.291406,0.4377 0.808262,0.8658 1.563759,1.288 0.532446,0.301 1.804799,0.8922 3.815861,1.7796 1.630915,0.7219 2.755766,1.2867 3.373355,1.704 0.823852,0.5445 1.457031,1.2088 1.899536,1.9847 0.443705,0.7759 0.665558,1.6633 0.665558,2.6502 0,1.2304 -0.369355,2.3589 -1.118856,3.3998 -0.749501,1.0337 -1.778416,1.836 -3.098738,2.402 -1.320321,0.5696 -2.834913,0.849 -4.534183,0.849 -2.566292,0 -4.661298,-0.56 -6.287416,-1.6777 -1.620122,-1.12 -2.439177,-3.1311 -2.44877,-6.0391"
       inkscape:connector-curvature="0" />
    <path
       id="path216"
       style="fill:#0060ae;fill-opacity:1;fill-rule:nonzero;stroke:none"
       d="m 347.25988,1039.3681 9.21707,0 c 0.01,-0.2902 0.0156,-0.4965 0.0156,-0.6176 0,-1.4043 -0.34897,-2.4811 -1.0517,-3.2246 -0.70154,-0.7495 -1.60334,-1.1249 -2.7066,-1.1249 -1.19321,0 -2.28688,0.4173 -3.26783,1.2412 -0.98694,0.8226 -1.72085,2.0638 -2.20653,3.7259 m 8.13419,4.0653 2.72338,0.2794 c -0.38974,1.3515 -1.29273,2.6347 -2.697,3.8542 -1.40906,1.2136 -3.08795,1.8204 -5.03545,1.8204 -1.21359,0 -2.33245,-0.2794 -3.34697,-0.8394 -1.01333,-0.5636 -1.78921,-1.3827 -2.32286,-2.4548 -0.52765,-1.0709 -0.79147,-2.2905 -0.79147,-3.6635 0,-1.794 0.41253,-3.5317 1.23997,-5.2202 0.83465,-1.6836 1.90554,-2.9356 3.22586,-3.7583 1.31912,-0.819 2.74977,-1.2303 4.28595,-1.2303 1.95829,0 3.52085,0.6115 4.69247,1.8263 1.17282,1.2196 1.75324,2.8769 1.75324,4.9779 0,0.8083 -0.0684,1.6309 -0.21586,2.4764 l -12.09395,0 c -0.0372,0.3214 -0.0576,0.6068 -0.0576,0.8658 0,1.5362 0.35256,2.7078 1.05529,3.5209 0.70753,0.807 1.57216,1.2136 2.59148,1.2136 0.96056,0 1.89954,-0.3166 2.82892,-0.945 0.92938,-0.6284 1.6525,-1.5362 2.16456,-2.7234 m -16.11968,-0.4017 2.79894,0.2962 c -0.70273,2.053 -1.70047,3.5724 -2.99321,4.5713 -1.29394,0.993 -2.76656,1.4882 -4.41426,1.4882 -1.78441,0 -3.22945,-0.5756 -4.33871,-1.7316 -1.10806,-1.156 -1.6621,-2.7654 -1.6621,-4.8412 0,-1.794 0.35377,-3.5568 1.06609,-5.2885 0.71233,-1.7316 1.73165,-3.0459 3.05677,-3.9477 1.32392,-0.9042 2.83371,-1.3575 4.53898,-1.3575 1.76283,0 3.1575,0.5012 4.18641,1.4942 1.03492,0.9977 1.54697,2.312 1.54697,3.9537 l -2.75096,0.1847 c -0.01,-1.0457 -0.3118,-1.8576 -0.9018,-2.444 -0.59721,-0.5864 -1.37909,-0.8826 -2.34444,-0.8826 -1.12366,0 -2.10101,0.355 -2.92366,1.0673 -0.82505,0.7123 -1.47382,1.7892 -1.94391,3.2415 -0.46888,1.4462 -0.70153,2.8397 -0.70153,4.1804 0,1.4042 0.31179,2.4547 0.92938,3.1563 0.61759,0.7027 1.38268,1.0505 2.28568,1.0505 0.9078,0 1.77842,-0.343 2.60707,-1.0337 0.82984,-0.692 1.48341,-1.7425 1.95829,-3.1575 m -28.51342,5.9864 3.43691,-16.4219 2.53272,0 -0.6008,2.8601 c 1.10326,-1.1236 2.13218,-1.9475 3.09274,-2.4596 0.95576,-0.5168 1.93791,-0.7758 2.93564,-0.7758 1.32992,0 2.37562,0.3645 3.13472,1.0816 0.7555,0.7232 1.13564,1.6897 1.13564,2.8937 0,0.6116 -0.13191,1.5674 -0.40053,2.8757 l -2.09141,9.9462 -2.79774,0 2.18015,-10.4103 c 0.21706,-1.0073 0.32738,-1.7568 0.32738,-2.2377 0,-0.5492 -0.18947,-0.9917 -0.56482,-1.3299 -0.38015,-0.343 -0.92339,-0.5133 -1.63092,-0.5133 -1.43664,0 -2.71379,0.5181 -3.82785,1.5482 -1.11885,1.0289 -1.94151,2.7965 -2.47035,5.3053 l -1.58895,7.6377 -2.80253,0 z m -5.06543,-8.3189 c -0.39094,0.1523 -0.81306,0.2746 -1.26276,0.3526 -0.4473,0.085 -1.198,0.1703 -2.2485,0.265 -1.62492,0.1427 -2.77616,0.3262 -3.44651,0.5492 -0.67036,0.2207 -1.17762,0.5745 -1.51459,1.0601 -0.34298,0.4809 -0.51206,1.0194 -0.51206,1.6046 0,0.7866 0.26862,1.4306 0.81306,1.9379 0.53844,0.5012 1.30833,0.7543 2.31206,0.7543 0.92818,0 1.82039,-0.2423 2.67542,-0.7327 0.85623,-0.4917 1.53138,-1.1729 2.02305,-2.0483 0.49527,-0.8766 0.88141,-2.1274 1.16083,-3.7427 m -1.03491,6.2754 c -0.97136,0.8347 -1.90074,1.4475 -2.79774,1.8324 -0.897,0.3898 -1.85756,0.5804 -2.87689,0.5804 -1.51579,0 -2.74017,-0.4437 -3.66836,-1.3359 -0.92338,-0.8922 -1.38867,-2.0314 -1.38867,-3.4249 0,-0.9186 0.20626,-1.7328 0.62238,-2.4344 0.41733,-0.7063 0.97136,-1.2771 1.6633,-1.7052 0.69194,-0.427 1.53618,-0.7328 2.53871,-0.9174 0.62838,-0.1224 1.82159,-0.2219 3.57962,-0.2962 1.75803,-0.068 3.01959,-0.2579 3.77868,-0.5541 0.21706,-0.7663 0.32738,-1.3982 0.32738,-1.9055 0,-0.65 -0.23744,-1.156 -0.71232,-1.5314 -0.64877,-0.512 -1.59974,-0.7711 -2.84571,-0.7711 -1.17642,0 -2.13698,0.2591 -2.88168,0.7819 -0.7495,0.5229 -1.29394,1.2616 -1.63092,2.2173 l -2.83491,-0.2482 c 0.58041,-1.6261 1.49421,-2.8721 2.74497,-3.7427 1.25677,-0.8658 2.83492,-1.2987 4.74045,-1.2987 2.03265,0 3.64198,0.4856 4.82439,1.457 0.9078,0.7183 1.36229,1.6573 1.36229,2.8145 0,0.8754 -0.12591,1.8888 -0.38494,3.0448 l -0.91379,4.0857 c -0.29021,1.2987 -0.43291,2.354 -0.43291,3.1671 0,0.518 0.11632,1.2567 0.34297,2.2281 l -2.83492,0 c -0.1523,-0.5385 -0.25782,-1.2148 -0.32138,-2.0435 m -37.03496,2.0435 3.43811,-16.4219 2.79654,0 -0.56962,2.7018 c 1.03971,-1.1608 1.96909,-1.9679 2.78695,-2.4116 0.82385,-0.4437 1.71006,-0.6655 2.67062,-0.6655 1.01932,0 1.87435,0.2746 2.5603,0.813 0.68234,0.5445 1.13564,1.2988 1.3515,2.2641 0.83464,-1.0289 1.71606,-1.7988 2.63464,-2.3121 0.92339,-0.506 1.89474,-0.765 2.91886,-0.765 1.36709,0 2.39601,0.3273 3.08315,0.9761 0.68594,0.65 1.02892,1.5638 1.02892,2.7342 0,0.5072 -0.11513,1.3419 -0.35377,2.5087 l -2.21133,10.5782 -2.80253,0 2.25929,-10.8588 c 0.19427,-0.8862 0.29501,-1.5206 0.29501,-1.8995 0,-0.5385 -0.16909,-0.9618 -0.51206,-1.2676 -0.33818,-0.3118 -0.81786,-0.4653 -1.43665,-0.4653 -0.83824,0 -1.68847,0.2543 -2.5543,0.7555 -0.86582,0.5073 -1.53617,1.1716 -2.01585,1.9907 -0.48088,0.8178 -0.89701,2.0806 -1.26156,3.7787 l -1.66809,7.9663 -2.80374,0 2.32286,-11.0914 c 0.16309,-0.7495 0.24823,-1.288 0.24823,-1.6046 0,-0.5384 -0.16909,-0.9701 -0.50127,-1.2975 -0.33817,-0.3334 -0.77108,-0.4977 -1.30953,-0.4977 -0.79147,0 -1.62491,0.2543 -2.49673,0.7555 -0.87182,0.5073 -1.57815,1.21 -2.12739,2.1118 -0.54324,0.903 -0.99174,2.191 -1.3455,3.859 l -1.62132,7.7649 -2.80374,0 z m -10.09008,0 3.43691,-16.4219 2.46916,0 -0.69074,3.3518 c 0.84423,-1.2676 1.66809,-2.2078 2.48114,-2.8134 0.80707,-0.6067 1.63572,-0.9137 2.48115,-0.9137 0.55404,0 1.23998,0.2002 2.05903,0.6068 l -1.14643,2.5974 c -0.48568,-0.3537 -1.01813,-0.5276 -1.59374,-0.5276 -0.97615,0 -1.98468,0.5492 -3.0148,1.6417 -1.03371,1.0925 -1.84197,3.0555 -2.42718,5.8905 l -1.39467,6.5884 -2.65983,0 z m -13.88077,-6.5093 c 0,1.5482 0.37415,2.7198 1.11286,3.5161 0.74471,0.7974 1.68968,1.198 2.83012,1.198 0.602,0 1.19201,-0.1211 1.77842,-0.3634 0.5912,-0.2434 1.13444,-0.608 1.6417,-1.1045 0.50127,-0.4952 0.93418,-1.06 1.28795,-1.6944 0.35976,-0.6332 0.64397,-1.3131 0.86102,-2.0483 0.32139,-1.0229 0.47968,-2.0002 0.47968,-2.9404 0,-1.4822 -0.37415,-2.6335 -1.12485,-3.4573 -0.7435,-0.8179 -1.68368,-1.2244 -2.81812,-1.2244 -0.87542,0 -1.67888,0.2063 -2.39601,0.6236 -0.72432,0.4161 -1.37908,1.0289 -1.95949,1.8312 -0.58042,0.807 -1.00853,1.7424 -1.28315,2.8085 -0.27342,1.0661 -0.41013,2.0159 -0.41013,2.8553 m -2.79893,0.2746 c 0,-3.2042 0.94497,-5.8593 2.83011,-7.9603 1.55657,-1.7364 3.60001,-2.6022 6.12313,-2.6022 1.97988,0 3.57842,0.6235 4.78841,1.8575 1.2076,1.2352 1.81559,2.9093 1.81559,5.0103 0,1.8899 -0.38014,3.6432 -1.14643,5.2681 -0.7591,1.6201 -1.84677,2.8661 -3.25104,3.7319 -1.40906,0.8658 -2.89248,1.2987 -4.45024,1.2987 -1.27715,0 -2.43918,-0.2698 -3.48368,-0.8178 -1.04451,-0.5445 -1.84677,-1.3203 -2.39721,-2.3181 -0.55403,-1.0025 -0.82864,-2.1585 -0.82864,-3.4681 m -8.46997,6.2347 2.98721,-14.2573 -2.50633,0 0.4485,-2.1646 2.50753,0 0.47969,-2.3396 c 0.24823,-1.1609 0.50126,-2.0051 0.76509,-2.5172 0.26382,-0.518 0.69194,-0.9401 1.28314,-1.2771 0.59121,-0.3334 1.39827,-0.5025 2.41759,-0.5025 0.71233,0 1.74244,0.1487 3.09275,0.4497 l -0.50607,2.444 c -0.94977,-0.2482 -1.74244,-0.3754 -2.38521,-0.3754 -0.54444,0 -0.96176,0.138 -1.24117,0.4126 -0.28422,0.2746 -0.52765,0.9174 -0.73871,1.9415 l -0.37056,1.764 3.12632,0 -0.4497,2.1646 -3.12512,0 -2.98241,14.2573 -2.80254,0 z m -10.49182,0 3.43572,-16.4219 2.47035,0 -0.69074,3.3518 c 0.84424,-1.2676 1.66689,-2.2078 2.47995,-2.8134 0.80827,-0.6067 1.63691,-0.9137 2.48115,-0.9137 0.55403,0 1.24118,0.2002 2.05903,0.6068 l -1.14524,2.5974 c -0.48567,-0.3537 -1.01932,-0.5276 -1.59493,-0.5276 -0.97616,0 -1.98468,0.5492 -3.0136,1.6417 -1.03491,1.0925 -1.84197,3.0555 -2.42838,5.8905 l -1.39348,6.5884 -2.65983,0 z m -13.24878,-9.65 9.21707,0 c 0.0108,-0.2902 0.0156,-0.4965 0.0156,-0.6176 0,-1.4043 -0.34897,-2.4811 -1.0505,-3.2246 -0.70154,-0.7495 -1.60454,-1.1249 -2.7078,-1.1249 -1.19321,0 -2.28568,0.4173 -3.26783,1.2412 -0.98694,0.8226 -1.72085,2.0638 -2.20653,3.7259 m 8.13539,4.0653 2.72338,0.2794 c -0.39094,1.3515 -1.29274,2.6347 -2.6982,3.8542 -1.40906,1.2136 -3.08795,1.8204 -5.03545,1.8204 -1.21359,0 -2.33365,-0.2794 -3.34697,-0.8394 -1.01333,-0.5636 -1.78921,-1.3827 -2.32166,-2.4548 -0.52885,-1.0709 -0.79267,-2.2905 -0.79267,-3.6635 0,-1.794 0.41133,-3.5317 1.24117,-5.2202 0.83345,-1.6836 1.90554,-2.9356 3.22466,-3.7583 1.32032,-0.819 2.75097,-1.2303 4.28715,-1.2303 1.95709,0 3.52085,0.6115 4.69247,1.8263 1.17162,1.2196 1.75324,2.8769 1.75324,4.9779 0,0.8083 -0.0696,1.6309 -0.21706,2.4764 l -12.09395,0 c -0.0372,0.3214 -0.0576,0.6068 -0.0576,0.8658 0,1.5362 0.35376,2.7078 1.05529,3.5209 0.70753,0.807 1.57336,1.2136 2.59268,1.2136 0.96056,0 1.89954,-0.3166 2.82892,-0.945 0.92938,-0.6284 1.6525,-1.5362 2.16456,-2.7234 m -26.94727,-6.1867 4.99467,0 c 1.93672,0 3.36257,-0.2051 4.27036,-0.6236 0.9078,-0.4161 1.63092,-1.0553 2.18015,-1.9103 0.54324,-0.855 0.81786,-1.7628 0.81786,-2.7234 0,-0.7399 -0.14271,-1.3467 -0.43291,-1.8168 -0.29021,-0.4701 -0.69674,-0.813 -1.21959,-1.0337 -0.52765,-0.223 -1.53618,-0.3334 -3.03518,-0.3334 l -5.81253,0 -1.76283,8.4412 z m -5.48875,11.7714 4.74524,-22.6721 9.4653,0 c 1.64171,0 2.87089,0.1906 3.68875,0.5648 0.81786,0.3741 1.499,1.0181 2.03265,1.9319 0.53844,0.9138 0.80826,1.9367 0.80826,3.0724 0,0.9341 -0.19547,1.8887 -0.57562,2.8613 -0.38014,0.9653 -0.86102,1.7676 -1.44743,2.396 -0.58042,0.6283 -1.17043,1.1032 -1.76763,1.4198 -0.602,0.3214 -1.24117,0.5588 -1.92112,0.7123 -1.45223,0.3442 -2.91886,0.5133 -4.40347,0.5133 l -5.67942,0 -1.91633,9.2003 -3.02918,0 z"
       inkscape:connector-curvature="0" />
    <path
       id="path220"
       style="fill:#0060ae;fill-opacity:1;fill-rule:evenodd;stroke:none"
       d="m 544.64157,910.34164 c 1.43305,1.43305 2.22932,3.34338 2.22932,5.4144 0,2.06982 -0.79627,3.98015 -2.22932,5.41319 -1.59254,1.59255 -3.34457,2.22932 -5.4144,2.22932 -2.06982,0 -3.98015,-0.63677 -5.41319,-2.22932 -1.43305,-1.43304 -2.23052,-3.34337 -2.23052,-5.41319 0,-2.07102 0.63678,-3.98135 2.23052,-5.4144 1.43304,-1.43305 3.34337,-2.22932 5.41319,-2.22932 2.06983,0 3.82186,0.79627 5.4144,2.22932 m 1.11526,-1.27355 c -1.75204,-1.75204 -3.98135,-2.7078 -6.52966,-2.7078 -2.5471,0 -4.77642,0.95576 -6.68675,2.7078 -1.75323,1.91033 -2.7078,4.13964 -2.7078,6.68795 0,2.5471 0.95457,4.77642 2.7078,6.68795 1.91033,1.91033 4.13965,2.7066 6.68675,2.7066 2.54831,0 4.77762,-0.79627 6.52966,-2.7066 l 0.15829,0 c 1.75204,-1.91153 2.7078,-4.14085 2.7078,-6.68795 0,-2.54831 -0.95576,-4.77762 -2.86609,-6.68795"
       inkscape:connector-curvature="0" />
    <path
       id="path224"
       style="fill:#0060ae;fill-opacity:1;fill-rule:evenodd;stroke:none"
       d="m 540.50108,912.44024 c 0.47848,0 0.95576,0.15949 1.27475,0.31899 0.47728,0.15829 0.63678,0.63677 0.63678,1.43304 0,0.63678 -0.1595,1.11526 -0.47848,1.43305 -0.47729,0.31779 -0.95457,0.47728 -1.59254,0.47728 l -3.34338,0 0,-3.66236 3.50287,0 z m 2.22932,-0.79627 c -0.63678,-0.31779 -1.43305,-0.47728 -2.22932,-0.47728 l -4.93592,0 0,10.5098 1.43305,0 0,-4.45983 3.18508,0 c 0.63678,0 1.11406,0 1.43305,0.31899 0.47728,0.15949 0.63677,0.63797 0.63677,1.27355 l 0.1595,1.75324 0,0.47728 0,0.31779 0.15949,0.31898 1.75084,0 0,-0.15949 c -0.1595,-0.15949 -0.31779,-0.31779 -0.47729,-0.63678 0,-0.15949 -0.15949,-0.47848 -0.15949,-0.95576 l 0,-1.43305 c 0,-0.31779 0,-0.47728 -0.15949,-0.79627 0,-0.15949 -0.1583,-0.31779 -0.1583,-0.63677 -0.15949,-0.1595 -0.47848,-0.31779 -0.95576,-0.47848 0.47728,-0.31779 0.79627,-0.63678 1.11406,-0.95457 0.15949,-0.47848 0.31898,-0.95576 0.31898,-1.59254 0,-1.27355 -0.31898,-1.91033 -1.11525,-2.38881"
       inkscape:connector-curvature="0" />
  </g>
</svg>
