<?xml version="1.0" encoding="utf-8"?>
<!-- Generator: Adobe Illustrator 21.0.0, SVG Export Plug-In . SVG Version: 6.00 Build 0)  -->
<svg version="1.1" id="Layer_1" xmlns="http://www.w3.org/2000/svg" xmlns:xlink="http://www.w3.org/1999/xlink" x="0px" y="0px"
	 viewBox="0 0 203 102" style="enable-background:new 0 0 203 102;" xml:space="preserve">
<style type="text/css">
	.st0{fill:#231F20;}
	.st1{fill:#C7212B;}
	.st2{fill:#004E27;}
	.st3{fill:#009452;}
	.st4{fill:#EE4036;}
</style>
<g>
	<g>
		<path class="st0" d="M113.2,60.4c0,3.7,3.4,5.6,7.4,5.6c1.6,0,18.9,0,18.9,0s0-2.7,0-4.5c-1.8,0-13.7,0-15,0
			c-0.7,0-1.7-0.2-1.7-1.4c0-0.9,0-5.3,0-5.3h14.3v-3.3h-14.3V45h14.8c1.8-0.2,1.9-1.2,1.9-3.4V41h-26.3
			C113.2,41.1,113.2,55,113.2,60.4z"/>
		<path class="st0" d="M99.2,41.1H80.1v25h19.1c7.4,0,10.6-2,10.8-9c0-0.1,0-6.4,0-6.6C109.8,43.6,106.6,41.1,99.2,41.1z
			 M101.1,58.1c0,3.5-1.5,3.5-5.1,3.5h-7.3V45.1H96c3.7,0,5.1,0.1,5.1,3.8C101.2,49.2,101.1,57.6,101.1,58.1z"/>
		<path class="st0" d="M66.5,44.5v16.9h-7c-3.2,0-5.2-1-5.2-4.7V41h-5.8c-2.8,0-3,0.8-3,3.5v12.2c0,7.5,3,9.4,9.8,9.4h20.2V41h-6.2
			C66.6,41,66.5,41.8,66.5,44.5z"/>
		<path class="st0" d="M185,61.6c-3.4,0-3.9-1.9-3.9-4.9v-6.9c0-3,0.6-4.9,4.1-4.9h12.5c1.2-0.4,1.2-1.6,1.2-3.9h-18.1
			c-7,0-9.4,4.1-9.4,10.5v3.9c0,6.5,2.3,10.5,9.3,10.5h3H196c2.6,0,2.9-0.7,3-2.9v-1.6h-14V61.6z"/>
		<path class="st0" d="M160.4,50.7c-1.7,0-7.2,0-7.2,0c-1.8,0-2.6-1.1-2.6-2.8c0-1.6,0.8-2.8,2.6-2.8h13.3c1.3-0.2,1.7-0.7,1.8-1.9
			v-2.1H152c-6.2,0-10.2,1.8-10.2,7.3c0,5.2,2.5,7.1,8.3,7.1l0,0c0.2,0,6,0,7.7,0s2.5,1.2,2.5,2.7c0,1.6-0.8,3.3-3.4,3.3
			c0,0-13.3,0-14.7,0c0,3.9,1.7,4.5,3.4,4.5s14.4,0,14.4,0c6.2,0,9.1-1.9,9.1-7.8C169.1,52.5,166.7,50.7,160.4,50.7z"/>
	</g>
</g>
<circle class="st1" cx="27.1" cy="63.8" r="5.5"/>
<path class="st2" d="M26.4,54.5c0,0-6,0-13.6,0c-3.4,0-8.2-0.1-8.2,5.7c0,0,0,3.7,0,5.3c0,5.1,4.9,4.9,8.2,4.9c0.4,0,1.2,0,1.6,0
	c0.7,0,3.1,0,6,0c0,0,0-3,0-7.1c0-4.2,3.3-6.2,6.6-6.2c4,0,6.6,2.6,6.6,6.2c0,3.7,0,7,0,7h6V60.2c0-5.7-4.7-5.7-8.1-5.7
	c0,0-3.2,0-3.3,0H26.4z"/>
<path class="st3" d="M17.9,52.6c0,0,6,0,13.6,0c3.4,0,8.2,0.1,8.2-5.7c0,0,0-3.7,0-5.3c0-5.1-4.9-4.9-8.2-4.9c-0.4,0-1.2,0-1.6,0
	c-0.7,0-3.1,0-6,0c0,0,0,3,0,7.1c0,4.2-3.3,6.2-6.6,6.2c-4,0-6.6-2.6-6.6-6.2c0-3.7,0-7,0-7h-6V47c0,5.7,4.7,5.7,8.1,5.7
	c0,0,3.2,0,3.3,0L17.9,52.6z"/>
<circle class="st4" cx="17.3" cy="43.3" r="5.5"/>
</svg>
